<svg xmlns="http://www.w3.org/2000/svg"  viewBox="0 0 100 100" width="100px" height="100px"><path d="M77.5,91c-6.971,0-13.409-3.635-17.143-9.293C58.833,85.954,54.765,89,50,89 c-5.398,0-9.901-3.909-10.826-9.045c-3.229-0.327-5.999-2.428-7.202-5.537c-1.312-3.398-0.458-7.16,2.171-9.632 c-0.006-0.014-8.937-21.933-8.937-21.933l-3.665-8.948C20.17,34.607,18.623,35,17,35c-5.514,0-10-4.486-10-10s4.486-10,10-10 c2.686,0,5.216,1.093,7.061,2.938h0.627c2.648,0,5.009,1.584,6.014,4.036l0.838,2.046H89.5c3.584,0,6.5,2.916,6.5,6.5v24.53 c0,1.632-0.376,3.229-1.07,4.676c2,3.214,3.07,6.923,3.07,10.774C98,81.804,88.804,91,77.5,91z" opacity=".35"/><path fill="#f2f2f2" d="M75.5,89c-6.971,0-13.409-3.635-17.143-9.293C56.833,83.954,52.765,87,48,87 c-5.398,0-9.901-3.909-10.826-9.045c-3.229-0.327-5.999-2.428-7.202-5.537c-1.312-3.398-0.458-7.16,2.171-9.632 c-0.006-0.014-8.937-21.933-8.937-21.933l-3.665-8.948C18.17,32.607,16.623,33,15,33C9.486,33,5,28.514,5,23s4.486-10,10-10 c2.686,0,5.216,1.093,7.061,2.938h0.627c2.648,0,5.009,1.584,6.014,4.036l0.838,2.046H87.5c3.584,0,6.5,2.916,6.5,6.5v24.53 c0,1.632-0.376,3.229-1.07,4.676c2,3.214,3.07,6.923,3.07,10.774C96,79.804,86.804,89,75.5,89z"/><path fill="#40396e" d="M42.258,64.63c-2.408,0-4.59-1.457-5.479-3.717L23.811,29.086c-0.188-0.462-0.135-0.988,0.144-1.403 c0.279-0.415,0.746-0.663,1.245-0.663h62.3c0.828,0,1.5,0.671,1.5,1.5v24.53c0,2.971-2.221,5.474-5.169,5.83L42.96,64.588 C42.725,64.616,42.49,64.63,42.258,64.63z M27.43,30.021l12.133,29.777c0.484,1.229,1.718,1.966,3.016,1.816l40.854-5.706 c0.011-0.002,0.021-0.003,0.032-0.004C84.909,55.733,86,54.507,86,53.051v-23.03C86,30.021,27.43,30.021,27.43,30.021z"/><path fill="#40396e" d="M85.314,73H38.062c-1.521,0-2.866-0.937-3.426-2.386c-0.58-1.501-0.194-3.163,0.982-4.231 l4.486-4.191c0.606-0.564,1.555-0.534,2.12,0.072c0.566,0.605,0.533,1.555-0.071,2.12l-4.502,4.206 c-0.401,0.364-0.268,0.814-0.218,0.943C37.501,69.707,37.673,70,38.062,70h47.253c0.828,0,1.5,0.671,1.5,1.5S86.143,73,85.314,73z"/><path fill="#40396e" d="M32.389,47.621c-0.591,0-1.151-0.352-1.389-0.932l-9.319-22.751h-3.039c-0.828,0-1.5-0.671-1.5-1.5 s0.672-1.5,1.5-1.5h4.046c0.608,0,1.157,0.368,1.388,0.932l9.7,23.683c0.314,0.767-0.053,1.643-0.819,1.957 C32.771,47.584,32.577,47.621,32.389,47.621z"/><path fill="#40396e" d="M51.668,62.708c-0.632,0-1.22-0.402-1.426-1.036l-10.32-31.654 c-0.257-0.788,0.173-1.634,0.961-1.891c0.791-0.258,1.635,0.175,1.891,0.961l10.32,31.654c0.257,0.788-0.173,1.634-0.961,1.891 C51.979,62.684,51.821,62.708,51.668,62.708z"/><path fill="#40396e" d="M64.682,60.714c-0.685,0-1.304-0.472-1.462-1.167l-6.749-29.66c-0.184-0.808,0.322-1.612,1.13-1.795 c0.813-0.19,1.612,0.322,1.796,1.129l6.749,29.66c0.184,0.808-0.322,1.612-1.13,1.795C64.903,60.702,64.791,60.714,64.682,60.714z"/><path fill="#40396e" d="M76.729,59.11c-0.749,0-1.396-0.56-1.487-1.322l-3.349-28.056c-0.099-0.823,0.489-1.569,1.312-1.667 c0.821-0.099,1.569,0.489,1.667,1.312l3.349,28.056c0.099,0.823-0.489,1.569-1.312,1.667C76.848,59.106,76.788,59.11,76.729,59.11z"/><path fill="#40396e" d="M31.047,41.679c-0.801,0-1.466-0.633-1.498-1.44c-0.032-0.828,0.612-1.525,1.439-1.559l55.897-2.214 c0.874-0.014,1.525,0.612,1.559,1.439c0.032,0.828-0.612,1.525-1.439,1.559l-55.897,2.214 C31.087,41.679,31.066,41.679,31.047,41.679z"/><path fill="#40396e" d="M36.022,53.338c-0.769,0-1.424-0.588-1.492-1.368c-0.073-0.825,0.537-1.553,1.362-1.626 l50.181-4.429c0.834-0.07,1.554,0.538,1.626,1.362c0.073,0.825-0.537,1.553-1.362,1.626l-50.181,4.429 C36.111,53.336,36.066,53.338,36.022,53.338z"/><circle cx="48" cy="76" r="4.5" fill="#707cc0"/><path fill="#40396e" d="M48,82c-3.309,0-6-2.691-6-6s2.691-6,6-6s6,2.691,6,6S51.309,82,48,82z M48,73c-1.654,0-3,1.346-3,3 s1.346,3,3,3s3-1.346,3-3S49.654,73,48,73z"/><circle cx="75" cy="76" r="4.5" fill="#707cc0"/><path fill="#40396e" d="M75,82c-3.309,0-6-2.691-6-6s2.691-6,6-6s6,2.691,6,6S78.309,82,75,82z M75,73c-1.654,0-3,1.346-3,3 s1.346,3,3,3s3-1.346,3-3S76.654,73,75,73z"/><circle cx="15" cy="23" r="3.5" fill="#de5147"/><path fill="#40396e" d="M15,28c-2.757,0-5-2.243-5-5s2.243-5,5-5s5,2.243,5,5S17.757,28,15,28z M15,21 c-1.103,0-2,0.897-2,2s0.897,2,2,2s2-0.897,2-2S16.103,21,15,21z"/><circle cx="75.5" cy="68.5" r="14" fill="#96c362" stroke="#40396e" stroke-linecap="round" stroke-linejoin="round" stroke-miterlimit="10" stroke-width="3"/><line x1="75.5" x2="75.5" y1="62.5" y2="74.5" fill="#40396e" stroke="#f2f2f2" stroke-linecap="round" stroke-linejoin="round" stroke-miterlimit="10" stroke-width="3"/><line x1="81.5" x2="69.5" y1="68.5" y2="68.5" fill="#40396e" stroke="#f2f2f2" stroke-linecap="round" stroke-linejoin="round" stroke-miterlimit="10" stroke-width="3"/></svg>