<svg xmlns="http://www.w3.org/2000/svg"  viewBox="0 0 100 100" width="100px" height="100px"><g id="Слой_2"><path d="M84.39,26.802l3.706-3.706c2.534-2.534,2.534-6.658,0-9.192C86.868,12.676,85.236,12,83.5,12 c-1.736,0-3.368,0.676-4.596,1.904l-3.275,3.275c-4.747-3.418-10.22-5.318-15.56-5.318c-5.393,0-10.12,1.876-13.669,5.425 c-6.412,6.412-6.964,16.85-2.169,25.88l-6.967-3.716c-1.139-0.606-2.428-0.925-3.734-0.925c-2.275,0-4.443,0.948-5.948,2.6 L17.58,52.128c-2.503,2.756-2.784,6.824-0.685,9.893l5.632,8.26l-6.622,6.622c-2.534,2.534-2.534,6.658,0,9.192 C17.132,87.324,18.764,88,20.5,88s3.368-0.676,4.596-1.904l4.883-4.883l1.911,2.803c1.493,2.188,3.963,3.494,6.61,3.494 c0.436,0,0.877-0.036,1.311-0.108L51.815,85.4c1.828-0.305,3.505-1.243,4.724-2.644l13.007-15.008 c1.607-1.854,2.269-4.299,1.818-6.708c-0.136-0.73-0.369-1.426-0.688-2.074c4.716-0.342,8.851-2.18,12.038-5.366 c4.317-4.317,6.155-10.374,5.174-17.056C87.398,33.202,86.205,29.896,84.39,26.802z" opacity=".35"/><path fill="#f2f2f2" d="M82.39,24.802l3.706-3.706c2.534-2.534,2.534-6.658,0-9.192C84.868,10.676,83.236,10,81.5,10 c-1.736,0-3.368,0.676-4.596,1.904l-3.275,3.275c-4.747-3.418-10.22-5.318-15.56-5.318c-5.393,0-10.12,1.876-13.669,5.425 c-6.412,6.412-6.964,16.85-2.169,25.88l-6.967-3.716c-1.139-0.606-2.428-0.925-3.734-0.925c-2.275,0-4.443,0.948-5.948,2.6 L15.58,50.128c-2.503,2.756-2.784,6.824-0.685,9.893l5.632,8.26l-6.622,6.622c-2.534,2.534-2.534,6.658,0,9.192 C15.132,85.324,16.764,86,18.5,86s3.368-0.676,4.596-1.904l4.883-4.883l1.911,2.803c1.493,2.188,3.963,3.494,6.61,3.494 c0.436,0,0.877-0.036,1.311-0.108L49.815,83.4c1.828-0.305,3.505-1.243,4.724-2.644l13.007-15.008 c1.607-1.854,2.269-4.299,1.818-6.708c-0.136-0.73-0.369-1.426-0.688-2.074c4.716-0.342,8.851-2.18,12.038-5.366 c4.317-4.317,6.155-10.374,5.174-17.056C85.398,31.202,84.205,27.896,82.39,24.802z"/><path fill="#40396e" d="M58.069,14.861L58.069,14.861c-4.038,0-7.542,1.37-10.133,3.96c-6.298,6.298-4.863,17.982,3.199,26.044 c4.55,4.55,10.349,7.159,15.91,7.159c4.038,0,7.542-1.37,10.133-3.96c3.172-3.172,4.508-7.716,3.763-12.795 c-0.697-4.752-3.17-9.457-6.962-13.249C69.43,17.471,63.63,14.861,58.069,14.861L58.069,14.861z"/><line x1="18.5" x2="81.5" y1="79.5" y2="16.5" fill="#f2f2f2"/><path fill="#40396e" d="M18.5,81c-0.384,0-0.768-0.146-1.061-0.439c-0.586-0.586-0.586-1.535,0-2.121l63-63 c0.586-0.586,1.535-0.586,2.121,0s0.586,1.535,0,2.121l-63,63C19.268,80.854,18.884,81,18.5,81z"/><polygon fill="#ffc571" points="31.5,44.5 61.5,60.5 48.5,75.5 36.5,77.5"/><polygon fill="#f9b84f" points="21.5,55.5 31.5,44.5 51.5,62.5 36.5,77.5"/><polygon fill="#ef8630" points="51.5,62.5 61.5,60.5 48.5,75.5 36.5,77.5"/><path fill="#40396e" d="M64.449,59.961c-0.168-0.901-0.728-1.665-1.537-2.098L32.911,41.862c-1.181-0.628-2.735-0.354-3.632,0.63 l-10,11c-0.938,1.032-1.044,2.558-0.258,3.707l15,22c0.56,0.82,1.485,1.311,2.479,1.311c0.164,0,0.328-0.014,0.493-0.041l12-2 c0.686-0.114,1.315-0.467,1.774-0.994l13-15C64.369,61.78,64.618,60.863,64.449,59.961z M61.5,60.509l-13.001,15l-11.999,2 l-15-22l10-11L61.5,60.509L61.5,60.509L61.5,60.509z"/><line x1="45" x2="62.5" y1="53" y2="35.5" fill="#f2f2f2"/><path fill="#40396e" d="M45,54.5c-0.384,0-0.768-0.146-1.061-0.439c-0.586-0.586-0.586-1.535,0-2.121l17.5-17.5 c0.586-0.586,1.535-0.586,2.121,0s0.586,1.535,0,2.121l-17.5,17.5C45.768,54.354,45.384,54.5,45,54.5z"/><ellipse cx="62.557" cy="33.443" fill="#739f4d" rx="13.154" ry="17.678" transform="rotate(-45.001 62.557 33.444)"/><line x1="67.5" x2="81.5" y1="30.5" y2="16.5" fill="#f2f2f2"/><path fill="#40396e" d="M67.5,32c-0.384,0-0.768-0.146-1.061-0.439c-0.586-0.586-0.586-1.535,0-2.121l14-14 c0.586-0.586,1.535-0.586,2.121,0s0.586,1.535,0,2.121l-14,14C68.268,31.854,67.884,32,67.5,32z"/><circle cx="57.5" cy="28.5" r="3.5" fill="#96c362"/><circle cx="41" cy="63" r="4" fill="#ef8630"/><g><path fill="#e66f2e" d="M51.1,72.5C50.366,71.592,49.258,71,48,71c-2.209,0-4,1.791-4,4c0,0.427,0.085,0.83,0.208,1.215L48.5,75.5 L51.1,72.5z"/></g><g><path fill="#ef8630" d="M26.574,62.942C27.956,62.674,29,61.46,29,60c0-1.657-1.343-3-3-3c-1.065,0-1.994,0.558-2.527,1.394 L26.574,62.942z"/></g><g><path fill="#f9b84f" d="M54,59c0.987,0,1.855-0.483,2.402-1.219l-5.218-2.783C51.072,55.313,51,55.647,51,56 C51,57.657,52.343,59,54,59z"/></g></g></svg>