<svg xmlns="http://www.w3.org/2000/svg"  viewBox="0 0 100 100" width="50px" height="50px"><circle cx="52" cy="52" r="44" opacity=".35"/><circle cx="50" cy="50" r="44" fill="#f2f2f2"/><circle cx="50" cy="50" r="37.5" fill="#d9eeff"/><path fill="#96c362" d="M53.305,69.317c-0.939-0.36-3.662-3.664-3.965-3.963c-0.311-0.299-1.701-0.694-2.346-0.565	c-0.645,0.129-3.662,2.098-4.511,2.26c-0.841,0.162-1.578-0.573-1.977-1.695c-0.401-1.122-1.103-5.657-0.54-6.798	c0.563-1.14,6.499-5.479,7.747-5.479c1.251,0,2.133,3.895,3.424,4.151c1.292,0.256,0.718-3.441,2.346-3.39	c1.627,0.051,3.056,5.657,3.056,5.657s1.775,2.825,1.627,3.785c-0.156,0.95-2.018,4.955-2.526,5.469	C55.143,69.264,54.244,69.676,53.305,69.317z"/><path fill="#96c362" d="M65.391,70.748c-0.618,0-1.222-0.291-1.603-0.831c-0.618-0.878-0.405-2.092,0.473-2.716	c-0.154-0.176-0.327-0.366-0.489-0.526c-0.778-0.747-0.809-1.977-0.061-2.755c0.741-0.778,1.977-0.809,2.755-0.076	c0.939,0.892,2.03,2.235,1.938,3.617c-0.098,1.564-1.48,2.649-1.899,2.937C66.161,70.634,65.78,70.748,65.391,70.748z"/><path fill="#96c362" d="M58.238,77.507c-0.551,0-1.103-0.223-1.515-0.651c-0.806-0.831-0.79-2.166,0.049-2.972l3.975-3.836	c0.839-0.815,2.174-0.79,2.98,0.049c0.806,0.839,0.782,2.174-0.049,2.98l-3.975,3.836C59.29,77.308,58.764,77.507,58.238,77.507z"/><path fill="#96c362" d="M21.681,62.404c-1.149-1.468,1.748-5.264,1.091-5.762c-0.663-0.495-4.606,1.153-5.048,0.826	c-0.442-0.321,0.011-4.879,0.56-4.56c0.549,0.313,1.821-0.343,2.408-0.685c0.579-0.344,0.537-2.154,0.118-2.588	c-0.42-0.436-4.059-1.725-3.723-2.274c0.327-0.549,3.701,0.199,3.701,0.199s1.947-0.014,2.847,0.42	c0.892,0.442,1.953,3.105,2.671,3.731c0.725,0.626,2.204,1.533,2.487,1.038c0.282-0.495-0.688-1.947-0.671-2.565	c0.014-0.61,1.488-3.25,2.221-3.449c0.725-0.199,1.916,1.052,2.434,1.84c0.52,0.778,2.288,4.182,3.046,4.143	c0.755-0.039,1.197-3.06,0.839-3.731c-0.358-0.68-2-1.564-1.983-2.602c0.014-1.046,1.449,0.182,2.168-0.19	c0.716-0.366,2.129-4.106,1.74-5.273c-0.397-1.167-1.687-1.717-1.678-2.419c0-0.702,3.449-1.701,4.305-2.442	c0.856-0.733,1.267-2.679,0.939-3.373c-0.327-0.694-1.549-1.259-1.558-2.456c-0.014-1.191,4.816-4.09,5.395-3.762	c0.573,0.327-0.176,4.433,0.694,4.632c0.87,0.207,0.755-3.58,1.228-4.747c0.465-1.175,3.946-2.313,3.991-3.068	c0.053-0.747-2.411-0.999-3.678-0.907c-1.267,0.084-3.083,0.892-3.381,0.817c-0.291-0.076-0.763-0.411-1.038-0.504	c-0.282-0.098-3.586,0.252-4.305,0.481c-0.725,0.221-2.213,1.359-2.923,1.29c-0.702-0.076-0.389-0.909-0.772-0.968	c-0.381-0.061-1.732,0.878-2.769,0.856s-2.061-1.488-3.723-1.754c-0.632-0.106-1.328-0.336-2.733,0.207	C18.398,29.625,13.17,39.882,13.17,51.336c0,6.746,1.84,13.065,4.998,18.52c0.207-0.291,0.375-0.596,0.436-0.878	C18.824,67.94,22.766,64.702,21.681,62.404z"/><path fill="#96c362" d="M86.261,42.346c-0.442-1.779-0.985-3.519-1.678-5.189c-1.351-0.008-2.968-0.039-3.113-0.106	c-0.26-0.115-1.881-0.939-1.629-1.84c0.237-0.839,2.698-0.458,3.4-0.884c-1.74-3.365-3.961-6.441-6.601-9.104	c-0.504,0.626-1.122,1.267-1.594,1.343c-0.946,0.145-4.456-1.773-5.043-1.887c-0.587-0.106-2.403,0.948-3.312,0.933	c-0.909-0.023-2.943-2.556-3.447-2.814c-0.512-0.266-2.366-0.381-2.847-0.123c-0.473,0.266-1.259,1.877-0.993,2.733	c0.26,0.862,1.017,2.254,0.925,2.71c-0.084,0.45-1.924,1.343-2.022,2.19c-0.106,0.839,4.407-1.056,5.436-1.064	c1.03-0.008,1.84,0.014,2.229,0.473c0.381,0.465,4.27,5.281,4.558,6.579c0.297,1.306-0.012,3.738,0.313,4.655	c0.323,0.915,0.874,2.724,0.874,2.724l3.267,6.235c0,0,2.36,3.158,3.322,2.999c0.968-0.16-2.864-5.639-2.726-6.624	c0.137-0.976,1.877-1.457,2.945-0.763c1.077,0.694,3.115,4.004,3.832,3.379c0.716-0.632-0.156-3.306,0.256-4.008	C82.869,44.448,84.664,43.323,86.261,42.346z"/><path fill="#96c362" d="M86.727,57.27c-0.393-0.53-2.266-4.045-2.61-4.176c-0.344-0.131-3.05,0.561-3.57,1.228	c-0.528,0.667-0.344,1.635-0.833,1.934c-0.489,0.299-1.529-0.36-1.985,0.561s0.297,4.39,0.688,5.027	c0.393,0.637,1.24,1.021,1.441,1.85c0.201,0.829-0.968,2.44-0.968,2.44l-5.443,7.338c0,0-0.96,1.887-0.944,2.847	c0.016,0.966,0.817,1.466,1.32,1.281c0.504-0.176,2.303-1.537,2.303-1.537s0.859-0.648,1.915-1.277	c1.048-0.637,1.582-2.989,2.415-3.265c0.192-0.07,0.536-0.254,0.937-0.491c2.69-4.083,4.562-8.689,5.434-13.632	C86.791,57.362,86.752,57.309,86.727,57.27z"/><path fill="#40396e" d="M50,89c-21.505,0-39-17.495-39-39s17.495-39,39-39s39,17.495,39,39S71.505,89,50,89z M50,14 c-19.851,0-36,16.149-36,36s16.149,36,36,36s36-16.149,36-36S69.851,14,50,14z"/></svg>