<svg xmlns="http://www.w3.org/2000/svg"  viewBox="0 0 100 100" width="100px" height="100px" baseProfile="basic"><path d="M89.626,79.568c1.165,2.205,0.907,4.869-0.659,6.807c-1.184,1.461-2.95,2.301-4.831,2.301 c-0.573,0-1.146-0.076-1.69-0.229l-7.6-2.167l-2.043,7.161c-0.678,2.406-2.731,4.163-5.222,4.459 c-0.239,0.029-0.496,0.048-0.745,0.048c-2.215,0-4.277-1.193-5.385-3.132l-7.38-12.918c-0.668,0.086-1.337,0.134-2.005,0.134 h-0.048c-0.802,0-1.594-0.048-2.368-0.143l-7.667,12.918c-1.108,1.881-3.151,3.046-5.337,3.046c-0.286,0-0.573-0.019-0.859-0.057 c-2.482-0.344-4.497-2.129-5.136-4.554l-1.871-7.036l-7.399,1.967c-0.515,0.134-1.05,0.201-1.575,0.201 c-1.929,0-3.704-0.869-4.888-2.368c-1.527-1.948-1.757-4.621-0.573-6.798l6.693-12.335c-1.747-2.874-2.673-6.168-2.654-9.547 c0-0.43,0.01-0.859,0.048-1.298c-3.141-2.673-5.27-6.292-6.082-10.378c-0.945-4.802,0.038-9.681,2.788-13.748 c0.917-1.356,2.024-2.606,3.275-3.685c-0.315-4.086,0.735-8.125,3.036-11.571c2.731-4.077,6.893-6.845,11.734-7.81l0.134-0.019 c1.232-0.21,2.311-0.306,3.389-0.306c0.401,0,0.821,0.019,1.251,0.048C41.431,4.45,46.539,2.053,52,2.053 c3.657,0,7.161,1.06,10.158,3.065c1.47,0.974,2.769,2.11,3.867,3.399c0.43-0.029,0.859-0.048,1.299-0.048 c4.917,0.029,9.528,1.957,12.975,5.423c3.466,3.485,5.346,8.096,5.318,12.956c0,0.43-0.01,0.859-0.048,1.298 c3.141,2.664,5.27,6.273,6.082,10.378c0.945,4.793-0.038,9.681-2.788,13.748c-0.907,1.356-2.024,2.606-3.265,3.676 c0.306,3.895-0.63,7.705-2.664,10.989L89.626,79.568z" opacity=".35"/><path fill="#f2f2f2" d="M87.626,77.568c1.165,2.205,0.907,4.869-0.659,6.807c-1.184,1.461-2.95,2.301-4.831,2.301 c-0.573,0-1.146-0.076-1.69-0.229l-7.6-2.167l-2.043,7.161c-0.678,2.406-2.731,4.163-5.222,4.459 c-0.239,0.029-0.496,0.048-0.745,0.048c-2.215,0-4.277-1.193-5.385-3.132l-7.38-12.918c-0.668,0.086-1.337,0.134-2.005,0.134 h-0.048c-0.802,0-1.594-0.048-2.368-0.143l-7.667,12.918c-1.108,1.881-3.151,3.046-5.337,3.046c-0.286,0-0.573-0.019-0.859-0.057 c-2.482-0.344-4.497-2.129-5.136-4.554l-1.871-7.036l-7.399,1.967c-0.515,0.134-1.05,0.201-1.575,0.201 c-1.929,0-3.704-0.869-4.888-2.368c-1.527-1.948-1.757-4.621-0.573-6.798l6.693-12.335c-1.747-2.874-2.673-6.168-2.654-9.547 c0-0.43,0.01-0.859,0.048-1.298c-3.141-2.673-5.27-6.292-6.082-10.378c-0.945-4.802,0.038-9.681,2.788-13.748 c0.917-1.356,2.024-2.606,3.275-3.685c-0.315-4.086,0.735-8.125,3.036-11.571c2.731-4.077,6.893-6.845,11.734-7.81l0.134-0.019 c1.232-0.21,2.31-0.306,3.389-0.306c0.401,0,0.821,0.019,1.251,0.048C39.431,2.45,44.539,0.053,50,0.053 c3.657,0,7.161,1.06,10.158,3.065c1.47,0.974,2.769,2.11,3.867,3.399c0.43-0.029,0.859-0.048,1.299-0.048 c4.917,0.029,9.528,1.957,12.975,5.423c3.466,3.485,5.346,8.096,5.318,12.956c0,0.43-0.01,0.859-0.048,1.298 c3.141,2.664,5.27,6.273,6.082,10.378c0.945,4.793-0.038,9.681-2.788,13.748c-0.907,1.356-2.024,2.606-3.265,3.676 c0.306,3.895-0.63,7.705-2.664,10.989L87.626,77.568z"/><path fill="#3c4c9a" d="M52.65,57.043l-2.647-2.647l-2.611,2.647l1.081,1.081l-1.081,1.12l2.611,2.611l2.647-2.611 l1.081-1.12L52.65,57.043z"/><path fill="#3c4c9a" d="M52.65,57.043l-2.647-2.647l-2.611,2.647l-1.12,1.081L50,61.853l2.647-2.611l-1.117-1.117 L52.65,57.043z"/><polygon fill="#f4665c" points="56.305,53.11 34.647,89.647 31.194,76.617 17.8,80.166 40.715,37.95 54.395,45.899 52.549,49.127 51.746,50.46"/><polygon fill="#f4665c" points="82.14,80.473 68.576,76.613 64.84,89.742 43.684,52.691 46.944,50.907 48.29,50.126 47.546,48.79 45.725,45.519 59.548,37.819"/><path fill="#f9b84f" d="M80.474,46.535c-0.851,1.259-1.947,2.355-3.206,3.206c-0.934,0.61-1.377,1.662-1.136,2.719 c1.259,6.329-2.842,12.456-9.211,13.715c-0.733,0.162-1.461,0.202-2.233,0.241c-0.772,0-1.583-0.083-2.355-0.241h-0.526 c-0.89,0-1.746,0.403-2.233,1.136C57.425,70.513,53.855,72.461,50,72.5h-0.039c-3.895,0-7.548-1.908-9.697-5.114 c-0.487-0.728-1.338-1.175-2.233-1.175h-0.364c-0.772,0.123-1.583,0.202-2.355,0.202c-6.491-0.039-11.684-5.272-11.645-11.684 c0-0.772,0.083-1.5,0.202-2.233c0.246-1.057-0.202-2.11-1.136-2.719c-5.355-3.57-6.816-10.789-3.206-16.145 c0.851-1.259,1.947-2.355,3.206-3.206c0.934-0.61,1.377-1.662,1.136-2.719c-1.259-6.329,2.842-12.456,9.211-13.715 c0.733-0.123,1.461-0.202,2.233-0.202c0.772,0,1.583,0.083,2.355,0.202h0.526c0.851-0.039,1.623-0.487,2.07-1.215 C42.496,9.413,46.228,7.588,50,7.588c2.233,0,4.465,0.61,6.452,1.947c1.298,0.851,2.434,1.947,3.285,3.246 c0.487,0.728,1.338,1.215,2.233,1.215h0.364c0.772-0.162,1.583-0.241,2.355-0.241c6.491,0.039,11.684,5.276,11.645,11.684 c0,0.772-0.083,1.5-0.202,2.233c-0.202,1.052,0.246,2.11,1.136,2.719C82.623,33.956,84.083,41.18,80.474,46.535z"/><path fill="#3f396e" d="M64.839,91.174c-0.51,0-0.986-0.272-1.244-0.722l-9.14-16.007c-1.44,0.528-2.929,0.802-4.441,0.817 c-1.625,0-3.189-0.276-4.69-0.82l-9.447,15.936c-0.294,0.497-0.861,0.766-1.428,0.689c-0.572-0.08-1.04-0.494-1.188-1.052 l-3.085-11.647L18.167,81.55c-0.551,0.145-1.139-0.05-1.492-0.499c-0.353-0.449-0.406-1.066-0.133-1.568l8.146-15.01 c-2.277-2.498-3.552-5.775-3.532-9.152c0-0.779,0.07-1.566,0.228-2.543c0.005-0.033,0.011-0.065,0.019-0.097 c0.118-0.508-0.095-0.996-0.571-1.307c-3.039-2.026-5.093-5.097-5.796-8.656c-0.699-3.543,0.03-7.147,2.053-10.15 c0.985-1.455,2.271-2.743,3.724-3.724c0.492-0.321,0.705-0.813,0.587-1.326c-0.715-3.597,0.003-7.213,2.015-10.22 c2.02-3.019,5.107-5.072,8.692-5.781c0.976-0.164,1.789-0.237,2.601-0.237c0.761,0,1.621,0.07,2.559,0.21h0.441 c0.353-0.018,0.719-0.231,0.935-0.583C41.182,7.085,45.417,4.826,50,4.826c2.709,0,5.309,0.786,7.516,2.272 c1.552,1.017,2.842,2.293,3.818,3.781c0.248,0.371,0.693,0.618,1.125,0.618h0.235c0.834-0.165,1.729-0.251,2.597-0.251 c3.654,0.022,7.069,1.449,9.625,4.018c2.556,2.568,3.951,5.973,3.929,9.587c0,0.779-0.07,1.566-0.228,2.543 c-0.109,0.575,0.115,1.104,0.578,1.421c3.012,2.005,5.066,5.074,5.769,8.632c0.701,3.545-0.028,7.152-2.052,10.156 c-0.983,1.454-2.27,2.741-3.724,3.724c-0.492,0.322-0.705,0.812-0.588,1.325c0.004,0.014,0.007,0.027,0.008,0.04 c0.853,4.287-0.38,8.619-3.312,11.8l8.111,15.313c0.269,0.507,0.209,1.125-0.152,1.571c-0.361,0.446-0.955,0.633-1.505,0.476 l-12.188-3.468l-3.344,11.751c-0.158,0.554-0.632,0.96-1.205,1.03C64.954,91.171,64.896,91.174,64.839,91.174z M55.07,71.201 c0.5,0,0.982,0.262,1.245,0.723l8.08,14.15l2.804-9.853c0.103-0.365,0.349-0.674,0.681-0.859c0.331-0.185,0.724-0.229,1.088-0.126 l10.336,2.942L72.27,64.899c-0.304-0.574-0.184-1.281,0.293-1.722c2.75-2.545,3.961-6.249,3.238-9.91 c-0.373-1.673,0.333-3.369,1.801-4.327c1.134-0.767,2.155-1.788,2.933-2.94c1.594-2.365,2.169-5.206,1.618-7.998 c-0.555-2.804-2.175-5.224-4.562-6.814c-1.412-0.966-2.11-2.647-1.796-4.292c0.126-0.779,0.185-1.426,0.185-2.054 c0.018-2.853-1.082-5.534-3.094-7.558c-2.019-2.029-4.72-3.156-7.603-3.173c-0.718,0-1.464,0.076-2.149,0.221 c-0.097,0.021-0.196,0.031-0.295,0.031h-0.379c-1.383,0-2.729-0.728-3.514-1.901c-0.755-1.152-1.795-2.178-3.014-2.977 C54.183,8.307,52.138,7.69,50,7.69c-3.62,0-6.964,1.78-8.942,4.761c-0.684,1.113-1.921,1.84-3.282,1.903l-0.614,0.001 c-0.073,0-0.145-0.006-0.216-0.016c-0.838-0.129-1.59-0.193-2.236-0.193c-0.649,0-1.313,0.061-2.087,0.19 c-2.793,0.553-5.232,2.173-6.827,4.556c-1.586,2.371-2.152,5.222-1.593,8.029c0.374,1.64-0.331,3.348-1.804,4.309 c-1.134,0.766-2.155,1.787-2.934,2.94c-1.593,2.364-2.169,5.203-1.618,7.993c0.553,2.805,2.174,5.226,4.563,6.819 c1.454,0.949,2.158,2.632,1.795,4.294c-0.128,0.8-0.185,1.435-0.185,2.053c-0.019,3.002,1.192,5.785,3.408,7.843 c0.479,0.445,0.596,1.158,0.284,1.732l-7.07,13.026l10.186-2.699c0.366-0.096,0.757-0.045,1.086,0.146 c0.328,0.191,0.567,0.504,0.665,0.871l2.578,9.73l8.338-14.066c0.377-0.634,1.172-0.88,1.841-0.566 c1.482,0.697,3.037,1.05,4.623,1.05c1.553-0.015,3.057-0.371,4.496-1.056C54.653,71.246,54.863,71.201,55.07,71.201z"/><path fill="#ffe385" d="M50.002,18.325c-11.996,0-21.719,9.723-21.719,21.719s9.723,21.719,21.719,21.719 s21.719-9.723,21.719-21.719S61.996,18.325,50.002,18.325z"/><path fill="#fff" d="M45.554,49.263c-1.135,0-1.704-0.551-1.704-1.652c0-1.086,0.569-1.629,1.704-1.629h2.608V35.499 l-1.885,1.137c-0.498,0.294-0.946,0.37-1.343,0.233c-0.395-0.139-0.696-0.397-0.904-0.775c-0.206-0.378-0.267-0.788-0.181-1.227 c0.086-0.437,0.37-0.813,0.853-1.122l3.589-2.169c0.361-0.225,0.727-0.406,1.097-0.542c0.37-0.139,0.735-0.208,1.097-0.208 c0.517,0,0.925,0.139,1.227,0.414c0.301,0.275,0.452,0.681,0.452,1.215v13.529h2.349c1.12,0,1.679,0.542,1.679,1.629 c0,1.101-0.559,1.652-1.679,1.652H45.554z"/></svg>