<svg xmlns="http://www.w3.org/2000/svg"  viewBox="0 0 30 30" width="50px" height="50px"><rect width="29" height="22" x=".5" y="4" fill="#ffeea3"/><path fill="#ba9b48" d="M30,26.5H0v-23h30V26.5z M1,25.5h28v-21H1V25.5z"/><polygon fill="#fff" points="29.5,18.12 0.5,11.88 0.5,8.209 29.5,14.449"/><path fill="#788b9c" d="M30,18.739L0,12.284V7.59l30,6.455V18.739z M1,11.476l28,6.025v-2.647L1,8.828V11.476z"/><g><polygon fill="#66798f" points="29.5,21.791 0.5,15.551 0.5,11.88 29.5,18.12"/><path fill="#36404d" d="M30,22.41L0,15.955v-4.694l30,6.455V22.41z M1,15.146l28,6.025v-2.647L1,12.499V15.146z"/></g><g><rect width="1.149" height="6.491" x="14.425" y="11.282" fill="#c74343"/><path fill="#c74343" d="M17.659,12.431h-5.319c0,0.265,0.23,0.479,0.495,0.479H12.82c0,0.265,0.214,0.479,0.479,0.479 c0,0.265,0.214,0.479,0.479,0.479h2.445c0.265,0,0.479-0.214,0.479-0.479c0.265,0,0.479-0.214,0.479-0.479h-0.016 C17.429,12.91,17.659,12.696,17.659,12.431z"/><path fill="#c74343" d="M17.175,13.128c0.039,0.072,0.058,0.154,0.09,0.23c0.229,0.392,0.37,0.843,0.37,1.33 c0,1.464-1.187,2.651-2.651,2.651c-1.464,0-2.651-1.187-2.651-2.651c0-0.487,0.141-0.937,0.37-1.33 c0.032-0.076,0.051-0.158,0.09-0.23c-0.54,0.553-0.874,1.308-0.874,2.143c0,1.693,1.372,3.065,3.065,3.065 c1.693,0,3.065-1.372,3.065-3.065C18.049,14.436,17.716,13.68,17.175,13.128z"/><polygon fill="#c74343" points="20.408,13.513 19.664,13.513 18.718,14.987 18.718,17.231 19.462,17.231 19.462,15.254 20.094,14.532"/><polygon fill="#c74343" points="9.592,13.513 10.336,13.513 11.282,14.987 11.282,17.231 10.538,17.231 10.538,15.254 9.906,14.532"/><rect width="1.49" height=".549" x="14.262" y="11.246" fill="#c74343"/><path fill="#c74343" d="M15,19.6c-1.359,0-2.577-0.521-3.103-1.326c-0.168-0.258-0.096-0.603,0.162-0.772 c0.257-0.169,0.603-0.097,0.772,0.162c0.258,0.395,1.047,0.821,2.169,0.821c1.107,0,1.896-0.418,2.161-0.807 c0.173-0.255,0.521-0.321,0.775-0.146c0.255,0.173,0.32,0.52,0.147,0.775C17.538,19.104,16.357,19.6,15,19.6z"/><path fill="#c74343" d="M17.353,17.882l0.74,0c0.342,0.001,0.532,0.12,0.5,0.411c0.321,0.14,0.46,0.368,0.408,0.687 l-2.087,0L17.353,17.882z"/><path fill="#c74343" d="M12.552,17.882l-0.74,0c-0.342,0.001-0.532,0.12-0.5,0.411c-0.321,0.14-0.46,0.368-0.408,0.687 l2.087,0L12.552,17.882z"/><rect width=".866" height=".677" x="15" y="9.795" fill="#c74343"/><rect width=".406" height="2.22" x="15" y="9.984" fill="#c74343"/></g></svg>