<svg xmlns="http://www.w3.org/2000/svg"  viewBox="0 0 40 40" width="50px" height="50px"><path fill="#8bb7f0" d="M0.5,5.5h39v8h-39V5.5z"/><path fill="#4e7ab5" d="M39,6v7H1V6H39 M40,5H0v9h40V5L40,5z"/><path fill="#8bb7f0" d="M0.5,26.5h39v8h-39V26.5z"/><path fill="#4e7ab5" d="M39,27v7H1v-7H39 M40,26H0v9h40V26L40,26z"/><path fill="#f78f8f" d="M0.5,13.5h39v13.096h-39V13.5z"/><path fill="#c74343" d="M39,14v12H1V14H39 M40,13H0v14h40V13L40,13z"/><path fill="#fff" d="M27.766,24.304V25H12.234v-0.696h0.388v-0.759h0.392V22.9h0.388v-0.485h0.232v-0.417l0.565-0.007	l0.008-1.528c-0.042-0.156-0.169-0.295-0.274-0.337v-1.109c0.055,0.013,0.101,0.055,0.126,0.097c0.013,0.017,0.021,0.034,0.03,0.046	c0,0.004,0,0.004,0,0.004c0.008,0.013,0.013,0.025,0.013,0.03h0.464v-0.839c0.008,0.013,0.013,0.025,0.021,0.038	c0.038,0.076,0.089,0.181,0.207,0.181c0.038,0,0.067-0.013,0.084-0.042c0.029-0.055,0.004-0.135-0.029-0.194	c-0.03-0.055-0.08-0.139-0.042-0.282c0.046,0.072,0.11,0.11,0.152,0.097c0.025-0.004,0.046-0.034,0.034-0.08	c-0.017-0.055-0.038-0.097-0.059-0.131c-0.034-0.059-0.063-0.105-0.046-0.198c0.021,0.042,0.051,0.072,0.08,0.084	c0.025,0.008,0.051,0.004,0.067-0.013c0.021-0.021,0.03-0.059,0.017-0.105c-0.008-0.034-0.021-0.067-0.034-0.093	c-0.025-0.063-0.042-0.114-0.017-0.198c0.025,0.076,0.059,0.114,0.097,0.11c0.021-0.004,0.059-0.025,0.059-0.131v-0.017	c0-0.198,0-0.384,0.232-0.455l0.021-0.004v-0.021c0.004-0.051,0.029-0.16,0.08-0.16s0.076,0.11,0.08,0.16l0.004,0.021l0.017,0.004	c0.236,0.072,0.236,0.257,0.236,0.455v0.017c0,0.105,0.034,0.126,0.059,0.131c0.034,0.004,0.067-0.034,0.097-0.11	c0.025,0.084,0.004,0.135-0.021,0.198c-0.008,0.025-0.021,0.059-0.029,0.093c-0.013,0.046-0.008,0.084,0.017,0.105	c0.017,0.017,0.042,0.021,0.067,0.013c0.029-0.013,0.059-0.042,0.076-0.084c0.017,0.093-0.008,0.139-0.042,0.198	c-0.021,0.034-0.046,0.076-0.059,0.131c-0.013,0.051,0.008,0.076,0.034,0.08c0.042,0.013,0.105-0.025,0.152-0.097	c0.034,0.143-0.013,0.228-0.046,0.282c-0.034,0.059-0.059,0.139-0.025,0.194c0.126,0.135,0.278-0.072,0.308-0.177v0.919h1.96v-0.847	c0.076,0.046,0.101,0.118,0.11,0.131v0.177c0.063,0,0.236,0,0.236,0c0.021-0.008,0.063-0.051,0.063-0.055	c0.067-0.126,0.021-0.379-0.135-0.392v-0.236c0.072,0.021,0.232,0.093,0.232,0.341v0.346h0.253v-0.561	c0-0.101-0.059-0.156-0.105-0.198c-0.034-0.034-0.063-0.059-0.063-0.105c-0.004-0.034-0.008-0.105,0-0.169	c0.038,0.084,0.08,0.11,0.11,0.114h0.089c0,0,0.013-0.089,0.013-0.11c0-0.08-0.046-0.152-0.143-0.291	c-0.017-0.034-0.042-0.067-0.067-0.105c-0.025-0.042-0.021-0.16,0.004-0.249c0.021,0.122,0.055,0.211,0.148,0.211	c0.008,0,0.093-0.004,0.093-0.004s0.025-0.101,0.025-0.152c0-0.08-0.034-0.139-0.067-0.194c-0.021-0.029-0.042-0.063-0.055-0.101	c-0.029-0.084-0.025-0.177,0.017-0.245c0,0.008,0.004,0.021,0.004,0.034c0.017,0.11,0.03,0.177,0.11,0.181h0.084	c0,0,0.029-0.27-0.076-0.375c-0.004-0.004-0.008-0.013-0.008-0.017c-0.017-0.03,0-0.08,0.021-0.122	c0.034,0.08,0.059,0.118,0.101,0.122h0.093c0,0-0.004-0.202-0.067-0.266c-0.034-0.034-0.038-0.08-0.013-0.122	c0.034,0.046,0.063,0.063,0.11,0.063h0.059l-0.038-0.312h0.055l-0.013-0.19h0.076l-0.008-0.16h0.143l-0.008-0.16h0.135v-0.063	c0.004-0.051,0.013-0.131,0.051-0.169C19.954,15.008,19.97,15,19.992,15c0.025,0,0.042,0.008,0.059,0.025	c0.034,0.038,0.046,0.118,0.051,0.169v0.063h0.135l-0.008,0.16h0.143l-0.008,0.16h0.076l-0.013,0.19h0.055l-0.042,0.312h0.08	c0.03-0.004,0.063-0.021,0.093-0.063c0.025,0.042,0.021,0.089-0.013,0.122c-0.063,0.063-0.063,0.266-0.063,0.266h0.093	c0.046-0.004,0.072-0.042,0.101-0.131c0.013,0.034,0.03,0.08,0.017,0.135c-0.004,0.004-0.004,0.008-0.008,0.013	c-0.084,0.084-0.076,0.375-0.076,0.375h0.08c0.084-0.004,0.097-0.072,0.114-0.181c0-0.013,0.004-0.025,0.004-0.034	c0.042,0.067,0.046,0.16,0.017,0.245c-0.013,0.038-0.034,0.072-0.055,0.101c-0.034,0.055-0.067,0.114-0.067,0.194	c0,0.051,0.025,0.152,0.025,0.152h0.11c0.034,0,0.11-0.093,0.131-0.207c0.025,0.089,0.03,0.207,0.004,0.249	c-0.025,0.038-0.051,0.072-0.072,0.105c-0.093,0.139-0.139,0.211-0.139,0.291c0,0.021,0.013,0.11,0.013,0.11h0.08	c0.029,0,0.076-0.021,0.118-0.114c0.008,0.063,0.004,0.135,0,0.169c0,0.046-0.029,0.072-0.063,0.105	c-0.042,0.042-0.101,0.093-0.105,0.185v0.573H21.1v-0.346c0-0.249,0.164-0.32,0.236-0.341v0.236	c-0.038,0.004-0.067,0.017-0.093,0.042c-0.063,0.055-0.101,0.245-0.042,0.354c0.021,0.03,0.059,0.055,0.059,0.055h0.219v-0.181	c0.004-0.013,0.025-0.084,0.101-0.131l-0.004,0.788v0.059h2.011v-0.919c0.008,0.013,0.013,0.025,0.017,0.038	c0.038,0.076,0.089,0.181,0.211,0.181c0.038,0,0.067-0.013,0.084-0.042c0.03-0.055,0.004-0.135-0.03-0.194	c-0.034-0.055-0.08-0.139-0.042-0.282c0.042,0.072,0.11,0.11,0.152,0.097c0.021-0.004,0.046-0.03,0.03-0.08	c-0.013-0.055-0.038-0.097-0.055-0.131c-0.034-0.059-0.063-0.105-0.046-0.198c0.021,0.042,0.046,0.072,0.08,0.084	c0.021,0.008,0.046,0.004,0.063-0.013c0.025-0.021,0.034-0.059,0.021-0.105c-0.013-0.034-0.021-0.067-0.034-0.093	c-0.025-0.063-0.046-0.114-0.021-0.198c0.029,0.076,0.063,0.114,0.101,0.11c0.021-0.004,0.059-0.025,0.059-0.131v-0.017	c0-0.198,0-0.384,0.232-0.455l0.021-0.004v-0.021c0.004-0.051,0.03-0.16,0.08-0.16c0.051,0,0.076,0.11,0.08,0.16v0.021l0.021,0.004	c0.232,0.072,0.232,0.257,0.232,0.455v0.017c0,0.105,0.038,0.126,0.059,0.131c0.038,0.004,0.072-0.034,0.101-0.11	c0.025,0.084,0.004,0.135-0.021,0.198c-0.013,0.025-0.021,0.059-0.034,0.093c-0.013,0.046-0.004,0.084,0.021,0.105	c0.017,0.017,0.042,0.021,0.063,0.013c0.034-0.013,0.059-0.042,0.08-0.084c0.017,0.093-0.013,0.139-0.042,0.198	c-0.021,0.034-0.046,0.076-0.059,0.131c-0.017,0.046,0.008,0.076,0.029,0.08c0.042,0.013,0.11-0.025,0.156-0.097	c0.034,0.143-0.013,0.228-0.046,0.282c-0.034,0.059-0.059,0.139-0.029,0.194c0.017,0.03,0.046,0.042,0.084,0.042	c0.122,0,0.173-0.105,0.211-0.181c0.004-0.013,0.008-0.025,0.017-0.038v0.919h0.468v-0.093c0.021-0.055,0.11-0.152,0.164-0.164	v1.109c-0.101,0.042-0.232,0.181-0.274,0.337l0.008,1.535h0.565v0.417h0.232V22.9h0.388v0.645h0.392v0.759H27.766z"/></svg>