<svg xmlns="http://www.w3.org/2000/svg"  viewBox="0 0 100 100" width="100px" height="100px"><path d="M18.5,91c-4.687,0-8.5-3.813-8.5-8.5v-49c0-5.682,4.536-10.323,10.177-10.495	c0.536-2.243,2.252-4.099,4.533-4.753l3.504-1.001C28.791,17.085,29.395,17,30.001,17c0.707,0,1.404,0.115,2.074,0.341l1.072,0.358	l1.566-0.448c0.582-0.166,1.183-0.25,1.785-0.25c0.707,0,1.404,0.114,2.073,0.34l1.188,0.398l2.152-0.542	c0.533-0.132,1.06-0.196,1.587-0.196c0.541,0,1.078,0.068,1.599,0.201C45.726,13.129,49.254,10,53.5,10h23	c4.687,0,8.5,3.813,8.5,8.5v4.801c4.587,1.124,8,5.271,8,10.199v49c0,4.687-3.813,8.5-8.5,8.5H18.5z" opacity=".35"/><path fill="#f2f2f2" d="M16.5,89C11.813,89,8,85.187,8,80.5v-49c0-5.682,4.536-10.323,10.177-10.495	c0.536-2.243,2.252-4.099,4.533-4.753l3.504-1.001C26.791,15.085,27.395,15,28.001,15c0.707,0,1.404,0.115,2.074,0.341l1.072,0.358	l1.566-0.448c0.582-0.166,1.183-0.25,1.785-0.25c0.707,0,1.404,0.114,2.073,0.34l1.188,0.398l2.152-0.542	c0.533-0.132,1.06-0.196,1.587-0.196c0.541,0,1.078,0.068,1.599,0.201C43.726,11.129,47.254,8,51.5,8h23c4.687,0,8.5,3.813,8.5,8.5	v4.801c4.587,1.124,8,5.271,8,10.199v49c0,4.687-3.813,8.5-8.5,8.5H16.5z"/><path fill="#70bfff" d="M80.5,27.5h-4v-11c0-1.105-0.895-2-2-2h-23c-1.105,0-2,0.895-2,2v11h-30c-3.209,0-5,1.791-5,4v49	c0,1.105,0.895,2,2,2h66c1.105,0,2-0.895,2-2v-49C84.5,29.291,82.709,27.5,80.5,27.5z"/><path fill="#40396e" d="M82.5,82.5h-66c-1.105,0-2-0.895-2-2V66h70v14.5C84.5,81.605,83.605,82.5,82.5,82.5z" opacity=".35"/><path fill="#40396e" d="M25.5,43H40c1.657,0,3-1.343,3-3v0c0-1.657-1.343-3-3-3H25.5c-1.657,0-3,1.343-3,3v0	C22.5,41.657,23.843,43,25.5,43z" opacity=".35"/><rect width="14" height="18" x="26" y="22" fill="#d9eeff"/><rect width="6" height="6" x="51" y="35" fill="#d9eeff"/><rect width="6" height="6" x="60" y="35" fill="#d9eeff"/><rect width="6" height="6" x="69" y="35" fill="#d9eeff"/><rect width="6" height="6" x="51" y="44" fill="#d9eeff"/><rect width="6" height="6" x="60" y="44" fill="#d9eeff"/><rect width="6" height="6" x="69" y="44" fill="#d9eeff"/><rect width="6" height="6" x="51" y="53" fill="#d9eeff"/><rect width="6" height="6" x="60" y="53" fill="#d9eeff"/><rect width="6" height="6" x="69" y="53" fill="#d9eeff"/><rect width="18" height="10" x="54" y="19" fill="#2785bd"/><circle cx="50" cy="73.5" r="2.5" fill="#40396e"/><path fill="#40396e" d="M82.5,84h-66c-1.93,0-3.5-1.57-3.5-3.5v-49c0-3.032,2.468-5.5,5.5-5.5H23v-3.499	c0-0.67,0.444-1.258,1.088-1.442l3.5-1c0.289-0.083,0.598-0.078,0.887,0.02l2.56,0.854l3.054-0.873	c0.291-0.083,0.602-0.076,0.889,0.021l2.584,0.866l3.573-0.899c0.45-0.111,0.925-0.013,1.288,0.272	C42.787,20.602,43,21.039,43,21.501V26h5v-9.5c0-1.93,1.57-3.5,3.5-3.5h23c1.93,0,3.5,1.57,3.5,3.5V26h2.5	c3.032,0,5.5,2.468,5.5,5.5v49C86,82.43,84.43,84,82.5,84z M18.5,29c-1.379,0-2.5,1.121-2.5,2.5v49c0,0.275,0.225,0.5,0.5,0.5h66	c0.275,0,0.5-0.225,0.5-0.5v-49c0-1.379-1.121-2.5-2.5-2.5h-4c-0.828,0-1.5-0.672-1.5-1.5v-11c0-0.275-0.225-0.5-0.5-0.5h-23	c-0.275,0-0.5,0.225-0.5,0.5v11c0,0.828-0.672,1.5-1.5,1.5h-8c-0.828,0-1.5-0.672-1.5-1.5v-4.075l-2.134,0.537	c-0.277,0.07-0.57,0.059-0.843-0.033l-2.559-0.857l-3.053,0.872c-0.291,0.081-0.6,0.077-0.887-0.02l-2.56-0.854L26,23.633V27.5	c0,0.828-0.672,1.5-1.5,1.5H18.5z"/></svg>