<svg xmlns="http://www.w3.org/2000/svg"  viewBox="0 0 100 100" width="100px" height="100px" baseProfile="basic"><path d="M98,63.5v28c0,3.58-2.92,6.5-6.5,6.5h-50c-3.58,0-6.5-2.92-6.5-6.5V90H16.5c-3.58,0-6.5-2.92-6.5-6.5v-61 c0-3.58,2.92-6.5,6.5-6.5h65c3.58,0,6.5,2.92,6.5,6.5V57h3.5C95.08,57,98,59.92,98,63.5z" opacity=".35"/><path fill="#f2f2f2" d="M96,61.5v28c0,3.58-2.92,6.5-6.5,6.5h-50c-3.58,0-6.5-2.92-6.5-6.5V88H14.5 C10.92,88,8,85.08,8,81.5v-61c0-3.58,2.92-6.5,6.5-6.5h65c3.58,0,6.5,2.92,6.5,6.5V55h3.5C93.08,55,96,57.92,96,61.5z"/><polygon fill="#ffb789" points="15.179,21 15.179,81.972 78.972,81.972 78.972,21"/><path fill="#40396e" d="M56.101,35.751H36.869c-1.466,0-2.655-1.415-2.655-3.161l0,0c0-1.746,1.188-3.161,2.655-3.161 h19.232c1.466,0,2.655,1.415,2.655,3.161l0,0C58.755,34.336,57.567,35.751,56.101,35.751z"/><rect width="48" height="26" x="41" y="63" fill="#96c362"/><rect width="41" height="19" x="44" y="66" fill="#407845"/><circle cx="44.153" cy="84.774" r="2.898" fill="#96c362"/><circle cx="44.162" cy="66.749" r="2.898" fill="#96c362"/><circle cx="84.735" cy="84.782" r="2.898" fill="#96c362"/><circle cx="48.992" cy="75.5" r="1.932" fill="#96c362"/><circle cx="81.193" cy="75.5" r="1.932" fill="#96c362"/><circle cx="84.726" cy="66.749" r="2.898" fill="#96c362"/><ellipse cx="64.449" cy="75.5" fill="#96c362" rx="5.796" ry="6.762"/><path fill="#40396e" d="M89.5,60H81V20.5c0-0.83-0.67-1.5-1.5-1.5h-65c-0.83,0-1.5,0.67-1.5,1.5v61 c0,0.83,0.67,1.5,1.5,1.5H38v6.5c0,0.83,0.67,1.5,1.5,1.5h50c0.83,0,1.5-0.67,1.5-1.5v-28C91,60.67,90.33,60,89.5,60z M88,88H41 v-6c0-1.105-0.895-2-2-2H16V22h62v39c0,1.105,0.895,2,2,2h8V88z"/></svg>