<svg xmlns="http://www.w3.org/2000/svg"  viewBox="0 0 100 100" width="100px" height="100px"><path fill="#1d1d1b" d="M77.5,91c-6.971,0-13.409-3.635-17.143-9.293C58.833,85.954,54.765,89,50,89	c-5.398,0-9.901-3.909-10.826-9.045c-3.229-0.327-5.999-2.428-7.202-5.537c-1.312-3.398-0.458-7.16,2.171-9.632	c-0.006-0.014-8.937-21.933-8.937-21.933l-3.665-8.948C20.17,34.607,18.623,35,17,35c-5.514,0-10-4.486-10-10s4.486-10,10-10	c2.686,0,5.216,1.093,7.061,2.938h0.627c2.648,0,5.009,1.584,6.014,4.036l0.838,2.046H89.5c3.584,0,6.5,2.916,6.5,6.5v24.53	c0,1.632-0.376,3.229-1.07,4.676C96.93,62.94,98,66.649,98,70.5C98,81.804,88.804,91,77.5,91z" opacity=".35"/><path fill="#f2f2f2" d="M75.5,89c-6.971,0-13.409-3.635-17.143-9.293C56.833,83.954,52.765,87,48,87	c-5.398,0-9.901-3.909-10.826-9.045c-3.229-0.327-5.999-2.428-7.202-5.537c-1.312-3.398-0.458-7.16,2.171-9.632	c-0.006-0.014-8.937-21.933-8.937-21.933l-3.665-8.948C18.17,32.607,16.623,33,15,33C9.486,33,5,28.514,5,23s4.486-10,10-10	c2.686,0,5.216,1.093,7.061,2.938h0.627c2.648,0,5.009,1.584,6.014,4.036l0.838,2.046H87.5c3.584,0,6.5,2.916,6.5,6.5v24.53	c0,1.632-0.376,3.229-1.07,4.676C94.93,60.94,96,64.649,96,68.5C96,79.804,86.804,89,75.5,89z"/><path fill="#40396e" d="M85.314,73H38.062c-1.521,0-2.866-0.937-3.426-2.386c-0.58-1.501-0.194-3.163,0.982-4.231	l4.486-4.191c0.606-0.564,1.555-0.534,2.12,0.072c0.566,0.605,0.533,1.555-0.071,2.12l-4.502,4.206	c-0.401,0.364-0.268,0.814-0.218,0.943C37.501,69.707,37.673,70,38.062,70h47.253c0.828,0,1.5,0.671,1.5,1.5S86.143,73,85.314,73z"/><path fill="#40396e" d="M87.5,27H25.986l-2.101-5.073C23.654,21.365,23.106,21,22.5,21h-4c-0.828,0-1.5,0.672-1.5,1.5	s0.672,1.5,1.5,1.5h2.997l15.281,36.913c0.89,2.26,3.071,3.717,5.479,3.717c0.232,0,0.468-0.014,0.703-0.042l40.854-5.705	C86.771,58.535,89,56.028,89,53.051V28.5C89,27.672,88.328,27,87.5,27z M66.023,58.339l-1.705-7.492l9.99-0.882l0.847,7.098	L66.023,58.339z M52.908,60.17l-2.636-8.084l11.029-0.973l1.739,7.643L52.908,60.17z M35.667,50.387l-3.62-8.746l11.516-0.456	l2.688,8.245l-10.359,0.914C35.814,50.351,35.741,50.369,35.667,50.387z M46.678,41.061l12.226-0.484l1.726,7.584l-11.311,0.998	L46.678,41.061z M56.497,30l1.73,7.601l-12.515,0.496L43.071,30H56.497z M71.925,30l0.839,7.025L61.276,37.48L59.574,30H71.925z M63.646,47.894l-1.693-7.438l11.167-0.442l0.832,6.971L63.646,47.894z M76.127,39.895L86,39.504v6.418l-9.058,0.799L76.127,39.895z M86,36.501l-10.229,0.405L74.946,30H86V36.501z M39.918,30c0.002,0.006,0.002,0.012,0.004,0.018l2.674,8.202l-11.608,0.46	c-0.054,0.002-0.105,0.015-0.157,0.022L27.229,30H39.918z M42.577,61.613c-1.288,0.142-2.53-0.588-3.018-1.823l-2.699-6.52	l10.344-0.913l2.685,8.235L42.577,61.613z M83.432,55.907l-5.304,0.741l-0.829-6.947L86,48.933v4.118	C86,54.507,84.909,55.732,83.432,55.907z"/><circle cx="48" cy="76" r="4.5" fill="#707cc0"/><path fill="#40396e" d="M48,82c-3.309,0-6-2.691-6-6s2.691-6,6-6s6,2.691,6,6S51.309,82,48,82z M48,73c-1.654,0-3,1.346-3,3	s1.346,3,3,3s3-1.346,3-3S49.654,73,48,73z"/><circle cx="75" cy="76" r="4.5" fill="#707cc0"/><path fill="#40396e" d="M75,82c-3.309,0-6-2.691-6-6s2.691-6,6-6s6,2.691,6,6S78.309,82,75,82z M75,73c-1.654,0-3,1.346-3,3	s1.346,3,3,3s3-1.346,3-3S76.654,73,75,73z"/><circle cx="15" cy="23" r="3.5" fill="#de5147"/><path fill="#40396e" d="M15,28c-2.757,0-5-2.243-5-5s2.243-5,5-5s5,2.243,5,5S17.757,28,15,28z M15,21c-1.103,0-2,0.897-2,2	s0.897,2,2,2s2-0.897,2-2S16.103,21,15,21z"/><circle cx="75.5" cy="68.5" r="14" fill="#ff7575"/><path fill="#40396e" d="M75.5,84C66.953,84,60,77.047,60,68.5S66.953,53,75.5,53S91,59.953,91,68.5S84.047,84,75.5,84z M75.5,56C68.607,56,63,61.607,63,68.5S68.607,81,75.5,81S88,75.393,88,68.5S82.393,56,75.5,56z"/><path fill="#f2f2f2" d="M77.621,68.5l3.182-3.182c0.586-0.586,0.586-1.535,0-2.121s-1.535-0.586-2.121,0L75.5,66.379 l-3.182-3.182c-0.586-0.586-1.535-0.586-2.121,0s-0.586,1.535,0,2.121l3.182,3.182l-3.182,3.182c-0.586,0.586-0.586,1.535,0,2.121 c0.293,0.293,0.677,0.439,1.061,0.439s0.768-0.146,1.061-0.439l3.182-3.182l3.182,3.182c0.293,0.293,0.677,0.439,1.061,0.439 s0.768-0.146,1.061-0.439c0.586-0.586,0.586-1.535,0-2.121L77.621,68.5z"/></svg>