<svg xmlns="http://www.w3.org/2000/svg"  viewBox="0 0 100 100" width="100px" height="100px" baseProfile="basic"><path d="M8.768,28.209c0.37-0.588,0.748-1.159,1.136-1.717c0.095-0.137,0.185-0.259,0.277-0.381l0.091-0.123 c0.316-0.439,0.625-0.868,0.946-1.283c0.093-0.12,0.38-0.472,0.38-0.472c0.332-0.416,0.666-0.832,1.01-1.235 c0.09-0.104,0.348-0.391,0.348-0.391c0.365-0.417,0.74-0.836,1.124-1.241c0.073-0.077,0.155-0.16,0.238-0.243 c0.461-0.476,0.879-0.897,1.306-1.305l0.19-0.176c0.486-0.457,0.953-0.881,1.429-1.293l0.148-0.124 c0.496-0.424,1.013-0.847,1.539-1.258l0.103-0.078C29.707,8.594,43.939,5.686,57.05,9.152c0.675,0.178,1.324,0.368,1.968,0.572 l0.119,0.034c0.628,0.201,1.222,0.409,1.813,0.626c0.089,0.03,0.186,0.064,0.283,0.1c0.516,0.195,1.028,0.405,1.539,0.62 c1.385,0.581,2.758,1.24,4.074,1.96l0.388,0.208c0.651,0.364,1.295,0.744,1.933,1.144c3.879,2.437,7.339,5.45,10.283,8.957 c1.15,1.369,18.213,25.932,18.213,25.932c1.441,1.864,1.77,4.406,0.822,6.584c-0.12,0.28-0.275,0.576-0.451,0.858 c-1.154,1.847-3.142,2.985-5.318,3.043l-3.735,0.106c-0.983,5.278-2.912,10.273-5.759,14.903l-0.164,0.264 c-0.271,0.434-0.547,0.858-0.828,1.277c-0.068,0.101-0.139,0.202-0.212,0.301c-0.174,0.252-0.336,0.478-0.499,0.705l-0.062,0.085 c-0.237,0.331-0.476,0.659-0.722,0.98c-0.206,0.269-0.411,0.531-0.619,0.791c-0.228,0.285-0.454,0.562-0.683,0.835 c-0.248,0.296-0.504,0.591-0.76,0.882c-0.187,0.211-0.373,0.416-0.559,0.619c-0.313,0.341-0.637,0.683-0.966,1.019l-0.297,0.298 c-0.464,0.462-0.88,0.863-1.304,1.252c-10.473,9.618-24.976,13.579-38.83,10.631c-2.067-0.437-4.149-1.044-6.181-1.803 l-0.084-0.031c-0.642-0.242-1.28-0.5-1.913-0.774l-0.17-0.075c-0.597-0.262-1.183-0.532-1.764-0.818l-0.645-0.325 c-0.253-0.126-0.506-0.252-0.757-0.387c-0.134-0.072-0.253-0.141-0.372-0.21c-0.289-0.161-0.884-0.505-0.884-0.505 c-0.39-0.226-0.775-0.45-1.152-0.684c-0.051-0.027-0.138-0.079-0.224-0.133c-0.149-0.093-0.294-0.191-0.438-0.288l-0.139-0.093 c-0.409-0.266-0.775-0.506-1.132-0.754c-0.185-0.128-0.372-0.265-0.56-0.401l-0.157-0.115c-0.377-0.272-0.761-0.551-1.135-0.841 c-0.143-0.111-0.562-0.452-0.562-0.452c-0.402-0.321-0.813-0.652-1.21-0.995l-0.251-0.224C5.672,74.894,0.161,59.532,2.549,44.686 c0.112-0.695,0.239-1.388,0.385-2.078l0.037-0.168c0.132-0.618,0.283-1.262,0.451-1.905l0.065-0.238 c0.175-0.648,0.344-1.24,0.53-1.83l0.146-0.437c0.181-0.552,0.361-1.089,0.559-1.623c0.057-0.154,0.241-0.613,0.241-0.613 c0.188-0.485,0.374-0.96,0.576-1.433c0.083-0.195,0.173-0.39,0.265-0.585l0.203-0.446c0.15-0.334,0.302-0.667,0.463-0.998 c0.137-0.28,0.283-0.557,0.431-0.835l0.262-0.5c0.115-0.224,0.23-0.448,0.354-0.67c0.344-0.62,0.703-1.231,1.078-1.836l0.086-0.144 L8.768,28.209z" opacity=".35"/><path fill="#f2f2f2" d="M6.768,26.209c0.37-0.588,0.748-1.159,1.136-1.717c0.095-0.137,0.185-0.259,0.277-0.381l0.091-0.123 c0.316-0.439,0.625-0.868,0.946-1.283c0.093-0.12,0.38-0.472,0.38-0.472c0.332-0.416,0.666-0.832,1.01-1.235 c0.09-0.104,0.348-0.391,0.348-0.391c0.365-0.417,0.74-0.836,1.124-1.241c0.073-0.077,0.155-0.16,0.238-0.243 c0.461-0.476,0.879-0.897,1.306-1.305l0.19-0.176c0.486-0.457,0.953-0.881,1.429-1.293l0.148-0.124 c0.496-0.424,1.013-0.847,1.539-1.258l0.103-0.078C27.707,6.594,41.939,3.686,55.05,7.152c0.675,0.178,1.324,0.368,1.968,0.572 l0.119,0.034c0.628,0.201,1.222,0.409,1.813,0.626c0.089,0.03,0.186,0.064,0.283,0.1c0.516,0.195,1.028,0.405,1.539,0.62 c1.385,0.581,2.758,1.24,4.074,1.96l0.388,0.208c0.651,0.364,1.295,0.744,1.933,1.144c3.879,2.437,7.339,5.45,10.283,8.957 c1.15,1.369,18.213,25.932,18.213,25.932c1.441,1.864,1.77,4.406,0.822,6.584c-0.12,0.28-0.275,0.576-0.451,0.858 c-1.154,1.847-3.142,2.985-5.318,3.043l-3.735,0.106c-0.983,5.278-2.912,10.273-5.759,14.903l-0.164,0.264 c-0.271,0.434-0.547,0.858-0.828,1.277c-0.068,0.101-0.139,0.202-0.212,0.301c-0.174,0.252-0.336,0.478-0.499,0.705l-0.062,0.085 c-0.237,0.331-0.476,0.659-0.722,0.98c-0.206,0.269-0.411,0.531-0.619,0.791c-0.228,0.285-0.454,0.562-0.683,0.835 c-0.248,0.296-0.504,0.591-0.76,0.882c-0.187,0.211-0.373,0.416-0.559,0.619c-0.313,0.341-0.637,0.683-0.966,1.019l-0.297,0.298 c-0.464,0.462-0.88,0.863-1.304,1.252c-10.473,9.618-24.976,13.579-38.83,10.631c-2.067-0.437-4.149-1.044-6.181-1.803 l-0.084-0.031c-0.642-0.242-1.28-0.5-1.913-0.774l-0.17-0.075c-0.597-0.262-1.183-0.532-1.764-0.818l-0.645-0.325 c-0.253-0.126-0.506-0.252-0.757-0.387c-0.134-0.072-0.253-0.141-0.372-0.21c-0.289-0.161-0.884-0.505-0.884-0.505 c-0.39-0.226-0.775-0.45-1.152-0.684c-0.051-0.027-0.138-0.079-0.224-0.133c-0.149-0.093-0.294-0.191-0.438-0.288l-0.139-0.093 c-0.409-0.266-0.775-0.506-1.132-0.754c-0.185-0.128-0.372-0.265-0.56-0.401l-0.157-0.115c-0.377-0.272-0.761-0.551-1.135-0.841 c-0.143-0.111-0.562-0.452-0.562-0.452c-0.402-0.321-0.813-0.652-1.21-0.995l-0.251-0.224C3.672,72.894-1.839,57.532,0.549,42.686 c0.112-0.695,0.239-1.388,0.385-2.078l0.037-0.168c0.132-0.618,0.283-1.262,0.451-1.905l0.065-0.238 c0.175-0.648,0.344-1.24,0.53-1.83l0.146-0.437c0.181-0.552,0.361-1.089,0.559-1.623c0.057-0.154,0.241-0.613,0.241-0.613 c0.188-0.485,0.374-0.96,0.576-1.433c0.083-0.195,0.173-0.39,0.265-0.585l0.203-0.446c0.15-0.334,0.302-0.667,0.463-0.998 c0.137-0.28,0.283-0.557,0.431-0.835l0.262-0.5c0.115-0.224,0.23-0.448,0.354-0.67c0.344-0.62,0.703-1.231,1.078-1.836l0.086-0.144 L6.768,26.209z"/><path fill="#96c362" d="M25.557,84.117c17.43,9.371,39.477,3.865,50.538-12.573c3.865-5.744,5.977-12.119,6.516-18.526 l7.973-0.227c0.578-0.016,1.099-0.365,1.329-0.9c0.231-0.532,0.136-1.151-0.246-1.588L78.683,31.528 c-0.303-0.347-0.748-0.534-1.207-0.509c-0.459,0.026-0.881,0.261-1.144,0.639L64.154,51.148c-0.015,0.021-0.029,0.042-0.042,0.063 c-0.285,0.456-0.305,1.032-0.049,1.509c0.269,0.498,0.794,0.803,1.36,0.787l7.122-0.202c-0.532,4.333-2.033,8.615-4.623,12.507 c-8.22,12.353-24.799,16.488-37.815,9.403C15.33,67.171,10.567,48.38,19.357,34.311c8.135-13.02,24.962-17.332,38.257-10.121 c0.923,0.501,2.074,0.198,2.631-0.694l3.183-5.094c0.61-0.976,0.271-2.267-0.734-2.825C44.739,5.6,21.933,11.352,10.905,29.002 C-0.974,48.014,5.502,73.335,25.557,84.117z"/><path fill="#40396e" d="M87.691,49.872l-5.165,0.147l-0.891,0.025c-1.015,0.029-1.846,0.817-1.932,1.831l-0.075,0.89 c-0.482,5.76-2.278,11.162-5.337,16.058c-0.218,0.349-0.444,0.697-0.675,1.041C63.451,84.971,42.962,90.07,26.972,81.473 c-9.653-5.19-16.273-14.156-18.375-25.02c-1.434-7.408-0.483-15.149,2.728-21.974C20.2,15.617,42.529,8.473,60.329,17.71 l2.828,1.124l0.27-0.432c0.61-0.976,0.271-2.267-0.734-2.825C44.739,5.6,21.933,11.352,10.905,29.002 C-0.974,48.015,5.502,73.335,25.557,84.117c17.43,9.371,39.477,3.865,50.538-12.573c0.251-0.373,0.495-0.75,0.732-1.128 c3.402-5.446,5.281-11.408,5.784-17.398l7.973-0.227c0.503-0.013,0.961-0.279,1.224-0.699l0,0c0.04-0.064,0.074-0.13,0.105-0.201 c0.231-0.532,0.136-1.151-0.246-1.588L78.684,31.528c-0.303-0.347-0.748-0.534-1.207-0.509c-0.459,0.026-0.881,0.261-1.144,0.639 L64.155,51.149c-0.016,0.02-0.03,0.042-0.043,0.063c-0.285,0.456-0.305,1.032-0.049,1.509c0.269,0.498,0.794,0.803,1.36,0.787 l7.122-0.202c-0.5,4.073-1.857,8.104-4.17,11.805c-0.147,0.236-0.298,0.469-0.452,0.701c-8.22,12.353-24.799,16.488-37.815,9.403 C15.33,67.171,10.567,48.38,19.357,34.311c8.135-13.02,24.962-17.332,38.257-10.121c0.923,0.501,2.074,0.198,2.631-0.694 l0.289-0.463l-2.331-1.92c-14.616-7.38-32.634-2.395-41.38,11.604c-4.652,7.445-6.039,16.602-3.806,25.124 c2.263,8.637,7.825,15.743,15.664,20.009c14.337,7.804,32.668,3.248,41.731-10.374c0.169-0.256,0.336-0.513,0.498-0.773 c2.481-3.97,4.031-8.355,4.605-13.032l0.141-1.155c0.149-1.215-0.816-2.279-2.036-2.243l-1.16,0.033l-4.328,0.123l9.369-14.988"/><ellipse cx="44.137" cy="25.5" fill="#40396e" rx="1.496" ry="1.5"/><ellipse cx="44.137" cy="74.5" fill="#40396e" rx="1.496" ry="1.5"/><ellipse cx="20.702" cy="52" fill="#40396e" rx="1.496" ry="1.5"/><path fill="#96c362" d="M69.648,65.896c-8.919,14.275-27.691,18.598-41.928,9.655S9.172,47.787,18.091,33.512 s27.691-18.598,41.928-9.655c3.44,2.161,6.294,4.902,8.529,8.012l3.943-6.31c-2.446-2.913-5.373-5.504-8.765-7.634 C46.22,6.929,23.141,12.244,12.174,29.795s-5.665,40.692,11.84,51.687s40.585,5.68,51.551-11.871L69.648,65.896z"/><line x1="72.49" x2="68.547" y1="25.559" y2="31.869" fill="none" stroke="#40396e" stroke-miterlimit="10" stroke-width="3"/><path fill="#40396e" d="M10.907,28.999C22.293,10.775,46.343,5.237,64.519,16.653c3.439,2.16,6.506,4.831,9.114,7.939 c0.418,0.499,0.469,1.21,0.124,1.763l-3.943,6.31c-0.265,0.424-0.722,0.686-1.22,0.703c-0.498,0.016-0.971-0.217-1.263-0.622 c-2.193-3.053-4.921-5.616-8.108-7.618c-13.516-8.489-31.399-4.371-39.866,9.18s-4.36,31.482,9.156,39.972 s31.399,4.371,39.866-9.18c0.439-0.703,1.361-0.915,2.062-0.475s0.913,1.365,0.474,2.067c-9.343,14.953-29.076,19.497-43.99,10.13 S7.48,47.668,16.823,32.715s29.076-19.497,43.99-10.13c2.893,1.817,5.443,4.054,7.605,6.665l2.216-3.547 c-2.248-2.52-4.836-4.706-7.703-6.507C46.153,8.657,23.953,13.769,13.442,30.592S8.03,69.673,24.808,80.212 s38.978,5.427,49.489-11.396c0.439-0.703,1.361-0.915,2.062-0.475s0.913,1.365,0.474,2.067 C65.446,88.632,41.396,94.171,23.22,82.754S-0.48,47.223,10.907,28.999z"/><polyline fill="none" stroke="#40396e" stroke-linecap="round" stroke-linejoin="round" stroke-miterlimit="10" stroke-width="3" points="44.5,32.5 44.5,49.5 56.5,41.5"/><ellipse cx="44.598" cy="49.4" fill="#40396e" rx="4.388" ry="4.4"/></svg>