<svg xmlns="http://www.w3.org/2000/svg"  viewBox="0 0 100 100" width="100px" height="100px"><path d="M75.503,90.02c-5.648,0-10.584-3.188-12.976-8H44.479c-2.392,4.812-7.328,8-12.976,8 s-10.584-3.188-12.976-8h-6.024c-3.584,0-6.5-2.916-6.5-6.5v-54c0-3.584,2.916-6.5,6.5-6.5h47c3.584,0,6.5,2.916,6.5,6.5v2.5 h14.191c2.221,0,4.264,2.267,5.465,4.134l10.307,15.998c0.677,1.05,1.036,2.268,1.036,3.521V75.52c0,3.584-2.916,6.5-6.5,6.5 h-2.024C86.087,86.832,81.151,90.02,75.503,90.02z" opacity=".35"/><path fill="#f2f2f2" d="M73.503,88.02c-5.648,0-10.584-3.188-12.976-8H42.479c-2.392,4.812-7.328,8-12.976,8 s-10.584-3.188-12.976-8h-6.024c-3.584,0-6.5-2.916-6.5-6.5v-54c0-3.584,2.916-6.5,6.5-6.5h47c3.584,0,6.5,2.916,6.5,6.5v2.5 h14.191c2.221,0,4.264,1.115,5.465,2.982l10.307,15.998c0.677,1.05,1.036,2.268,1.036,3.521v29c0,3.584-2.916,6.5-6.5,6.5h-2.024 C84.087,84.832,79.151,88.02,73.503,88.02z"/><rect width="45.5" height="54" x="10.503" y="19.52" fill="#70bfff"/><polygon fill="#ffc571" points="88.503,73.52 56.003,73.52 56.003,28.52 78.194,28.52 88.503,44.52"/><circle cx="73.503" cy="73.52" r="6.5" fill="#707cc0"/><rect width="46" height="13" x="10.003" y="59.02" fill="#9aa2e6"/><rect width="4" height="5" x="21.003" y="70.02" fill="#9aa2e6"/><rect width="4" height="5" x="34.003" y="70.02" fill="#9aa2e6"/><circle cx="29.503" cy="73.52" r="6.5" fill="#707cc0"/><polygon fill="#d9eeff" points="87.003,51.02 65.003,51.02 65.003,35.02 82.003,35.02 87.003,44.019"/><path fill="none" stroke="#40396e" stroke-linecap="round" stroke-linejoin="round" stroke-miterlimit="10" stroke-width="3" d="M78.194,28.52H57.503v-9h-47v54h11c0,4.418,3.582,8,8,8s8-3.582,8-8h20h8c0,4.418,3.582,8,8,8s8-3.582,8-8h7v-29L78.194,28.52z"/><rect width="5" height="5" x="82.003" y="63.02" fill="#ff7575"/><rect width="5" height="5" x="12.003" y="63.02" fill="#ff7575"/><circle cx="29.503" cy="73.52" r="1.5" fill="#40396e"/><circle cx="73.503" cy="73.52" r="1.5" fill="#40396e"/><circle cx="34" cy="40" r="14" fill="#f2f2f2"/><circle cx="34" cy="40" r="3" fill="#40396e"/><polyline fill="none" stroke="#40396e" stroke-linecap="round" stroke-linejoin="round" stroke-miterlimit="10" stroke-width="3" points="34,30.494 34,40.5 40.489,46.489"/></svg>