<svg xmlns="http://www.w3.org/2000/svg"  viewBox="0 0 100 100" width="100px" height="100px"><path d="M52,98c-2.02,0-3.954-0.96-5.177-2.569l-4.779-6.302l-7.285,3.069 c-0.804,0.338-1.652,0.509-2.522,0.509c-1.138,0-2.26-0.3-3.246-0.867c-1.764-1.021-2.957-2.826-3.205-4.833l-0.978-7.833 l-7.838-0.978c-2.007-0.25-3.809-1.445-4.822-3.195c-1.012-1.749-1.148-3.907-0.367-5.771l3.501-8.471l-6.298-4.776 c-1.61-1.222-3-1.979-3-4s0.962-3.958,2.572-5.179l6.298-4.776l-3.069-7.286c-0.785-1.872-0.648-4.03,0.363-5.779 c1.014-1.75,2.815-2.945,4.822-3.195l7.839-0.978l0.978-7.837c0.248-2.002,1.441-3.806,3.192-4.821 c0.991-0.573,2.116-0.875,3.258-0.875c0.873,0,1.723,0.172,2.526,0.511l7.282,3.068l4.775-6.297 c1.204-1.589,3.141-2.54,5.179-2.54c2.035,0,3.277,1.762,4.484,3.35l4.779,6.302l7.979-3.883c0.798-0.337,1.648-0.51,2.522-0.51 c1.14,0,2.264,0.301,3.251,0.87c1.759,1.02,2.952,2.824,3.2,4.831l0.978,7.833l7.838,0.978c2.007,0.25,3.809,1.445,4.822,3.195 c1.012,1.749,1.148,3.906,0.367,5.771l-3.073,7.293l6.298,4.775c1.61,1.222,2.572,3.158,2.572,5.179s-0.962,3.958-2.572,5.179 l-6.298,4.776l3.069,7.286c0.785,1.872,0.648,4.03-0.363,5.779c-1.014,1.75-2.815,2.945-4.822,3.195l-7.839,0.978l-0.978,7.837 c-0.248,2.004-1.443,3.81-3.196,4.823c-0.995,0.572-2.117,0.873-3.255,0.873c-0.874,0-1.725-0.172-2.529-0.513l-7.278-3.066 l-4.775,6.297C55.961,97.037,54.023,98,52,98z" opacity=".35"/><path fill="#f2f2f2" d="M50,96c-2.02,0-3.954-0.96-5.177-2.569l-4.779-6.302l-7.285,3.069 c-0.804,0.338-1.652,0.509-2.522,0.509c-1.138,0-2.26-0.3-3.246-0.867c-1.764-1.021-2.957-2.826-3.205-4.833l-0.978-7.833 l-7.838-0.978c-2.007-0.25-3.809-1.445-4.822-3.195c-1.012-1.749-1.148-3.907-0.367-5.771l3.073-7.292l-6.298-4.776 c-1.61-1.222-2.572-3.158-2.572-5.179s0.962-3.958,2.572-5.179l6.298-4.776l-3.069-7.286c-0.785-1.872-0.648-4.03,0.363-5.779 c1.014-1.75,2.815-2.945,4.822-3.195l7.839-0.978l0.978-7.837c0.248-2.002,1.441-3.806,3.192-4.821 c0.991-0.573,2.116-0.875,3.258-0.875c0.873,0,1.723,0.172,2.526,0.511l7.282,3.068l4.775-6.297 c1.204-1.589,3.141-2.54,5.179-2.54c2.035,0,3.971,0.948,5.178,2.536l4.779,6.302l7.285-3.069c0.798-0.337,1.648-0.51,2.522-0.51 c1.14,0,2.264,0.301,3.251,0.87c1.759,1.02,2.952,2.824,3.2,4.831l0.978,7.833l7.838,0.978c2.007,0.25,3.809,1.445,4.822,3.195 c1.012,1.749,1.148,3.906,0.367,5.771l-3.073,7.293l6.298,4.775c1.61,1.222,2.572,3.158,2.572,5.179s-0.962,3.958-2.572,5.179 l-6.298,4.776l3.069,7.286c0.785,1.872,0.648,4.03-0.363,5.779c-1.014,1.75-2.815,2.945-4.822,3.195l-7.839,0.978l-0.978,7.837 c-0.248,2.004-1.443,3.81-3.196,4.823c-0.995,0.572-2.117,0.873-3.255,0.873c-0.874,0-1.725-0.172-2.529-0.513l-7.278-3.066 l-4.775,6.297C53.961,95.037,52.023,96,50,96z"/><g><polygon fill="#ff7575" points="88.983,49.983 78.802,57.704 83.763,69.481 71.079,71.063 69.497,83.747 57.721,78.785 50,88.966 42.279,78.785 30.502,83.746 28.92,71.062 16.236,69.48 21.198,57.704 11.017,49.983 21.198,42.262 16.237,30.485 28.921,28.904 30.503,16.219 42.279,21.181 50,11 57.721,21.181 69.498,16.22 71.08,28.904 83.764,30.486 78.802,42.262"/><polygon fill="none" stroke="#40396e" stroke-linecap="round" stroke-linejoin="round" stroke-miterlimit="10" stroke-width="3" points="89.517,49.983 79.197,57.81 84.226,69.748 71.368,71.351 69.764,84.209 57.827,79.18 50,89.5 42.173,79.18 30.235,84.209 28.632,71.351 15.774,69.747 20.803,57.81 10.483,49.983 20.803,42.156 15.774,30.218 28.632,28.615 30.236,15.757 42.173,20.787 50,10.466 57.827,20.787 69.765,15.758 71.368,28.616 84.226,30.219 79.197,42.157"/><path fill="#fff" d="M38.5,52.983c-2.377,0-4.221-0.815-5.533-2.443C31.656,48.911,31,46.718,31,43.962 s0.662-4.942,1.988-6.557c1.325-1.614,3.162-2.422,5.512-2.422c2.35,0,4.187,0.814,5.512,2.443 C45.337,39.055,46,41.234,46,43.962c0,2.756-0.663,4.949-1.988,6.578C42.687,52.169,40.85,52.983,38.5,52.983z M38.5,48.983 c0.78,0,1.391-0.399,1.835-1.198C40.778,46.987,41,45.706,41,43.941s-0.222-3.032-0.666-3.802 c-0.444-0.77-1.055-1.156-1.835-1.156c-0.806,0-1.425,0.378-1.855,1.134C36.215,40.874,36,42.149,36,43.941 c0,1.821,0.215,3.117,0.645,3.886C37.075,48.598,37.693,48.983,38.5,48.983z M44.502,63.725c-0.42,0.702-0.94,1.106-1.557,1.215 c-0.617,0.108-1.192,0.013-1.725-0.284c-0.533-0.297-0.905-0.735-1.115-1.316c-0.21-0.58-0.105-1.208,0.316-1.883l15.105-25.187 c0.421-0.702,0.94-1.113,1.557-1.235c0.617-0.121,1.192-0.034,1.725,0.263c0.532,0.297,0.897,0.736,1.094,1.316 c0.196,0.581,0.098,1.209-0.294,1.883L44.502,63.725z M61.5,64.983c-2.377,0-4.221-0.814-5.533-2.443 C54.656,60.911,54,58.705,54,55.921c0-2.757,0.662-4.935,1.988-6.536c1.324-1.601,3.162-2.402,5.512-2.402 c2.35,0,4.187,0.808,5.512,2.422C68.337,51.02,69,53.192,69,55.921c0,2.784-0.656,4.991-1.967,6.619 C65.721,64.169,63.877,64.983,61.5,64.983z M61.5,60.983c0.806,0,1.424-0.392,1.855-1.178C63.785,59.02,64,57.73,64,55.935 c0-1.739-0.222-3.001-0.665-3.786c-0.444-0.785-1.056-1.178-1.835-1.178c-0.807,0-1.425,0.379-1.855,1.136 C59.215,52.864,59,54.141,59,55.935c0,1.823,0.215,3.12,0.645,3.891C60.075,60.598,60.693,60.983,61.5,60.983z"/></g></svg>