<svg xmlns="http://www.w3.org/2000/svg"  viewBox="0 0 100 100" width="100px" height="100px"><path d="M34,95c-3.386,0-6.168-2.542-6.473-5.914L23.064,42L24,38c-2.044,0-4.779,1.64-6,0 c-1.222-1.644-2.313-2.41-1.726-4.368l3-10C20.104,20.862,22.606,19,25.5,19h21.425l2.269-9.076c0.654-2.622,2.9-4.585,5.587-4.884 l18-2C73.017,3.013,73.261,3,73.504,3c3.315,0,6.091,2.487,6.457,5.784c0.192,1.724-0.3,3.421-1.385,4.778 c-1.085,1.356-2.633,2.208-4.358,2.399l-13.507,1.5L60.325,19H78.5c2.894,0,5.396,1.862,6.227,4.634l2.999,9.998 c0.587,1.958,0.21,4.105-1.009,5.746C85.493,41.021,83.544,42,81.5,42h-0.564l-4.462,47.088C76.168,92.458,73.386,95,70,95H34z" opacity=".35"/><path fill="#f2f2f2" d="M32,93c-3.386,0-6.168-2.542-6.473-5.914L21.064,40H20.5c-2.044,0-3.993-0.979-5.214-2.619 c-1.222-1.644-1.599-3.792-1.012-5.749l3-10C18.104,18.862,20.606,17,23.5,17h21.425l2.269-9.076 c0.654-2.622,2.9-4.585,5.587-4.884l18-2C71.017,1.013,71.261,1,71.504,1c3.315,0,6.091,2.487,6.457,5.784 c0.192,1.724-0.3,3.421-1.385,4.778c-1.085,1.356-2.633,2.208-4.358,2.399l-13.507,1.5L58.325,17H76.5 c2.894,0,5.396,1.862,6.227,4.634l2.999,9.998c0.587,1.958,0.21,4.105-1.009,5.746C83.493,39.021,81.544,40,79.5,40h-0.564 l-4.462,47.088C74.168,90.458,71.386,93,68,93H32z"/><polygon fill="#d9eeff" points="78.5,30.5 79,32 22,32 22,30 23.5,23.5 76,23"/><polygon fill="#ff7575" points="68,86.5 32,86.5 26,32 73,32"/><polyline fill="none" stroke="#40396e" stroke-linecap="round" stroke-linejoin="round" stroke-miterlimit="10" stroke-width="3" points="73,33.5 79.5,33.5 76.5,23.5 23.5,23.5 20.5,33.5 27,33.5"/><polyline fill="none" stroke="#40396e" stroke-linecap="round" stroke-linejoin="round" stroke-miterlimit="10" stroke-width="3" points="73,33.5 68,86.5 32,86.5 27,33.5"/><rect width="46" height="3" x="27" y="32" fill="#40396e" opacity=".35"/><polyline fill="none" stroke="#40396e" stroke-linecap="round" stroke-linejoin="round" stroke-miterlimit="10" stroke-width="3" points="50,23.5 53.5,9.5 71.5,7.5"/></svg>