<svg xmlns="http://www.w3.org/2000/svg"  viewBox="0 0 100 100" width="50px" height="50px"><path d="M88.5,16h-77C7.916,16,5,18.916,5,22.5v55c0,3.584,2.916,6.5,6.5,6.5h77c3.584,0,6.5-2.916,6.5-6.5 v-55C95,18.916,92.084,16,88.5,16z" opacity=".35"/><path fill="#f2f2f2" d="M86.5,14h-77C5.916,14,3,16.916,3,20.5v55C3,79.084,5.916,82,9.5,82h77c3.584,0,6.5-2.916,6.5-6.5 v-55C93,16.916,90.084,14,86.5,14z"/><rect width="76" height="54" x="10" y="21" fill="#f4665c"/><path fill="#f9b84f" d="M56,47.5L9.518,21.011C9.51,21.12,9.507,21.227,9.49,21.34c-0.599,3.983-0.994,7.972-1.276,11.964 c0.392,1.105,0.455,2.339,0.192,3.487c0.922,0.783,1.518,1.841,1.532,3.188c0.071,6.791-0.098,13.471-1.369,20.152 c1.018,0.794,1.677,1.903,1.677,3.337v11.021L56,47.5z"/><path fill="#40396e" d="M43,47.495L9.681,21c-0.006,0.109-0.008,0.216-0.021,0.33c-0.575,5.037-0.92,10.083-1.132,15.134 c0.876,0.804,1.46,1.97,1.473,3.508c0.054,6.792-0.074,13.473-1.041,20.156c0.773,0.794,1.275,1.903,1.275,3.338v11.023L43,47.495z"/><rect width="77" height="55" x="9.5" y="20.5" fill="none" stroke="#40396e" stroke-linejoin="round" stroke-miterlimit="10" stroke-width="3"/><g><path fill="#f2f2f2" d="M19.777,41.426l0.146,5.231l-5.025,1.829l5.115,1.404l0.146,5.231l3.015-4.363l5.115,1.404 l-3.251-4.101l3.015-4.363l-5.025,1.829L19.777,41.426z"/></g></svg>