<svg xmlns="http://www.w3.org/2000/svg"  viewBox="0 0 100 100" width="100px" height="100px" baseProfile="basic"><path d="M97,30.52v24.53c0,2.33-0.74,4.5-2,6.28V73c0,3.41-2.83,6.72-6.18,6.98C87.89,85.1,83.39,89,78,89 c-5.38,0-9.88-3.89-10.82-9h-5.36c-0.94,5.11-5.44,9-10.82,9c-5.4,0-10.07-6.87-11-12c-3.23-0.33-5.83,0.53-7.03-2.59 c-0.69-1.78-0.78-3.67-0.33-5.41H12.89c-3.58,0-6.5-2.92-6.5-6.5c0-3.58,2.92-6.5,6.5-6.5H8.5C4.92,56,2,53.08,2,49.5 C2,45.92,4.92,43,8.5,43h0.95c-1.84-1.14-3.06-3.18-3.06-5.5c0-2.7,1.66-5.02,4.01-6C8.91,29.75,8,27.48,8,25c0-5.51,4.49-10,10-10 c8.44,0,8.45,2.39,11,6.98V24l61.5,0.02C94.08,24.02,97,26.94,97,30.52z" opacity=".35"/><path fill="#f2f2f2" d="M95,28.52v24.53c0,2.33-0.74,4.5-2,6.28V71c0,3.41-2.83,6.72-6.18,6.98C85.89,83.1,81.39,87,76,87 c-5.38,0-9.88-3.89-10.82-9h-5.36c-0.94,5.11-5.44,9-10.82,9c-5.4,0-9.9-3.91-10.83-9.04c-3.23-0.33-6-2.43-7.2-5.55 c-0.69-1.78-0.78-3.67-0.33-5.41H10.89C7.31,67,4,64.58,4,61c0-3.58,0-7,0-7c-2,0-4-2.92-4-6.5C0,43.92,2.92,41,6.5,41h0.95 c-1.84-1.14-3.06-3.18-3.06-5.5c0-2.7,1.66-5.02,4.01-6C6.91,27.75,6,25.48,6,23c0-5.51,4.49-10,10-10c8.44,0,11.15,2.39,13.7,6.98 l0.84,2.04H88.5C92.08,22.02,95,24.94,95,28.52z"/><path fill="#40396e" d="M86.314,73H39.062c-1.521,0-2.866-0.937-3.426-2.386c-0.58-1.502-0.194-3.163,0.982-4.232 l4.487-4.19c0.604-0.565,1.554-0.534,2.119,0.072c0.566,0.604,0.533,1.554-0.072,2.119l-4.502,4.205 c-0.4,0.364-0.267,0.815-0.217,0.944C38.501,69.707,38.673,70,39.062,70h47.253c0.828,0,1.5,0.672,1.5,1.5S87.143,73,86.314,73z"/><circle cx="49" cy="76" r="4.5" fill="#707cc0"/><path fill="#40396e" d="M49,82c-3.309,0-6-2.691-6-6s2.691-6,6-6s6,2.691,6,6S52.309,82,49,82z M49,73c-1.654,0-3,1.346-3,3 s1.346,3,3,3s3-1.346,3-3S50.654,73,49,73z"/><circle cx="76" cy="76" r="4.5" fill="#707cc0"/><path fill="#40396e" d="M76,82c-3.309,0-6-2.691-6-6s2.691-6,6-6s6,2.691,6,6S79.309,82,76,82z M76,73c-1.654,0-3,1.346-3,3 s1.346,3,3,3s3-1.346,3-3S77.654,73,76,73z"/><circle cx="16" cy="23" r="3.5" fill="#de5147"/><path fill="#40396e" d="M16,28c-2.757,0-5-2.243-5-5s2.243-5,5-5s5,2.243,5,5S18.757,28,16,28z M16,21c-1.103,0-2,0.897-2,2 s0.897,2,2,2s2-0.897,2-2S17.103,21,16,21z"/><path fill="#40396e" d="M21.339,62H10.893c-0.829,0-1.5-0.672-1.5-1.5s0.671-1.5,1.5-1.5h10.446 c0.829,0,1.5,0.672,1.5,1.5S22.168,62,21.339,62z"/><path fill="#40396e" d="M21.339,37H10.893c-0.829,0-1.5-0.672-1.5-1.5s0.671-1.5,1.5-1.5h10.446 c0.829,0,1.5,0.672,1.5,1.5S22.168,37,21.339,37z"/><path fill="#40396e" d="M25,49H6.5C5.671,49,5,48.328,5,47.5S5.671,46,6.5,46H25c0.829,0,1.5,0.672,1.5,1.5 S25.829,49,25,49z"/><path fill="#40396e" d="M88.5,27H26.986l-2.101-5.073C24.654,21.365,24.106,21,23.5,21h-4c-0.828,0-1.5,0.672-1.5,1.5 s0.672,1.5,1.5,1.5h2.997l15.281,36.913c0.89,2.26,3.071,3.717,5.479,3.717c0.232,0,0.468-0.014,0.703-0.042l40.854-5.705 C87.771,58.535,90,56.028,90,53.051V28.5C90,27.672,89.328,27,88.5,27z M67.023,58.339l-1.705-7.492l9.99-0.882l0.847,7.098 L67.023,58.339z M53.908,60.17l-2.636-8.084l11.029-0.973l1.739,7.643L53.908,60.17z M36.667,50.387l-3.62-8.746l11.516-0.456 l2.688,8.245l-10.359,0.914C36.814,50.351,36.741,50.369,36.667,50.387z M47.678,41.061l12.226-0.484l1.726,7.584l-11.311,0.998 L47.678,41.061z M57.497,30l1.73,7.601l-12.515,0.496L44.071,30H57.497z M72.925,30l0.839,7.025L62.276,37.48L60.574,30H72.925z M64.646,47.894l-1.693-7.438l11.167-0.442l0.832,6.971L64.646,47.894z M77.127,39.895L87,39.504v6.418l-9.058,0.799L77.127,39.895 z M87,36.501l-10.229,0.405L75.946,30H87V36.501z M40.918,30c0.002,0.006,0.002,0.012,0.004,0.018l2.674,8.202l-11.608,0.46 c-0.054,0.002-0.105,0.015-0.157,0.022L28.229,30H40.918z M43.577,61.613c-1.288,0.142-2.53-0.588-3.018-1.823l-2.699-6.52 l10.344-0.913l2.685,8.235L43.577,61.613z M84.432,55.907l-5.304,0.741l-0.829-6.947L87,48.933v4.118 C87,54.507,85.909,55.732,84.432,55.907z"/></svg>