<svg xmlns="http://www.w3.org/2000/svg"  viewBox="0 0 100 100" width="100px" height="100px"><path fill="#1d1d1b" d="M86.654,26.979C85.452,25.113,83.41,24,81.191,24H67v-2.5c0-3.584-2.916-6.5-6.5-6.5	h-47C9.916,15,7,17.916,7,21.5v54c0,3.584,2.916,6.5,6.5,6.5h6.024c2.392,4.813,7.327,8,12.976,8s10.584-3.188,12.976-8h18.049	c2.392,4.813,7.327,8,12.976,8s10.584-3.188,12.976-8H91.5c3.584,0,6.5-2.916,6.5-6.5v-29c0-1.253-0.358-2.471-1.036-3.521	L86.654,26.979z" opacity=".35"/><path fill="#f2f2f2" d="M84.654,24.979C83.452,23.113,81.41,22,79.191,22H65v-2.5c0-3.584-2.916-6.5-6.5-6.5h-47	C7.916,13,5,15.916,5,19.5v54c0,3.584,2.916,6.5,6.5,6.5h6.024c2.392,4.813,7.327,8,12.976,8s10.584-3.188,12.976-8h18.049	c2.392,4.813,7.327,8,12.976,8s10.584-3.188,12.976-8H89.5c3.584,0,6.5-2.916,6.5-6.5v-29c0-1.253-0.358-2.471-1.036-3.521	L84.654,24.979z"/><rect width="47" height="54" x="11.5" y="19.5" fill="#9aa2e6"/><rect width="47" height="39.5" x="11.5" y="19.5" fill="#bd7bc8"/><polygon fill="#ffc571" points="89.5,73.5 57,73.5 57,28.5 79.191,28.5 89.5,44.5"/><circle cx="74.5" cy="73.5" r="6.5" fill="#707cc0"/><circle cx="30.5" cy="73.5" r="6.5" fill="#707cc0"/><polygon fill="#d9eeff" points="89.5,51 66,51 66,35 83.379,35 89.5,44.5"/><rect width="6.5" height="5" x="83" y="63" fill="#ff7575"/><rect width="6.5" height="5" x="11.5" y="63" fill="#ff7575"/><circle cx="30.5" cy="73.5" r="1.5" fill="#40396e"/><circle cx="74.5" cy="73.5" r="1.5" fill="#40396e"/><path fill="#fff" d="M17.222,47.395c-0.405,0-0.717-0.112-0.936-0.336c-0.219-0.225-0.328-0.55-0.328-0.977v-8.816 c0-0.863,0.432-1.295,1.296-1.295h5.472c0.651,0,0.977,0.319,0.977,0.959c0,0.65-0.325,0.977-0.977,0.977h-4.287v2.752h3.936 c0.661,0,0.992,0.32,0.992,0.96c0,0.65-0.331,0.976-0.992,0.976h-3.936v3.488C18.438,46.957,18.032,47.395,17.222,47.395z"/><path fill="#fff" d="M26.326,47.395c-0.405,0-0.715-0.112-0.928-0.336c-0.214-0.225-0.32-0.539-0.32-0.945v-8.879 c0-0.843,0.421-1.264,1.264-1.264h3.889c1.258,0,2.229,0.303,2.912,0.911c0.682,0.608,1.023,1.456,1.023,2.544 c0,0.843-0.216,1.545-0.647,2.104c-0.433,0.561-1.049,0.942-1.849,1.145c0.565,0.171,1.029,0.582,1.393,1.232l0.991,1.84 c0.225,0.405,0.267,0.781,0.129,1.128c-0.14,0.347-0.476,0.521-1.009,0.521c-0.352,0-0.64-0.075-0.863-0.225 c-0.225-0.149-0.416-0.379-0.576-0.688l-1.536-2.832c-0.16-0.299-0.357-0.502-0.592-0.608c-0.235-0.106-0.513-0.16-0.832-0.16 h-1.216v3.231c0,0.406-0.104,0.721-0.313,0.945C27.038,47.282,26.731,47.395,26.326,47.395z M27.559,41.09h2.224 c1.333,0,2-0.533,2-1.6c0-1.057-0.667-1.584-2-1.584h-2.224V41.09z"/><path fill="#fff" d="M37.51,47.25c-0.864,0-1.296-0.432-1.296-1.296v-8.688c0-0.863,0.432-1.295,1.296-1.295h5.584 c0.65,0,0.977,0.319,0.977,0.959c0,0.65-0.326,0.977-0.977,0.977h-4.512v2.64h4.144c0.661,0,0.992,0.325,0.992,0.976 c0,0.651-0.331,0.977-0.992,0.977h-4.144v2.816h4.512c0.65,0,0.977,0.319,0.977,0.959c0,0.651-0.326,0.977-0.977,0.977H37.51z"/><path fill="#fff" d="M47.189,47.25c-0.864,0-1.296-0.432-1.296-1.296v-8.688c0-0.863,0.432-1.295,1.296-1.295h5.584 c0.65,0,0.977,0.319,0.977,0.959c0,0.65-0.326,0.977-0.977,0.977h-4.512v2.64h4.144c0.661,0,0.992,0.325,0.992,0.976 c0,0.651-0.331,0.977-0.992,0.977h-4.144v2.816h4.512c0.65,0,0.977,0.319,0.977,0.959c0,0.651-0.326,0.977-0.977,0.977H47.189z"/><path fill="#40396e" d="M74.5,83c-4.729,0-8.66-3.472-9.382-8H39.882c-0.722,4.528-4.653,8-9.382,8s-8.66-3.472-9.382-8H11.5	c-0.828,0-1.5-0.672-1.5-1.5v-54c0-0.828,0.672-1.5,1.5-1.5h47c0.828,0,1.5,0.672,1.5,1.5V27h19.191c0.51,0,0.984,0.259,1.261,0.688	l10.309,16C90.917,43.93,91,44.212,91,44.5v29c0,0.828-0.672,1.5-1.5,1.5h-5.618C83.16,79.528,79.229,83,74.5,83z M38.5,72h28	c0.828,0,1.5,0.672,1.5,1.5c0,3.584,2.916,6.5,6.5,6.5s6.5-2.916,6.5-6.5c0-0.828,0.672-1.5,1.5-1.5H88V44.941L78.373,30H58.5	c-0.828,0-1.5-0.672-1.5-1.5V21H13v51h9.5c0.828,0,1.5,0.672,1.5,1.5c0,3.584,2.916,6.5,6.5,6.5s6.5-2.916,6.5-6.5	C37,72.672,37.672,72,38.5,72z"/></svg>