<svg xmlns="http://www.w3.org/2000/svg"  viewBox="0 0 100 100" width="100px" height="100px"><switch><g><circle cx="51.5" cy="50.5" r="39.5" opacity=".35"/><circle cx="49.5" cy="48.5" r="39.5" fill="#f2f2f2"/><circle cx="49.5" cy="48.5" r="34.5" fill="#707cc0"/><g opacity=".35"><circle cx="45.5" cy="28.5" r="6.5" fill="#40396e"/><circle cx="26.5" cy="42.5" r="3.5" fill="#40396e"/><circle cx="38" cy="62" r="5" fill="#40396e"/><circle cx="61.5" cy="49.5" r="5.5" fill="#40396e"/></g><path fill="#40396e" d="M64.051,17.218C70.286,23.461,74.143,32.08,74.143,41.6c0,19.054-15.446,34.5-34.5,34.5 c-5.201,0-10.129-1.158-14.551-3.218C31.336,79.133,39.966,83,49.5,83C68.554,83,84,67.554,84,48.5 C84,34.647,75.831,22.708,64.051,17.218z" opacity=".35"/><path fill="#40396e" d="M49.5,17C66.869,17,81,31.131,81,48.5S66.869,80,49.5,80S18,65.869,18,48.5S32.131,17,49.5,17 M49.5,14C30.446,14,15,29.446,15,48.5S30.446,83,49.5,83S84,67.554,84,48.5S68.554,14,49.5,14L49.5,14z"/></g></switch></svg>