<svg xmlns="http://www.w3.org/2000/svg"  viewBox="0 0 100 100" width="50px" height="50px"><path d="M88.5,17h-77C7.916,17,5,19.916,5,23.5v55c0,3.584,2.916,6.5,6.5,6.5h77c3.584,0,6.5-2.916,6.5-6.5 v-55C95,19.916,92.084,17,88.5,17z" opacity=".35"/><path fill="#f2f2f2" d="M86.5,15h-77C5.916,15,3,17.916,3,21.5v55C3,80.084,5.916,83,9.5,83h77c3.584,0,6.5-2.916,6.5-6.5 v-55C93,17.916,90.084,15,86.5,15z"/><path fill="#f2f2f2" d="M9,49h78v28H9V49z"/><path fill="#de5147" d="M9,21h78v28H9V21z"/><rect width="77" height="55" x="9.5" y="21.5" fill="none" stroke="#40396e" stroke-linejoin="round" stroke-miterlimit="10" stroke-width="3"/></svg>