<svg xmlns="http://www.w3.org/2000/svg"  viewBox="0 0 100 100" width="100px" height="100px"><path d="M19.7,92.7c-2.8,0-5.3-1.8-6.2-4.4c-0.6-1.6-0.4-3.4,0.3-5c0.8-1.6,2.1-2.7,3.7-3.3c3.6-1.2,7.3-3.6,10.8-6.7	c-6-3.1-10.2-7.4-12.4-12.7c-2.9-7.4-1.6-15.8,3.7-24.3C28.4,22.8,45.5,20,59.1,17.7c7-1.1,14.9-2.5,17.3-4.8	c1.2-1.2,2.9-1.9,4.6-1.9c0.7,0,1.4,0.1,2.1,0.3c2.4,0.8,4,2.8,4.4,5.3l0.2,1.1c0.6,4.5,1.9,13.8,1.9,24.3	c0,17.7-3.9,31.1-11.5,39.6c-5.5,6.3-13.2,10-21.1,10c-1.7,0-3.4-0.2-5.1-0.5c-5.6-1.2-10.5-4.3-14-8.9c-4.1,3.9-9.5,7.9-16.1,10.1	C21.1,92.6,20.4,92.7,19.7,92.7z" opacity=".35"/><path fill="#f2f2f2" d="M17.7,90.7c-2.8,0-5.3-1.8-6.2-4.4c-0.6-1.6-0.4-3.4,0.3-5c0.8-1.6,2.1-2.7,3.7-3.3c3.6-1.2,7.3-3.6,10.8-6.7	c-6-3.1-10.2-7.4-12.4-12.7c-2.9-7.4-1.6-15.8,3.7-24.3C26.4,20.8,43.5,18,57.1,15.7c7-1.1,14.9-2.5,17.3-4.8C75.7,9.6,77.3,9,79,9	c0.7,0,1.4,0.1,2.1,0.3c2.4,0.8,4,2.8,4.4,5.3l0.2,1.1c0.6,4.5,1.9,13.8,1.9,24.3c0,17.7-3.9,31.1-11.5,39.6	c-5.5,6.3-13.2,10-21.1,10c-1.7,0-3.4-0.2-5.1-0.5c-5.6-1.2-10.5-4.3-14-8.9c-4.1,3.9-9.5,7.9-16.1,10.1	C19.1,90.6,18.4,90.7,17.7,90.7z"/><path fill="none" stroke="#40396e" stroke-linecap="round" stroke-linejoin="round" stroke-miterlimit="10" stroke-width="3" d="M39.4,65.5C34.8,73,27,81,17.7,84.2"/><path fill="#96c362" d="M71.2,75.3c14.6-16.6,8.9-51.6,7.8-59.9c-9.5,9.5-43.8,3.6-55.8,22.3c-8.4,13.3-4.6,25.9,13.9,30.7	C42.4,85.9,61,87,71.2,75.3z"/><path fill="#739f4d" d="M79,15.5c-3.3,9.5-13.9,25.7-42,53.1C42.5,86.1,61,87,71.2,75.3C85.8,58.5,80.1,23.5,79,15.5z"/><path fill="none" stroke="#40396e" stroke-linecap="round" stroke-linejoin="round" stroke-miterlimit="10" stroke-width="3" d="M79,15.5C79,15.5,79,15.5,79,15.5C79,15.5,79,15.5,79,15.5c-9.5,9.5-43.8,3.6-55.8,22.3	c-8.4,13.3-4.6,25.9,13.9,30.7c0,0,0,0.1,0,0.1c0,0,0,0,0,0C42.5,86.1,61,87,71.2,75.3C79,66.5,81,52.4,81,39.9	C81.1,29,79.6,19.2,79,15.5z"/></svg>