<svg xmlns="http://www.w3.org/2000/svg"  viewBox="0 0 100 100" width="100px" height="100px"><path fill="#1d1d1b" d="M77.5,9h-51c-3.584,0-6.5,2.916-6.5,6.5v33.494h-4.5c-2.628,0-4.981,1.566-5.997,3.993	c-1.014,2.425-0.476,5.201,1.37,7.072l36.503,37.003c1.213,1.228,2.898,1.932,4.625,1.932s3.412-0.704,4.627-1.935l36.5-37	c1.845-1.871,2.383-4.647,1.369-7.075c-1.015-2.424-3.368-3.99-5.996-3.99H84V15.5C84,11.916,81.084,9,77.5,9z" opacity=".35"/><path fill="#f2f2f2" d="M75.5,7h-51C20.916,7,18,9.916,18,13.5v33.494h-4.5c-2.628,0-4.981,1.566-5.997,3.993	c-1.014,2.425-0.476,5.201,1.37,7.072l36.503,37.003c1.213,1.228,2.898,1.932,4.625,1.932s3.412-0.704,4.627-1.935l36.5-37	c1.845-1.871,2.383-4.647,1.369-7.075c-1.015-2.424-3.368-3.99-5.996-3.99H82V13.5C82,9.916,79.084,7,75.5,7z"/><polygon fill="#96c362" points="13.5,53.495 50,90.495 86.5,53.495 75.5,53.495 75.5,13.5 24.5,13.5 24.5,53.495"/><path fill="#fff" d="M50.192,64.995c-0.668,0-1.219-0.221-1.654-0.662c-0.436-0.441-0.653-0.976-0.653-1.605V60.5	c-1.487-0.101-2.802-0.334-3.941-0.699c-1.142-0.365-2.11-0.749-2.904-1.153c-0.718-0.352-1.167-0.85-1.345-1.492	c-0.18-0.642-0.148-1.258,0.096-1.85c0.243-0.592,0.653-1.02,1.231-1.286c0.576-0.264,1.262-0.207,2.057,0.17	c0.615,0.328,1.474,0.662,2.576,1.002c1.102,0.341,2.449,0.511,4.038,0.511c1.769,0,3.025-0.277,3.769-0.832	c0.744-0.553,1.115-1.247,1.115-2.077c0-0.681-0.256-1.247-0.769-1.701c-0.514-0.454-1.436-0.817-2.769-1.096l-4.231-0.906	c-4.666-1.007-6.999-3.451-6.999-7.328c0-2.116,0.731-3.905,2.192-5.366c1.462-1.459,3.423-2.379,5.884-2.757v-2.379	c0-0.629,0.218-1.164,0.653-1.605c0.436-0.441,0.987-0.662,1.654-0.662c0.64,0,1.178,0.221,1.615,0.662	c0.436,0.441,0.653,0.976,0.653,1.605v2.267c0.948,0.125,1.929,0.352,2.942,0.681c1.012,0.326,1.903,0.754,2.672,1.284	c0.616,0.378,0.993,0.863,1.135,1.453c0.14,0.592,0.083,1.153-0.174,1.682c-0.256,0.528-0.672,0.9-1.25,1.114	c-0.576,0.214-1.276,0.12-2.096-0.284c-0.692-0.326-1.449-0.603-2.269-0.83c-0.821-0.227-1.833-0.341-3.038-0.341	c-1.487,0-2.653,0.302-3.499,0.907c-0.846,0.605-1.269,1.385-1.269,2.342c0,0.679,0.251,1.239,0.75,1.68	c0.5,0.441,1.378,0.8,2.634,1.077l4.268,0.906c2.435,0.529,4.236,1.393,5.403,2.588c1.167,1.197,1.75,2.726,1.75,4.589	c0,2.141-0.737,3.905-2.211,5.29c-1.475,1.385-3.391,2.278-5.75,2.682v2.379c0,0.629-0.218,1.164-0.653,1.605	C51.37,64.773,50.832,64.995,50.192,64.995z"/><path fill="#40396e" d="M50,91.994c-0.401,0-0.786-0.161-1.068-0.446l-36.5-37c-0.425-0.431-0.549-1.074-0.316-1.633	c0.233-0.558,0.779-0.921,1.384-0.921H23V13.5c0-0.828,0.671-1.5,1.5-1.5h51c0.829,0,1.5,0.672,1.5,1.5v38.494h9.5	c0.605,0,1.15,0.363,1.384,0.921c0.233,0.559,0.109,1.202-0.316,1.633l-36.5,37C50.786,91.833,50.401,91.994,50,91.994z M17.087,54.994L50,88.358l32.913-33.364H75.5c-0.829,0-1.5-0.672-1.5-1.5V15H26v38.494c0,0.828-0.671,1.5-1.5,1.5H17.087z"/></svg>