<svg xmlns="http://www.w3.org/2000/svg"  viewBox="0 0 100 100" width="50px" height="50px"><path fill="#ffee58" d="M55.139,58.045c-0.068,0-0.124,0.055-0.124,0.123c0,0.068,0.055,0.124,0.123,0.124 c0,0,0.001,0,0.001,0c0.068,0,0.124-0.055,0.124-0.123C55.263,58.101,55.208,58.045,55.139,58.045 C55.139,58.045,55.139,58.045,55.139,58.045z"/><path d="M88.5,15h-77C7.916,15,5,17.916,5,21.5v55c0,3.584,2.916,6.5,6.5,6.5h77c3.584,0,6.5-2.916,6.5-6.5 v-55C95,17.916,92.084,15,88.5,15z" opacity=".35"/><path fill="#f2f2f2" d="M86.5,13h-77C5.916,13,3,15.916,3,19.5v55C3,78.084,5.916,81,9.5,81h77c3.584,0,6.5-2.916,6.5-6.5 v-55C93,15.916,90.084,13,86.5,13z"/><rect width="55.5" height="4" x="30" y="21" fill="#de5147"/><rect width="57" height="4" x="29" y="29" fill="#de5147"/><rect width="57" height="4" x="29" y="37" fill="#de5147"/><rect width="78" height="4" x="10" y="45" fill="#de5147"/><rect width="78" height="4" x="10" y="53" fill="#de5147"/><rect width="78" height="4" x="10" y="61" fill="#de5147"/><rect width="78" height="4" x="10" y="69" fill="#de5147"/><rect width="46" height="32" x="11" y="21" fill="#2b59a1"/><rect width="77" height="55" x="9.5" y="19.5" fill="none" stroke="#40396e" stroke-linejoin="round" stroke-miterlimit="10" stroke-width="3"/><path fill="#f9b84f" d="M51.345,41.962L47.3,39.851l1.197,4.321l-2.706-3.614l-0.846,4.399l-0.83-4.401l-2.718,3.606 l1.21-4.316l-4.053,2.098l3.011-3.378l-4.586,0.176l4.216-1.77l-4.21-1.782l4.585,0.19l-3-3.386l4.047,2.111l-1.197-4.321 l2.706,3.614L44.97,29l0.83,4.401l2.718-3.606l-1.21,4.316l4.053-2.098l-3.011,3.378l4.586-0.176l-4.216,1.77l4.21,1.782 l-4.585-0.19L51.345,41.962z"/><path fill="#f9b84f" d="M31.612,46.429c-5.269,0-9.541-4.221-9.541-9.429s4.271-9.429,9.541-9.429 c2.46,0,4.696,0.928,6.388,2.44C35.796,26.981,32.207,25,28.143,25C21.436,25,16,30.373,16,37s5.436,12,12.143,12 c4.065,0,7.653-1.981,9.857-5.011C36.308,45.5,34.072,46.429,31.612,46.429z"/></svg>