<svg xmlns="http://www.w3.org/2000/svg"  viewBox="0 0 100 100" width="50px" height="50px"><path d="M22.266,88.444c-0.207,0-0.414-0.011-0.62-0.032c-4.87-0.506-9.802-4.097-9.802-9.98 c0-5.238,3.754-8.973,7.42-11.424c-4.724-5.552-7.42-12.679-7.42-20.055c0-17.032,13.856-30.888,30.888-30.888 c8.308,0,15.86,3.296,21.417,8.651c0.013-0.059,0.027-0.119,0.04-0.179l1.019-3.831c-3.012-1.171-6.801-1.451-6.801-4.872 c0-4.449,3.619-8.068,8.068-8.068c3.12,0,4.975,2.354,6.317,4.952c1.132-3.089,4.959-5.874,8.436-5.874 c4.449,0,8.068,3.619,8.068,8.068c0,3.066-1.683,5.72-4.196,7.083C93.1,32.4,93.076,56.824,92.982,61.818 c0.001,8.463-2.359,15.06-7.014,19.521c-4.601,4.409-11.392,6.645-20.185,6.645c-19.591,0-42.426,0.441-43.388,0.46 C22.35,88.444,22.304,88.444,22.266,88.444z" opacity=".35"/><path fill="#f2f2f2" d="M20.422,86.6c-0.207,0-0.414-0.011-0.62-0.032C14.931,86.061,10,82.47,10,76.587 c0-5.238,3.754-8.973,7.42-11.424C12.696,59.612,10,52.485,10,45.109C10,28.077,23.856,14.22,40.888,14.22 c7.541,0,14.46,2.716,19.829,7.223c0,0-4.155-3.534-4.155-7.453c0-4.449,3.619-8.068,8.068-8.068c3.12,0,5.832,1.78,7.174,4.378 C72.936,7.211,75.906,5,79.383,5c4.449,0,8.068,3.619,8.068,8.068c0,3.066-1.683,5.72-4.196,7.083 c8.002,10.404,7.977,34.828,7.883,39.823c0.001,8.463-2.359,15.06-7.014,19.521c-4.601,4.409-11.392,6.645-20.185,6.645 c-19.591,0-42.426,0.441-43.388,0.46C20.506,86.6,20.46,86.6,20.422,86.6z"/><path fill="#d47f56" d="M73.16,20.851c-12.669,0,3.557,19.498-9.085,33.32c1.099-2.809,1.709-5.864,1.709-9.063 c0-13.749-11.146-24.895-24.895-24.895S15.993,31.359,15.993,45.109c0,9.07,4.852,17.005,12.101,21.357 c-5.336,2.146-12.101,5.732-12.101,10.122c0,3.559,4.429,4.02,4.429,4.02s23.232-0.461,43.517-0.461 c12.127,0,21.207-4.61,21.207-20.285C85.146,59.861,85.876,20.851,73.16,20.851z"/><path fill="#ffb789" d="M80.344,27.557c0,0-6.061-4.518-6.527,1.775c-0.466,6.293,7.024,26.246,0,37.186 c-7.024,10.94-46.558,9.448-53.147,12.805h51.132l6.881-3.128l6.47-8.309l-0.162-15.791l-2.908-22.763L80.344,27.557z"/><path fill="none" stroke="#40396e" stroke-linecap="round" stroke-linejoin="round" stroke-miterlimit="10" stroke-width="3" d="M73.16,20.851c-12.669,0,3.557,19.498-9.085,33.32c1.099-2.809,1.709-5.864,1.709-9.063c0-13.749-11.146-24.895-24.895-24.895 S15.993,31.359,15.993,45.109c0,9.07,4.852,17.005,12.101,21.357c-5.336,2.146-12.101,5.732-12.101,10.122 c0,3.559,4.429,4.02,4.429,4.02s23.232-0.461,43.517-0.461c12.127,0,21.207-4.61,21.207-20.285 C85.146,59.861,85.876,20.851,73.16,20.851z"/><line x1="68.999" x2="64.861" y1="22.429" y2="14.681" fill="none" stroke="#40396e" stroke-linecap="round" stroke-linejoin="round" stroke-miterlimit="10" stroke-width="3"/><line x1="75.728" x2="79.318" y1="21.443" y2="13.554" fill="none" stroke="#40396e" stroke-linecap="round" stroke-linejoin="round" stroke-miterlimit="10" stroke-width="3"/><circle cx="64.631" cy="13.99" r="3.458" fill="#40396e"/><circle cx="79.383" cy="13.068" r="3.458" fill="#40396e"/><circle cx="40.888" cy="45.109" r="23.512" fill="#f9b84f"/><path fill="#e66f2e" d="M52.442,34.813c-0.004-0.004-0.006-0.009-0.01-0.014c-0.004-0.004-0.008-0.008-0.012-0.012 c-0.004-0.004-0.007-0.009-0.011-0.013c-0.002-0.002-0.005-0.003-0.006-0.005c-3.21-3.63-8.027-5.797-12.898-5.797 c-9.66,0-17.519,7.859-17.519,17.519c0,7.118,5.791,12.909,12.909,12.909s12.909-5.791,12.909-12.909 c0-0.15-0.021-0.298-0.027-0.448c0.017-0.086,0.027-0.174,0.027-0.264c0-4.691-3.817-8.508-8.508-8.508s-8.508,3.817-8.508,8.508 c0,0.764,0.619,1.383,1.383,1.383c0.764,0,1.383-0.619,1.383-1.383c0-3.166,2.576-5.742,5.742-5.742 c2.523,0,4.666,1.638,5.435,3.904c0.006,0.047,0.008,0.095,0.02,0.142c0.19,0.782,0.287,1.593,0.287,2.408 c0,5.593-4.55,10.142-10.142,10.142s-10.142-4.55-10.142-10.142c0-8.134,6.618-14.753,14.753-14.753 c4.102,0,8.158,1.827,10.85,4.888c0.005,0.006,0.012,0.01,0.017,0.016c0.002,0.003,0.003,0.006,0.005,0.009 c3.097,3.355,4.802,7.718,4.802,12.288c0,9.993-8.129,18.122-18.122,18.122c-4.173,0-8.096-1.405-11.291-3.967 c4.091,3.445,9.367,5.526,15.121,5.526c1.406,0,2.781-0.131,4.119-0.369c7.585-3.134,12.938-10.609,12.938-19.313 C57.946,43.689,55.991,38.676,52.442,34.813z"/></svg>