<svg xmlns="http://www.w3.org/2000/svg"  viewBox="0 0 100 100" width="100px" height="100px"><switch><g><path d="M74.694,69.479c-5.419-4.48-8.526-11.034-8.526-17.979c0-6.943,3.106-13.496,8.523-17.978 c3.598-2.977,5.098-7.622,3.916-12.12c-1.198-4.568-4.853-7.928-9.535-8.768C66.729,12.214,64.324,12,61.924,12 c-0.948,0-1.916,0.034-2.88,0.102c-19.734,1.382-35.62,17.149-36.951,36.677C21.344,59.765,25.075,70.251,32.6,78.305 C40.136,86.373,50.824,91,61.924,91c2.381,0,4.767-0.21,7.09-0.624c4.711-0.839,8.387-4.206,9.594-8.787 C79.791,77.095,78.292,72.455,74.694,69.479z" opacity=".35"/><path fill="#f2f2f2" d="M72.694,67.479c-5.419-4.48-8.526-11.034-8.526-17.979c0-6.943,3.106-13.496,8.523-17.978 c3.598-2.977,5.098-7.622,3.916-12.12c-1.198-4.568-4.853-7.928-9.535-8.768C64.729,10.214,62.324,10,59.924,10 c-0.948,0-1.916,0.034-2.88,0.102c-19.734,1.382-35.62,17.149-36.951,36.677C19.344,57.765,23.075,68.251,30.6,76.305 C38.136,84.373,48.824,89,59.924,89c2.381,0,4.767-0.21,7.09-0.624c4.711-0.839,8.387-4.206,9.594-8.787 C77.791,75.095,76.292,70.455,72.694,67.479z"/><path fill="#9aa2e6" d="M59.924,21c1.748,0,3.499,0.155,5.204,0.461c0.613,0.11,0.791,0.55,0.84,0.733 c0.088,0.335-0.009,0.621-0.288,0.852c-7.951,6.578-12.511,16.22-12.511,26.453c0,10.235,4.561,19.878,12.515,26.456 c0.103,0.085,0.415,0.343,0.287,0.831c-0.05,0.19-0.236,0.644-0.884,0.759C63.394,77.847,61.658,78,59.924,78 c-8.064,0-15.822-3.355-21.287-9.204c-5.421-5.803-8.109-13.356-7.57-21.27c0.959-14.079,12.457-25.451,26.745-26.452 C58.515,21.025,59.225,21,59.924,21 M59.924,18c-0.768,0-1.542,0.027-2.321,0.081c-15.74,1.103-28.47,13.706-29.529,29.241 C26.822,65.705,41.563,81,59.924,81c1.941,0,3.842-0.172,5.688-0.5c3.363-0.599,4.59-4.7,1.983-6.855 C60.611,67.867,56.168,59.197,56.168,49.5c0-9.695,4.441-18.365,11.424-24.142c2.588-2.141,1.406-6.25-1.934-6.85 C63.798,18.175,61.882,18,59.924,18L59.924,18z"/><path fill="#40396e" d="M59.924,18c1.958,0,3.874,0.175,5.734,0.508c3.34,0.6,4.522,4.709,1.934,6.85 C60.609,31.135,56.168,39.805,56.168,49.5c0,9.697,4.442,18.367,11.427,24.144c2.606,2.156,1.38,6.257-1.983,6.855 c-1.845,0.328-3.746,0.5-5.688,0.5c-18.362,0-33.102-15.295-31.85-33.678c1.059-15.535,13.789-28.138,29.529-29.241 C58.383,18.027,59.157,18,59.924,18 M59.924,78.047c1.727,0,3.457-0.152,5.143-0.452c0.621-0.11,0.811-0.573,0.865-0.766 c0.102-0.371,0.001-0.685-0.299-0.933C57.691,69.327,53.137,59.706,53.137,49.5c0-10.204,4.553-19.824,12.493-26.392 c0.378-0.313,0.372-0.692,0.3-0.954c-0.064-0.233-0.255-0.639-0.82-0.741c-1.699-0.305-3.443-0.46-5.184-0.46 c-0.696,0-1.404,0.025-2.104,0.074c-14.273,1-25.76,12.388-26.721,26.491c-0.552,8.096,2.242,15.778,7.866,21.632 C44.478,74.887,51.921,78.047,59.924,78.047 M59.924,15c-0.839,0-1.69,0.03-2.531,0.089 c-17.259,1.209-31.15,14.979-32.312,32.03c-0.653,9.59,2.604,18.743,9.172,25.773C40.848,79.951,50.205,84,59.924,84 c2.085,0,4.175-0.184,6.213-0.547c2.771-0.493,4.93-2.462,5.635-5.139c0.681-2.588-0.187-5.263-2.265-6.982 C62.937,65.898,59.168,57.94,59.168,49.5c0-8.439,3.767-16.396,10.336-21.83c2.08-1.721,2.948-4.403,2.267-6.999 c-0.699-2.663-2.838-4.623-5.583-5.115C64.134,15.187,62.027,15,59.924,15L59.924,15z M59.924,75.047 c-7.179,0-13.854-2.832-18.795-7.975c-5.031-5.237-7.53-12.108-7.037-19.35c0.86-12.617,11.151-22.806,23.938-23.702 c0.63-0.044,1.267-0.067,1.894-0.067c0.138,0,0.275,0.001,0.413,0.003c-6.53,6.898-10.201,15.984-10.201,25.544 c0,9.56,3.67,18.645,10.201,25.544C60.199,75.046,60.062,75.047,59.924,75.047L59.924,75.047z"/></g></switch></svg>