<svg xmlns="http://www.w3.org/2000/svg"  viewBox="0 0 100 100" width="50px" height="50px"><path d="M88.5,18h-77C7.916,18,5,20.916,5,24.5v55c0,3.584,2.916,6.5,6.5,6.5h77c3.584,0,6.5-2.916,6.5-6.5v-55 C95,20.916,92.084,18,88.5,18z" opacity=".35"/><path fill="#f2f2f2" d="M86.5,16h-77C5.916,16,3,18.916,3,22.5v55C3,81.084,5.916,84,9.5,84h77c3.584,0,6.5-2.916,6.5-6.5 v-55C93,18.916,90.084,16,86.5,16z"/><rect width="77" height="19" x="10" y="41" fill="#739f4d"/><rect width="77" height="18" x="11" y="23" fill="#f9b84f"/><rect width="77" height="18" x="10" y="59" fill="#f4665c"/><path fill="#40396e" d="M86.5,79h-77C8.672,79,8,78.328,8,77.5v-55C8,21.672,8.672,21,9.5,21h77 c0.828,0,1.5,0.672,1.5,1.5v55C88,78.328,87.328,79,86.5,79z M11,76h74V24H11V76z"/><polygon fill="#fff" points="54.542,54.243 66,46.119 51.849,46.119 47.5,33 43.151,46.119 29,46.119 40.458,54.243 35.938,67.297 47.5,59.236 59.063,67.297"/></svg>