<svg xmlns="http://www.w3.org/2000/svg"  viewBox="0 0 100 100" width="100px" height="100px"><path fill="#1d1d1b" d="M52,98c-2.021,0-3.958-0.962-5.179-2.572l-4.776-6.298l-7.286,3.069	c-0.817,0.341-1.66,0.51-2.525,0.51c-1.143,0-2.268-0.303-3.256-0.875c-1.748-1.012-2.943-2.813-3.193-4.82l-0.978-7.839	l-7.838-0.978c-2.002-0.248-3.807-1.441-4.821-3.192c-1.016-1.762-1.15-3.921-0.364-5.784l3.385-8.281l-5.953-4.583	c-1.609-1.218-3.234-2.351-3.234-4.374c0-2.021,0.961-3.958,2.572-5.179l6.298-4.776l-3.069-7.286	c-0.785-1.863-0.65-4.022,0.361-5.774c1.016-1.754,2.818-2.949,4.825-3.199l7.837-0.978l0.978-7.838	c0.25-2.006,1.444-3.809,3.195-4.822c0.997-0.573,2.119-0.873,3.255-0.873c0.868,0,1.713,0.17,2.513,0.505l7.295,3.073l4.776-6.298	c1.206-1.59,3.143-2.54,5.179-2.54c2.037,0,3.031,1.535,4.237,3.126l4.512,5.972l8.492-3.329c0.804-0.338,1.652-0.509,2.523-0.509	c1.137,0,2.259,0.3,3.245,0.867c1.764,1.022,2.957,2.826,3.205,4.833l0.978,7.833l7.838,0.978c2.007,0.25,3.809,1.445,4.822,3.195	c1.012,1.749,1.148,3.906,0.367,5.771l-3.073,7.293l6.298,4.775c1.61,1.222,2.572,3.158,2.572,5.179c0,2.023-0.963,3.96-2.575,5.181	l-6.295,4.774l3.069,7.286c0.785,1.869,0.648,4.026-0.362,5.776c-1.018,1.756-2.821,2.949-4.829,3.197l-7.833,0.978l-0.978,7.838	c-0.248,2.002-1.441,3.806-3.192,4.82c-0.992,0.573-2.116,0.875-3.257,0.875l0,0c-0.866,0-1.711-0.17-2.51-0.503l-7.3-3.076	l-4.775,6.298C55.957,97.038,54.021,98,52,98z" opacity=".35"/><path fill="#f2f2f2" d="M50,96c-2.021,0-3.958-0.962-5.179-2.572l-4.776-6.298l-7.286,3.069	c-0.817,0.341-1.66,0.51-2.525,0.51c-1.143,0-2.268-0.303-3.256-0.875c-1.748-1.012-2.943-2.813-3.193-4.82l-0.978-7.839	l-7.838-0.978c-2.002-0.248-3.807-1.441-4.821-3.192c-1.016-1.762-1.15-3.921-0.364-5.784l3.068-7.282l-6.298-4.777	c-1.609-1.218-2.572-3.155-2.572-5.178c0-2.021,0.961-3.958,2.572-5.179l6.298-4.776l-3.069-7.286	c-0.785-1.863-0.65-4.022,0.361-5.774c1.016-1.754,2.818-2.949,4.825-3.199l7.837-0.978l0.978-7.838	c0.25-2.006,1.444-3.809,3.195-4.822c0.997-0.573,2.119-0.873,3.255-0.873c0.868,0,1.713,0.17,2.513,0.505l7.295,3.073l4.776-6.298	c1.206-1.59,3.143-2.54,5.179-2.54c2.037,0,3.973,0.949,5.179,2.54l4.777,6.298l7.285-3.069c0.804-0.338,1.652-0.509,2.523-0.509	c1.137,0,2.259,0.3,3.245,0.867c1.764,1.022,2.957,2.826,3.205,4.833l0.978,7.833l7.838,0.978c2.007,0.25,3.809,1.445,4.822,3.195	c1.012,1.749,1.148,3.906,0.367,5.771l-3.073,7.293l6.298,4.775c1.61,1.222,2.572,3.158,2.572,5.179c0,2.023-0.963,3.96-2.575,5.181	l-6.295,4.774l3.069,7.286c0.785,1.869,0.648,4.026-0.362,5.776c-1.018,1.756-2.821,2.949-4.829,3.197l-7.833,0.978l-0.978,7.838	c-0.248,2.002-1.441,3.806-3.192,4.82c-0.992,0.573-2.116,0.875-3.257,0.875l0,0c-0.866,0-1.711-0.17-2.51-0.503l-7.3-3.076	l-4.775,6.298C53.957,95.038,52.021,96,50,96z"/><polygon fill="#ff7575" points="89.483,49.983 79.172,57.803 84.196,69.731 71.349,71.333 69.747,84.18 57.82,79.155 50,89.466 42.18,79.155 30.252,84.179 28.65,71.333 15.803,69.73 20.828,57.803 10.517,49.983 20.828,42.163 15.804,30.235 28.651,28.633 30.253,15.786 42.18,20.811 50,10.5 57.82,20.811 69.748,15.787 71.35,28.634 84.197,30.236 79.172,42.163"/><path fill="#fff" d="M28.08,57c-0.96,0-1.44-0.5-1.44-1.5V44.101c0-0.507,0.123-0.894,0.37-1.16s0.577-0.4,0.99-0.4 c0.347,0,0.62,0.07,0.82,0.21c0.199,0.141,0.426,0.37,0.68,0.69l6.479,8.26v-7.68c0-0.986,0.48-1.48,1.44-1.48 s1.44,0.494,1.44,1.48v11.54c0,0.439-0.114,0.79-0.341,1.05S37.986,57,37.6,57c-0.373,0-0.67-0.073-0.89-0.22s-0.457-0.38-0.71-0.7 l-6.48-8.26v7.68C29.52,56.5,29.04,57,28.08,57z"/><path fill="#fff" d="M43.32,56.82c-1.08,0-1.62-0.54-1.62-1.62V44.34c0-1.079,0.54-1.619,1.62-1.619H50.3 c0.813,0,1.221,0.399,1.221,1.199c0,0.813-0.407,1.221-1.221,1.221h-5.64v3.3h5.18c0.827,0,1.24,0.407,1.24,1.22 c0,0.813-0.413,1.22-1.24,1.22h-5.18V54.4h5.64c0.813,0,1.221,0.4,1.221,1.2c0,0.813-0.407,1.22-1.221,1.22H43.32z"/><path fill="#fff" d="M59.02,57c-0.439,0-0.79-0.104-1.05-0.31c-0.26-0.207-0.47-0.523-0.63-0.95L53.3,44.38 c-0.187-0.506-0.153-0.939,0.1-1.3c0.254-0.359,0.688-0.54,1.301-0.54c0.426,0,0.756,0.101,0.989,0.3 c0.233,0.2,0.424,0.514,0.57,0.94l2.88,8.58l3.04-8.56c0.146-0.427,0.34-0.743,0.58-0.95s0.554-0.311,0.94-0.311 c0.373,0,0.673,0.104,0.899,0.311s0.42,0.529,0.58,0.97l2.94,8.7l3-8.74c0.133-0.413,0.319-0.723,0.56-0.93s0.566-0.311,0.98-0.311 c0.52,0,0.899,0.181,1.14,0.54c0.24,0.36,0.267,0.794,0.08,1.3L69.8,55.761c-0.146,0.413-0.35,0.723-0.61,0.93 C68.93,56.896,68.587,57,68.16,57s-0.768-0.104-1.021-0.31c-0.253-0.207-0.46-0.523-0.62-0.95l-2.92-8.28l-2.96,8.301 c-0.16,0.413-0.363,0.723-0.609,0.93C59.783,56.896,59.446,57,59.02,57z"/><polygon fill="none" stroke="#40396e" stroke-linecap="round" stroke-linejoin="round" stroke-miterlimit="10" stroke-width="3" points="89.517,49.983 79.197,57.81 84.226,69.748 71.368,71.351 69.764,84.209 57.827,79.18 50,89.5 42.173,79.18 30.235,84.209 28.632,71.351 15.774,69.747 20.803,57.81 10.483,49.983 20.803,42.156 15.774,30.218 28.632,28.615 30.236,15.757 42.173,20.787 50,10.466 57.827,20.787 69.765,15.758 71.368,28.616 84.226,30.219 79.197,42.157"/></svg>