<svg xmlns="http://www.w3.org/2000/svg"  viewBox="0 0 100 100" width="100px" height="100px"><path d="M75.698,96c-2.386,0-5.771-0.482-9.691-1.04c-2.943-0.42-6.551-0.935-8.077-0.935	c-7.246,0-16.995,0.782-24.112,1.354C29.318,95.739,26.076,96,24.366,96l-0.212-0.005c-7.169-0.304-11.496-4.498-12.183-11.81	c-0.018-0.169-0.028-0.389-0.028-0.608v-13.82c0-4.249,1.383-7.836,3.954-10.392c0.012-0.483,0.044-0.981,0.094-1.497	c0.025-0.236,0.054-0.424,0.09-0.608l2.641-13.748c0.75-3.905,2.619-7.066,5.314-9.132c0.056-1.636,0.437-3.371,1.141-5.194	c0.106-0.264,0.185-0.437,0.271-0.604l6.101-12.231c2.521-5.05,6.007-7.027,8.488-7.798c1.174-0.364,2.406-0.549,3.663-0.549	c2.413,0,4.855,0.666,7.262,1.979l21.005,10.389c6.258,3.097,13.79,10.905,16.599,21.404c3.67,10.392,4.419,17.701,2.227,21.729	c-0.818,1.506-2.024,2.705-3.521,3.535c0.717,2.273,0.984,4.237,0.83,5.99c-0.248,2.815-1.49,5.252-3.51,6.905	c1.06,2.066,1.557,3.895,1.557,5.616C86.146,92.338,80.764,96,75.698,96z" opacity=".35"/><path fill="#f2f2f2" d="M73.698,94c-2.386,0-5.771-0.482-9.691-1.04c-2.943-0.42-6.551-0.935-8.077-0.935	c-7.246,0-16.995,0.782-24.112,1.354C27.318,93.739,24.076,94,22.366,94l-0.212-0.005c-7.169-0.304-11.496-4.498-12.183-11.81	c-0.018-0.169-0.028-0.389-0.028-0.608v-13.82c0-4.249,1.383-7.836,3.954-10.392c0.012-0.483,0.044-0.981,0.094-1.497	c0.025-0.236,0.054-0.424,0.09-0.608l2.641-13.748c0.75-3.905,2.619-7.066,5.314-9.132c0.056-1.636,0.437-3.371,1.141-5.194	c0.106-0.264,0.185-0.437,0.271-0.604l6.101-12.231c2.521-5.05,6.007-7.027,8.488-7.798c1.174-0.364,2.406-0.549,3.663-0.549	c2.413,0,4.855,0.666,7.262,1.979l21.005,10.389c6.258,3.097,13.79,10.905,16.599,21.404c3.67,10.392,4.419,17.701,2.227,21.729	c-0.818,1.506-2.024,2.705-3.521,3.535c0.717,2.273,0.984,4.237,0.83,5.99c-0.248,2.815-1.49,5.252-3.51,6.905	c1.06,2.066,1.557,3.895,1.557,5.616C84.146,90.338,78.764,94,73.698,94z"/><path fill="#ef8630" d="M62.764,50.488c-10.582-5.236-27.33-11.335-30.859-13.08c-2.954-1.621-4.318-3.603-2.665-7.879	l6.124-12.276c2.626-5.262,6.64-5.694,10.555-3.524l21.165,10.47c5.291,2.618,11.212,9.536,13.263,17.494	c0,0,4.685,13.121,2.734,16.705c-1.368,2.511-6.424,1.048-6.458,1.017C73.155,57.696,66.292,52.231,62.764,50.488z"/><path fill="#e66f2e" stroke="#e66f2e" stroke-miterlimit="10" stroke-width=".5" d="M82.9,50.829	c-2.478,2.091-6.995,5.573-10.245,6.081c0.729,0.484,1.161,0.809,1.951,1.303c3.21-1.127,6.606-3.514,8.687-5.171	C83.206,52.418,83.076,51.747,82.9,50.829z M81.003,43.712c-3.467,5.568-9.1,9.19-11.733,10.892	c0.575,0.379,1.068,0.746,1.749,1.202c2.819-1.882,7.238-4.965,10.695-9.751C81.437,45.092,81.068,43.927,81.003,43.712z M78.811,37.352c-0.261-0.576-0.687-1.55-1.189-2.373c-2.756,7.196-9.41,14.642-11.927,17.216c0.555,0.353,0.969,0.659,1.674,1.104	C70.081,50.503,75.777,44.189,78.811,37.352z M74.132,29.968c-0.513-0.598-1.088-1.236-1.631-1.757	c-2.409,7.581-8.811,17.702-11.425,21.457l1.795,0.871C65.538,46.707,71.43,37.546,74.132,29.968z M63.828,38.792	c1.08-9.242-1.901-16.93-6.8-17.502c-4.894-0.573-9.573,6.221-10.655,15.461c-0.29,2.486-0.336,4.383-0.081,6.535l2.101,0.857	c-0.403-2.322-0.391-4.371-0.063-7.163c0.922-7.879,4.8-14.174,8.472-13.743c0.361,0.043,0.711,0.15,1.046,0.314	c3.05,1.51,4.855,7.913,4.026,15.013c-0.511,4.365-1.42,7.465-3.208,9.984l1.797,0.831C62.367,46.598,63.289,43.394,63.828,38.792z M50.498,15.992l-2.039-1.009c-6.136,5.35-7.617,19.508-7.333,26.227l1.978,0.792C42.573,35.852,44.227,20.292,50.498,15.992z M39.732,12.837c-4.805,11.125-4.829,21.062-3.966,26.225l2.203,0.888c-0.993-5.313-1.775-14.861,4.154-27.435	C41.017,12.48,40.5,12.581,39.732,12.837z"/><path fill="#e66f2e" stroke="#e66f2e" stroke-miterlimit="10" stroke-width=".5" d="M50.699,43.943	c-0.039,0.501-0.043,0.636-0.065,1.125l1.858,0.748c0.022-0.638,0.115-1.009,0.17-1.72c0.426-5.419,1.577-8.598,2.227-9.396	c0.517,0.888,1.161,4.207,0.736,9.629c-0.079,1.011-0.211,1.864-0.334,2.717l1.913,0.843c0.162-1.054,0.292-2.263,0.383-3.404	c0.152-1.939,0.754-11.635-2.533-11.879c-1.212-0.097-2.193,1.102-3.001,3.658C51.408,38.306,50.928,41.033,50.699,43.943z"/><path fill="#ef8630" d="M58.121,68.171c-11.524-2.32-29.188-3.834-33.03-4.608c-3.26-0.806-5.088-2.395-4.63-7.06	l2.644-13.765c1.133-5.899,5.352-7.092,9.194-6.32l23.048,4.642c5.763,1.161,13.26,6.397,17.319,13.7c0,0,7.384,10.882,6.959,15.7	c-0.351,3.99-4.596,3.159-4.596,3.159C71.131,73.03,61.963,68.945,58.121,68.171z"/><path fill="#e66f2e" stroke="#e66f2e" stroke-miterlimit="10" stroke-width=".5" d="M77.493,63.056	c-1.826,2.73-5.216,7.358-8.199,8.734c0.825,0.282,1.327,0.488,2.213,0.762c2.782-1.976,5.38-5.222,6.94-7.416	C78.201,64.543,77.903,63.915,77.493,63.056z M73.828,56.515c-1.86,6.428-6.308,11.52-8.387,13.909	c0.65,0.219,1.22,0.448,1.994,0.717c2.207-2.616,5.641-6.803,7.698-12.458C74.614,57.806,73.947,56.709,73.828,56.515z M70.053,50.827c-0.401-0.5-1.066-1.345-1.763-2.022c-0.75,7.844-5.173,16.985-6.908,20.201c0.624,0.199,1.102,0.391,1.897,0.638	C65.141,66.158,68.942,58.393,70.053,50.827z M63.625,44.798c-0.65-0.452-1.368-0.928-2.026-1.295	c-0.316,8.13-3.793,19.844-5.313,24.254l1.951,0.377C59.787,63.633,63.027,53.005,63.625,44.798z M56.063,56.28	c-1.394-9.414-6.276-16.199-11.123-15.445c-4.843,0.752-7.544,8.715-6.15,18.128c0.375,2.531,0.831,4.417,1.643,6.472l2.239,0.28	c-0.997-2.182-1.524-4.209-1.945-7.052c-1.189-8.024,0.875-15.281,4.507-15.846c0.359-0.055,0.721-0.043,1.086,0.03	c3.323,0.669,6.736,6.503,7.808,13.735c0.659,4.446,0.602,7.751-0.45,10.719l1.941,0.336C56.717,64.377,56.758,60.967,56.063,56.28z M37.286,37.362l-2.221-0.448c-4.476,6.932-2.174,21.305-0.132,27.86l2.105,0.249C34.911,59.096,32.405,43.293,37.286,37.362z M26.157,37.341c-1.68,12.274,0.884,21.893,3.07,26.756l2.347,0.282c-2.351-4.977-5.611-14.002-3.234-28.01	C27.27,36.636,26.826,36.879,26.157,37.341z"/><path fill="#e66f2e" stroke="#e66f2e" stroke-miterlimit="10" stroke-width=".5" d="M44.832,64.896	c0.095,0.505,0.126,0.638,0.233,1.129l1.978,0.239c-0.146-0.636-0.156-1.027-0.288-1.743c-1.017-5.465-0.748-8.912-0.336-9.874	c0.729,0.738,2.219,3.842,3.238,9.307c0.19,1.019,0.286,1.895,0.395,2.772l2.057,0.316c-0.122-1.084-0.314-2.314-0.529-3.463	c-0.365-1.955-2.338-11.686-5.554-11.044c-1.187,0.231-1.812,1.676-1.915,4.419C44.028,59.141,44.285,61.962,44.832,64.896z"/><path fill="#ef8630" d="M55.929,85.526c-11.846,0-29.615,1.974-33.563,1.974c-3.378-0.144-5.491-1.325-5.923-5.923v-13.82	c0-5.923,3.949-7.897,7.897-7.897h23.692c5.923,0,14.339,3.603,19.743,9.872c0,0,9.872,9.712,9.872,13.82	c0,3.949-3.949,3.949-3.949,3.949C69.815,87.5,59.878,85.526,55.929,85.526z"/><path fill="#e66f2e" stroke="#e66f2e" stroke-miterlimit="10" stroke-width=".5" d="M74.138,76.87	c-1.287,2.993-3.763,8.128-6.454,10.037c0.871,0.111,1.406,0.213,2.336,0.306c2.377-2.452,4.332-6.095,5.457-8.519	C75.121,78.169,74.709,77.621,74.138,76.87z M69.27,71.261c-0.618,6.576-4.053,12.363-5.654,15.078	c0.685,0.085,1.293,0.195,2.109,0.304c1.688-2.958,4.288-7.674,5.25-13.54C70.292,72.355,69.424,71.427,69.27,71.261z M64.452,66.497c-0.492-0.405-1.311-1.092-2.13-1.611c0.748,7.729-1.889,17.423-2.997,20.872c0.655,0.071,1.165,0.162,1.998,0.249	C62.506,82.272,64.792,74.027,64.452,66.497z M56.944,61.921c-0.73-0.312-1.53-0.63-2.251-0.859	c1.234,7.921,0.02,19.919-0.646,24.478l2.002-0.014C56.727,80.874,57.913,69.97,56.944,61.921z M51.645,74.491	c-3.169-8.827-9.291-14.436-13.943-12.766c-4.65,1.67-5.808,9.893-2.64,18.718c0.853,2.373,1.662,4.109,2.855,5.937l2.268-0.164	c-1.402-1.915-2.308-3.773-3.266-6.438c-2.703-7.526-2.039-14.942,1.449-16.193c0.344-0.122,0.705-0.184,1.08-0.184	c3.416,0,7.903,4.975,10.338,11.757c1.497,4.17,2.069,7.374,1.593,10.448l1.984-0.053C53.83,82.191,53.224,78.888,51.645,74.491z M29.465,59.86h-2.284c-3.112,7.571,1.899,21.017,5.165,26.955l2.13-0.17C31.246,81.33,25.764,66.543,29.465,59.86z M18.449,62.004	c0.669,12.191,5.036,20.989,8.124,25.265l2.375-0.184c-3.273-4.353-8.215-12.442-8.525-26.444	C19.416,61.105,19.021,61.429,18.449,62.004z"/><path fill="#e66f2e" stroke="#e66f2e" stroke-miterlimit="10" stroke-width=".5" d="M42.166,85.006	c0.19,0.472,0.245,0.592,0.444,1.046l2.004-0.154c-0.267-0.586-0.349-0.961-0.618-1.629c-2.045-5.084-2.434-8.468-2.209-9.479	c0.863,0.571,2.928,3.281,4.973,8.365c0.381,0.948,0.644,1.777,0.918,2.602l2.095-0.095c-0.328-1.025-0.75-2.174-1.181-3.246	c-0.732-1.818-4.535-10.841-7.595-9.593c-1.131,0.454-1.477,1.974-1.056,4.644C40.277,79.599,41.069,82.276,42.166,85.006z"/><path fill="none" stroke="#ef8630" stroke-miterlimit="10" stroke-width="3" d="M20.827,60.471	c1.095-0.427,2.304-0.612,3.513-0.612h23.692c5.923,0,14.339,3.603,19.743,9.872c0,0,1.037,1.02,2.438,2.539"/><path fill="none" stroke="#40396e" stroke-miterlimit="10" stroke-width="3" d="M20.827,60.471	c1.095-0.427,2.304-0.612,3.513-0.612h23.692c5.923,0,14.339,3.603,19.743,9.872c0,0,1.037,1.02,2.438,2.539" opacity=".35"/><path fill="none" stroke="#ef8630" stroke-miterlimit="10" stroke-width="3" d="M29.853,36.218c0.81-0.037,1.637,0.038,2.446,0.201	l23.048,4.642c5.763,1.161,13.26,6.397,17.319,13.7c0,0,1.114,1.642,2.452,3.932"/><path fill="none" stroke="#40396e" stroke-miterlimit="10" stroke-width="3" d="M29.853,36.218	c0.81-0.037,1.637,0.038,2.446,0.201l23.048,4.642c5.763,1.161,13.26,6.397,17.319,13.7c0,0,1.114,1.642,2.452,3.932" opacity=".35"/><path fill="none" stroke="#40396e" stroke-linecap="round" stroke-linejoin="round" stroke-miterlimit="10" stroke-width="3" d="M80.347,41.692c-2.051-7.958-7.972-14.876-13.263-17.494l-21.165-10.47c-3.915-2.17-7.929-1.737-10.555,3.524L29.24,29.528	c-1.273,3.296-0.75,5.227,0.906,6.682c-3.147,0.041-6.119,1.722-7.042,6.528l-2.644,13.765c-0.166,1.694-0.028,2.978,0.368,3.971	c-2.483,0.967-4.386,3.173-4.386,7.283v13.82c0.432,4.598,2.545,5.779,5.923,5.923c3.949,0,21.717-1.974,33.563-1.974	c3.949,0,13.885,1.974,17.769,1.974c0,0,3.949,0,3.949-3.949c0-2.778-4.51-8.114-7.434-11.281c1.9,0.649,3.61,1.167,4.816,1.349	c0,0,4.245,0.831,4.596-3.159c0.264-2.999-2.497-8.347-4.62-11.958c0.591,0.361,1.139,0.674,1.619,0.912	c0.034,0.032,5.09,1.495,6.458-1.017C85.033,54.813,80.347,41.692,80.347,41.692z"/></svg>