<svg xmlns="http://www.w3.org/2000/svg"  viewBox="0 0 100 100" width="50px" height="50px"><switch><g><path d="M89.5,16h-77C8.916,16,6,18.916,6,22.5v55c0,3.584,2.916,6.5,6.5,6.5h77c3.584,0,6.5-2.916,6.5-6.5v-55 C96,18.916,93.084,16,89.5,16z" opacity=".35"/><path fill="#f2f2f2" d="M87.5,14h-77C6.916,14,4,16.916,4,20.5v55c0,3.584,2.916,6.5,6.5,6.5h77 c3.584,0,6.5-2.916,6.5-6.5v-55C94,16.916,91.084,14,87.5,14z"/><rect width="78" height="26.325" x="10" y="48" fill="#de5147"/><rect width="78" height="26.325" x="10" y="21.675" fill="#2785bd"/><polygon fill="#f2f2f2" points="12,22 12,74 49,48"/><path fill="#40396e" d="M87.5,77h-77C9.672,77,9,76.328,9,75.5v-55c0-0.828,0.672-1.5,1.5-1.5h77 c0.828,0,1.5,0.672,1.5,1.5v55C89,76.328,88.328,77,87.5,77z M12,74h74V22H12V74z"/><circle cx="24.5" cy="48" r="4.765" fill="#ffc571"/><path fill="#ffc571" d="M24.5,39c-2.647,0-1.588,3.971,0,5.294C26.088,42.971,27.147,39,24.5,39z"/><path fill="#ffc571" d="M24.5,57c-2.647,0-1.588-3.971,0-5.294C26.088,53.029,27.147,57,24.5,57z"/><g><path fill="#ffc571" d="M15.5,48c0,2.647,3.971,1.588,5.294,0C19.471,46.412,15.5,45.353,15.5,48z"/><path fill="#ffc571" d="M33.5,48c0,2.647-3.971,1.588-5.294,0C29.529,46.412,33.5,45.353,33.5,48z"/></g><g><path fill="#ffc571" d="M18.136,54.364c1.872,1.872,3.931-1.685,3.744-3.744 C19.821,50.433,16.264,52.492,18.136,54.364z"/><path fill="#ffc571" d="M30.864,41.636c1.872,1.872-1.685,3.931-3.744,3.744 C26.933,43.321,28.992,39.764,30.864,41.636z"/><g><path fill="#ffc571" d="M30.864,54.364c1.872-1.872-1.685-3.931-3.744-3.744 C26.933,52.679,28.992,56.236,30.864,54.364z"/><path fill="#ffc571" d="M18.136,41.636c1.872-1.872,3.931,1.685,3.744,3.744 C19.821,45.567,16.264,43.508,18.136,41.636z"/></g></g><g><polygon fill="#ffc571" points="39.769,46.127 39.585,47.7 40.995,48.42 39.442,48.73 39.194,50.294 38.419,48.913 36.855,49.16 37.928,47.996 37.21,46.585 38.649,47.246"/><polygon fill="#ffc571" points="18.643,32.47 17.591,31.286 18.335,29.889 16.884,30.523 15.785,29.384 15.94,30.959 14.517,31.653 16.063,31.992 16.283,33.56 17.083,32.194"/><polygon fill="#ffc571" points="18.248,65.969 17.621,64.515 18.767,63.422 17.19,63.569 16.504,62.141 16.157,63.686 14.587,63.897 15.949,64.705 15.665,66.263 16.854,65.217"/></g></g></switch></svg>