<svg xmlns="http://www.w3.org/2000/svg"  viewBox="0 0 100 100" width="50px" height="50px"><g id="Слой_2"><path d="M88.625,40.592l2.896-1.995c1.757-1.211,2.974-3.109,3.341-5.209c0.367-2.102-0.134-4.302-1.374-6.035 l-11.09-15.507c-1.484-2.077-3.932-3.318-6.548-3.318c-1.634,0-3.193,0.481-4.508,1.392l-1.647,1.136 c-0.144,0.099-0.239,0.158-0.295,0.191c-0.199,0.022-0.605,0.042-0.94,0.058c-2.486,0.12-6.646,0.321-11.649,3.772 c-5.022,3.49-6.663,7.291-7.643,9.562c-0.128,0.297-0.284,0.657-0.368,0.819c-0.048,0.041-0.144,0.118-0.31,0.234 c-0.118,0.081-0.201,0.132-0.253,0.162c-0.199,0.022-0.604,0.042-0.938,0.058c-2.485,0.119-6.647,0.318-11.654,3.774 c-5.031,3.519-6.726,7.445-7.637,9.555c-0.128,0.296-0.28,0.65-0.369,0.826c-0.051,0.042-0.139,0.109-0.279,0.205 c-0.138,0.095-0.23,0.152-0.285,0.184c-0.198,0.022-0.601,0.042-0.934,0.058c-2.482,0.118-6.642,0.315-11.645,3.766l-1.058,0.73 c-2.165,1.496-3.456,3.957-3.456,6.585l0,19.391c0,2.106,0.854,4.167,2.343,5.657s3.551,2.343,5.657,2.343h2.966 c0.053,0.036,0.107,0.073,0.16,0.109c1.908,1.296,5.864,3.982,12.356,4.09c0.017,0,0.034,0,0.051,0.001l0.309,0.002 c6.049,0,9.92-2.312,11.883-3.549c1.97,1.335,5.873,3.843,12.155,3.947c0.028,0,0.055,0.001,0.083,0.001h0.15 c6.169,0,10.044-2.315,12.005-3.551c1.971,1.335,5.874,3.845,12.16,3.951c0.028,0,0.056,0.001,0.084,0.001h3.638 c4.411,0,8-3.589,8-8v-19c0-4.411-3.589-8-8-8h-1.956c-0.126-0.003-0.213-0.008-0.269-0.012c-0.174-0.099-0.498-0.309-0.767-0.482 c-1.478-0.957-3.665-2.373-6.984-3.149c0.143-0.326,0.267-0.625,0.377-0.894C78.752,44.386,83.425,44.171,88.625,40.592z" opacity=".35"/><path fill="#f2f2f2" d="M86.625,38.592l2.896-1.995c1.757-1.211,2.974-3.109,3.341-5.209c0.367-2.102-0.134-4.302-1.374-6.035 L80.399,9.846c-1.484-2.077-3.932-3.318-6.548-3.318c-1.634,0-3.193,0.481-4.508,1.392l-1.647,1.136 c-0.144,0.099-0.239,0.158-0.295,0.191c-0.199,0.022-0.605,0.042-0.94,0.058c-2.486,0.12-6.646,0.321-11.649,3.772 c-5.022,3.49-6.663,7.291-7.643,9.562c-0.128,0.297-0.284,0.657-0.368,0.819c-0.048,0.041-0.144,0.118-0.31,0.234 c-0.118,0.081-0.201,0.132-0.253,0.162c-0.199,0.022-0.604,0.042-0.938,0.058c-2.485,0.119-6.647,0.318-11.654,3.774 c-5.031,3.519-6.726,7.445-7.637,9.555c-0.128,0.296-0.28,0.65-0.369,0.826c-0.051,0.042-0.139,0.109-0.279,0.205 c-0.138,0.095-0.23,0.152-0.285,0.184c-0.198,0.022-0.601,0.042-0.934,0.058c-2.482,0.118-6.642,0.315-11.645,3.766l-1.058,0.73 c-2.165,1.496-3.456,3.957-3.456,6.585l0,19.391c0,2.106,0.854,4.167,2.343,5.657s3.551,2.343,5.657,2.343h2.966 c0.053,0.036,0.107,0.073,0.16,0.109c1.908,1.296,5.864,3.982,12.356,4.09c0.017,0,0.034,0,0.051,0.001l0.309,0.002 c6.049,0,9.92-2.312,11.883-3.549c1.97,1.335,5.873,3.843,12.155,3.947c0.028,0,0.055,0.001,0.083,0.001h0.15 c6.169,0,10.044-2.315,12.005-3.551c1.971,1.335,5.874,3.845,12.16,3.951c0.028,0,0.056,0.001,0.084,0.001h3.638 c4.411,0,8-3.589,8-8v-19c0-4.411-3.589-8-8-8h-1.956c-0.126-0.003-0.213-0.008-0.269-0.012c-0.174-0.099-0.498-0.309-0.767-0.482 c-1.478-0.957-3.665-2.373-6.984-3.149c0.143-0.326,0.267-0.625,0.377-0.894C76.752,42.386,81.425,42.171,86.625,38.592z"/><path fill="#f2f2f2" d="M73.909,14.513l-1.653,1.141c-2.172,1.499-3.593,1.568-5.39,1.655c-2.049,0.098-4.37,0.211-7.491,2.364 c-3.113,2.162-4.037,4.277-4.845,6.15c-0.71,1.643-1.289,2.933-3.442,4.441c-2.17,1.498-3.589,1.566-5.385,1.653 c-2.048,0.098-4.369,0.209-7.488,2.362c-3.085,2.158-4.036,4.275-4.844,6.147c-0.709,1.644-1.268,2.936-3.441,4.439 c-2.17,1.498-3.589,1.567-5.386,1.653c-2.048,0.098-4.368,0.21-7.487,2.361L16,49.609v1.265l1.7,2.433l1.653-1.141 c2.17-1.498,3.588-1.566,5.385-1.652c2.048-0.099,4.369-0.21,7.487-2.363c3.078-2.161,4.036-4.275,4.844-6.147 c0.709-1.644,1.264-2.954,3.441-4.439c2.17-1.498,3.589-1.566,5.385-1.653c2.048-0.098,4.369-0.209,7.488-2.362 c3.11-2.153,4.036-4.276,4.845-6.149c0.71-1.644,1.269-2.929,3.443-4.441c2.172-1.499,3.593-1.568,5.39-1.655 c2.049-0.099,4.37-0.211,7.491-2.364l1.696-1.184L73.909,14.513z"/><path fill="#de5147" d="M85,30.022l-2.894,1.994c-3.388,2.333-6.116,2.404-8.109,2.455c-1.633,0.042-2.619,0.068-4.278,1.212 c-1.647,1.152-2.029,2.052-2.642,3.557c-0.747,1.836-1.785,4.315-5.157,6.685c-3.387,2.333-6.115,2.403-8.107,2.454 c-1.631,0.042-2.617,0.067-4.273,1.209C47.878,50.736,51.612,53.495,51,55c-0.73,1.795-5.826,2.381-9.034,4.669 c-0.074,0.053-0.149,0.105-0.225,0.158c-3.386,2.333-6.114,2.402-8.106,2.454c-1.632,0.042-2.617,0.067-4.274,1.209l-2.895,1.993 l-4.013-5.753l2.894-1.994c3.386-2.332,6.114-2.402,8.106-2.453c1.632-0.042,2.617-0.067,4.273-1.21 c1.645-1.158,2.029-2.051,2.641-3.555c0.746-1.837,1.747-4.337,5.157-6.684c3.386-2.333,6.114-2.402,8.107-2.453 c1.631-0.042,2.617-0.067,4.273-1.209c1.642-1.138,2.029-2.052,2.642-3.557c0.748-1.836,1.792-4.329,5.158-6.685 c3.388-2.333,6.117-2.404,8.109-2.455c1.633-0.042,2.619-0.068,4.278-1.212l2.864-1.985L85,30.022z"/><path fill="#de5147" d="M79.759,22.611l-2.861,2.041c-3.348,2.389-6.075,2.503-8.067,2.587c-1.632,0.069-2.617,0.11-4.257,1.28 s-1.995,2.084-2.582,3.6c-0.718,1.848-1.699,4.379-5.047,6.767c-3.347,2.388-6.074,2.502-8.064,2.586 c-1.63,0.068-2.615,0.109-4.252,1.277c-1.639,1.169-1.993,2.083-2.58,3.597c-0.717,1.848-1.698,4.379-5.045,6.767 c-3.347,2.388-6.074,2.502-8.064,2.586c-1.63,0.068-2.615,0.109-4.252,1.277l-2.861,2.041l-4.108-5.686l2.861-2.041 c3.347-2.388,6.073-2.502,8.064-2.585c1.631-0.068,2.615-0.11,4.253-1.278c1.638-1.169,1.993-2.083,2.58-3.597 c0.717-1.848,1.698-4.379,5.045-6.767c3.347-2.388,6.073-2.502,8.064-2.585c1.63-0.068,2.615-0.109,4.253-1.278 c1.64-1.17,1.995-2.084,2.582-3.599c0.717-1.848,1.699-4.38,5.047-6.768c3.348-2.389,6.075-2.503,8.067-2.587 c1.632-0.069,2.617-0.11,4.257-1.28l2.861-2.041L79.759,22.611z"/><path fill="#f2f2f2" d="M81.541,25.09l-1.707,1.161c-3.12,2.153-5.442,2.266-7.491,2.364c-1.797,0.087-3.218,0.156-5.39,1.655 c-2.189,1.491-2.733,2.796-3.443,4.441c-0.809,1.873-1.749,3.978-4.845,6.149c-3.118,2.152-5.44,2.264-7.488,2.362 c-1.797,0.087-3.215,0.155-5.385,1.653c-2.17,1.495-2.732,2.795-3.441,4.44c-0.808,1.873-1.768,3.984-4.844,6.148 c-3.119,2.153-5.44,2.264-7.487,2.363c-1.797,0.086-3.215,0.154-5.385,1.652l-1.653,1.141l-2.296-3.286l1.653-1.141 c3.118-2.151,5.439-2.264,7.487-2.361c1.797-0.087,3.216-0.155,5.386-1.653c2.179-1.495,2.732-2.796,3.441-4.439 c0.808-1.873,1.757-3.992,4.844-6.148c3.118-2.152,5.44-2.264,7.488-2.362c1.797-0.087,3.215-0.155,5.385-1.653 c2.159-1.499,2.733-2.797,3.442-4.441c0.809-1.873,1.743-3.972,4.845-6.15c3.12-2.153,5.442-2.266,7.491-2.364 c1.797-0.087,3.218-0.156,5.39-1.655l1.653-1.141L81.541,25.09z"/><polygon fill="#f2f2f2" points="84,55.031 83.42,55.016 83.42,59.017 83.963,59.031"/><path d="M43.878,47.401L43.666,47.4c-4.57,0-7.198,1.576-8.937,2.619c-1.353,0.812-1.969,1.182-3.643,1.182 L30.932,51.2c-1.773-0.028-2.392-0.426-3.749-1.298c-1.531-0.985-3.551-2.259-6.828-2.718c-1,0.339-2.087,0.861-3.297,1.696 L16,49.609V50h2.075l0.943,0.053c3.177,0.237,4.955,1.358,6.524,2.368c1.51,0.971,2.703,1.737,5.345,1.778 c0.067,0.001,0.132,0.001,0.197,0.001c2.511,0,3.702-0.712,5.203-1.614C38.018,51.55,40,50.4,43.666,50.4 c0.055,0,0.11,0,0.165,0.001c1.693,0.026,5.067,2.217,6.169,2.6c0.365-0.499-1.215-2.891-0.462-3.412 c0.395-0.272,0.749-0.477,1.086-0.638C48.997,48.143,46.881,47.447,43.878,47.401z" opacity=".35"/><g><path fill="#f4665c" d="M84,74h-3.613c-4.094-0.068-6.337-1.592-7.975-2.705c-1.343-0.912-2.154-1.463-4.159-1.495 c-2.001-0.019-2.834,0.491-4.206,1.358c-1.673,1.059-3.956,2.471-8.059,2.441c-4.093-0.067-6.335-1.592-7.973-2.705 c-1.341-0.911-2.151-1.462-4.153-1.494c-2.009-0.03-2.832,0.489-4.204,1.357c-1.635,1.035-3.861,2.443-7.784,2.443 c-0.091,0-0.182-0.001-0.274-0.002c-4.092-0.067-6.335-1.592-7.972-2.704c-1.341-0.912-2.151-1.463-4.154-1.495H16v-7h3.589 c4.092,0.068,6.334,1.592,7.971,2.705c1.341,0.911,2.151,1.462,4.154,1.494c2.002,0.013,2.832-0.49,4.204-1.357 c1.673-1.06,3.939-2.511,8.058-2.441c4.093,0.067,6.335,1.592,7.972,2.705c1.341,0.911,2.151,1.462,4.153,1.494 c1.989,0.027,2.834-0.491,4.206-1.358c1.674-1.058,3.97-2.479,8.06-2.441c4.095,0.068,6.338,1.592,7.976,2.705 c1.343,0.912,2.154,1.463,4.159,1.495L84,67.059V74z"/><path fill="#f4665c" d="M84,65h-3.523c-4.094,0-6.362-1.487-8.018-2.573C71.102,61.537,70.283,61,68.277,61 c-2.006,0-2.825,0.537-4.182,1.428C62.439,63.513,60.171,65,56.077,65c-4.093,0-6.36-1.487-8.015-2.573 C46.706,61.537,45.888,61,43.885,61c-2.004,0-2.823,0.537-4.179,1.427C38.051,63.513,35.783,65,31.69,65s-6.36-1.487-8.015-2.573 C22.319,61.537,21.501,61,19.499,61H16v-7h3.499c4.093,0,6.36,1.487,8.014,2.573C28.869,57.463,29.687,58,31.69,58 c2.004,0,2.822-0.537,4.179-1.427C37.524,55.487,39.792,54,43.885,54c4.093,0,6.36,1.487,8.015,2.573 C53.256,57.463,54.074,58,56.077,58c2.005,0,2.825-0.537,4.182-1.427C61.915,55.487,64.182,54,68.277,54 c4.094,0,6.362,1.487,8.018,2.573C77.652,57.463,78.471,58,80.477,58H84V65z"/><path fill="#f2f2f2" d="M84,68h-2.086c-3.773-0.06-5.712-1.313-7.423-2.421c-1.501-0.971-2.688-1.738-5.314-1.779 c-2.636-0.058-3.836,0.688-5.367,1.612c-1.744,1.053-3.73,2.218-7.495,2.188c-3.771-0.059-5.709-1.313-7.419-2.421 c-1.5-0.971-2.685-1.737-5.31-1.778c-2.623-0.043-3.834,0.688-5.365,1.612c-1.744,1.053-3.749,2.212-7.493,2.187 c-3.772-0.059-5.709-1.313-7.42-2.42c-1.5-0.972-2.685-1.738-5.309-1.779H16l0-4h2.062c3.771,0.06,5.709,1.313,7.418,2.421 c1.5,0.971,2.686,1.737,5.31,1.778c2.63,0.049,3.835-0.688,5.365-1.612c1.744-1.053,3.745-2.225,7.493-2.187 c3.771,0.059,5.709,1.313,7.419,2.421c1.5,0.971,2.685,1.737,5.31,1.778c2.616,0.033,3.836-0.688,5.367-1.612 c1.744-1.053,3.722-2.216,7.495-2.188c3.773,0.06,5.712,1.313,7.423,2.421c1.501,0.971,2.688,1.738,5.314,1.779l1.999,0.031 L84,68z"/><path fill="#f2f2f2" d="M84,59h-2.086c-3.773-0.06-5.712-1.313-7.423-2.421c-1.501-0.971-2.688-1.738-5.314-1.779 c-2.636-0.031-3.836,0.688-5.367,1.612c-1.744,1.053-3.73,2.24-7.495,2.188c-3.771-0.059-5.709-1.313-7.419-2.421 c-1.5-0.971-2.685-1.737-5.31-1.778c-2.623-0.055-3.834,0.688-5.365,1.612c-1.744,1.053-3.749,2.215-7.493,2.187 c-3.772-0.059-5.709-1.313-7.42-2.42c-1.5-0.972-2.685-1.738-5.309-1.779L16,53.969L16,50h2.062 c3.771,0.06,5.709,1.313,7.418,2.421c1.5,0.971,2.686,1.737,5.31,1.778c2.63,0.038,3.835-0.688,5.365-1.612 c1.744-1.053,3.745-2.222,7.493-2.187c3.771,0.059,5.709,1.313,7.419,2.421c1.5,0.971,2.685,1.737,5.31,1.778 c2.616,0.023,3.836-0.688,5.367-1.612c1.744-1.053,3.722-2.235,7.495-2.188c3.773,0.06,5.712,1.313,7.423,2.421 c1.501,0.971,2.688,1.738,5.314,1.779H84V59z"/></g><g><path fill="#40396e" d="M83.983,76.986h-3.638c-5.017-0.084-7.909-2.05-9.637-3.225c-1.196-0.812-1.411-0.958-2.51-0.976 c-1.143-0.035-1.422,0.171-2.565,0.894c-1.72,1.088-4.595,2.906-9.538,2.906h-0.15c-5.015-0.083-7.908-2.05-9.636-3.226 c-1.194-0.811-1.408-0.956-2.511-0.974l-0.128-0.001c-1.015,0-1.23,0.137-2.424,0.894c-1.719,1.088-4.595,2.908-9.389,2.908 l-0.309-0.002c-5.001-0.083-7.896-2.049-9.624-3.223c-1.195-0.813-1.41-0.96-2.491-0.977h-3.45c-0.79,0-1.562-0.32-2.121-0.879 s-0.879-1.331-0.879-2.121l0-19.391c0-0.986,0.484-1.909,1.295-2.47l1.057-0.729c3.827-2.64,6.844-2.783,9.047-2.888 c1.668-0.081,2.359-0.114,3.824-1.125c1.467-1.016,1.738-1.644,2.392-3.16c0.814-1.886,2.043-4.734,5.887-7.423 c3.83-2.644,6.849-2.789,9.054-2.895c1.67-0.081,2.361-0.114,3.819-1.119c1.48-1.037,1.769-1.705,2.4-3.167 c0.868-2.01,2.057-4.763,5.892-7.428c3.828-2.641,6.847-2.787,9.051-2.894c1.675-0.081,2.366-0.114,3.833-1.127l1.654-1.141 c1.295-0.896,3.228-0.559,4.144,0.724l11.091,15.508c0,0.001,0,0.001,0,0.001c0.465,0.649,0.652,1.475,0.515,2.263 c-0.138,0.787-0.594,1.499-1.253,1.953l-2.895,1.994c-4.125,2.839-7.636,2.929-9.734,2.982c-1.464,0.039-1.728,0.046-2.645,0.678 c-0.935,0.654-1.033,0.894-1.574,2.224c-0.776,1.908-2.075,5.102-6.223,8.017c-0.581,0.399-1.149,0.745-1.703,1.044 c1.666-0.851,3.868-1.633,7.09-1.633l0.25,0.001c4.653,0.073,7.18,1.709,9.024,2.903c1.389,0.898,1.964,1.27,3.707,1.297h2 c1.654,0,3,1.346,3,3v19C86.983,75.64,85.637,76.986,83.983,76.986z M68.131,69.785c0.005,0,0.102,0.001,0.107,0.001 c2.003,0.031,2.813,0.582,4.156,1.494c1.638,1.113,3.88,2.638,7.976,2.706h3.613v-19h-2.023c-2.626-0.041-3.812-0.808-5.312-1.777 c-1.712-1.108-3.651-2.363-7.425-2.423l-0.226-0.001c-3.643,0-5.569,1.163-7.27,2.188c-1.437,0.867-2.674,1.613-5.242,1.613 l-0.125-0.001c-2.625-0.041-3.81-0.808-5.31-1.777c-0.376-0.244-0.796-0.517-1.277-0.791c-0.453-0.258-0.739-0.731-0.757-1.252 s0.235-1.014,0.669-1.302c1.555-1.032,2.571-1.059,4.108-1.098c1.993-0.052,4.721-0.121,8.108-2.455 c3.415-2.399,4.422-4.876,5.158-6.685c0.607-1.49,0.973-2.39,2.642-3.557c1.659-1.145,2.645-1.17,4.278-1.212 c1.992-0.052,4.72-0.121,8.11-2.455l4.114-2.867l-1.22,0.873L73.892,14.5l-1.653,1.141c-2.171,1.499-3.59,1.567-5.387,1.654 c-2.052,0.1-4.373,0.212-7.493,2.364c-3.129,2.174-4.041,4.286-4.846,6.15c-0.702,1.626-1.256,2.909-3.441,4.44 c-2.171,1.497-3.589,1.565-5.385,1.652c-2.05,0.099-4.371,0.21-7.488,2.362c-3.138,2.194-4.084,4.386-4.844,6.147 c-0.707,1.639-1.265,2.934-3.441,4.439c-2.171,1.498-3.59,1.566-5.386,1.653c-2.047,0.098-4.365,0.208-7.487,2.36l-1.056,0.729 l0,19.392h3.474c2.002,0.032,2.812,0.583,4.153,1.495c1.637,1.112,3.881,2.637,7.972,2.704l0.284,0.002 c3.914,0,6.145-1.412,7.774-2.443c1.337-0.847,2.145-1.358,4.04-1.358l0.152,0.001c2.012,0.031,2.821,0.581,4.161,1.491 c1.641,1.115,3.883,2.641,7.977,2.708h0.125c4.073,0,6.304-1.41,7.932-2.44C65.324,70.326,66.179,69.785,68.131,69.785z"/></g></g></svg>