<svg xmlns="http://www.w3.org/2000/svg"  viewBox="0 0 100 100" width="50px" height="50px"><path d="M60.5,97c-0.773,0-15.354,0-16,0c-2.875,0-5.373-1.848-6.216-4.597 c-0.508-1.663-0.339-3.422,0.476-4.955C39.397,86.25,41.314,83.1,42.5,82.5c-4.308-1.608-8.93-4.753-10.86-6.713 c-10.724-2.91-15.812-4.645-16.428-5.505c-1.347-1.887-1.587-4.306-0.661-6.403c-7.241-6.665-8.893-14.567-8.529-18.919 c0.198-2.386,1.712-4.478,3.894-5.424c-0.288-5.022,1.044-9.222,1.286-9.938c0.86-2.537,3.143-4.265,5.815-4.405 c0.087-0.004,0.259-0.009,0.346-0.009c0.263,0,0.523,0.016,0.78,0.047c0.705-1.83,1.724-3.723,3.156-5.631 c1.219-1.627,3.162-2.601,5.195-2.601c0.407,0,0.815,0.039,1.215,0.115c2.411,0.443,1.527,3.676,2.211,6.066 C31.478,28.481,39.48,38,45.5,38c2.962,0,5.15-3.746,8.4-9.915c2.013-3.819,4.249-8.062,7.398-11.401 c0.034-5.217,2.573-9.229,6.875-10.556c0.881-0.27,1.785-0.405,2.696-0.405c0.771,0,1.549,0.098,2.322,0.292 c1.388-0.736,2.938-1.123,4.572-1.123c0.714,0,1.446,0.076,2.175,0.225c2.942,0.599,3.593,2.914,4.96,5.288 c0.289,0.501,1.555,0.076,2.026,0.63c1.189,0.984,2.506,2.541,3.044,4.081c0.775,2.218,0.637,4.567-0.385,6.642 C91.003,23.796,92,26.404,92,29.5c0,2.008-0.952,3.937-2.546,5.158c-0.583,0.447-1.239,0.79-1.934,1.017 c-0.474,3.414-2.628,6.179-5.583,7.371c0.954,2.474,1.888,5.625,1.888,9.723c0,15.113-9.41,21.819-18.826,25.222 c-1.068,1.496-2.721,2.446-5,4.146v1.459c1.121,0.25,2.05,0.544,2.769,0.812c3.359,1.253,5.073,5.003,3.822,8.36 C65.648,95.3,63.2,97,60.5,97z" opacity=".35"/><path fill="#f2f2f2" d="M58.5,95c-0.773,0-15.354,0-16,0c-2.875,0-5.373-1.848-6.216-4.597 c-0.508-1.663-0.339-3.422,0.476-4.955c0.637-1.198,1.608-2.146,2.794-2.745c-4.308-1.608-7.583-3.382-9.513-5.343 c-10.724-2.91-16.213-8.218-16.829-9.079c-1.347-1.887-1.587-4.306-0.661-6.403c-7.241-6.665-8.893-14.567-8.529-18.919 c0.198-2.386,1.712-4.478,3.894-5.424c-0.288-5.022,1.044-9.222,1.286-9.938c0.86-2.537,3.143-4.265,5.815-4.405 c0.087-0.004,0.259-0.009,0.346-0.009c0.263,0,0.523,0.016,0.78,0.047c0.705-1.83,1.724-3.723,3.156-5.631 c1.219-1.627,3.162-2.601,5.195-2.601c0.407,0,0.815,0.039,1.215,0.115c2.411,0.443,4.354,2.207,5.038,4.597 C32.306,25.012,37.48,36,43.5,36c2.962,0,5.15-3.746,8.4-9.915c2.013-3.819,4.249-8.062,7.398-11.401 c0.034-5.217,2.573-9.229,6.875-10.556c0.881-0.27,1.785-0.405,2.696-0.405c0.771,0,1.549,0.098,2.322,0.292 c1.388-0.736,2.938-1.123,4.572-1.123c0.714,0,1.446,0.076,2.175,0.225c2.942,0.599,5.318,2.237,6.685,4.611 c0.289,0.501,0.529,1.024,0.718,1.567c1.189,0.984,2.089,2.281,2.627,3.82c0.775,2.218,0.637,4.567-0.385,6.642 C89.003,21.796,90,24.404,90,27.5c0,2.008-0.952,3.937-2.546,5.158c-0.583,0.447-1.239,0.79-1.934,1.017 c-0.474,3.414-2.628,6.179-5.583,7.371c0.954,2.474,1.888,5.625,1.888,9.723c0,15.113-9.41,21.819-18.826,25.222 c-1.068,1.496-2.721,3.446-5,5.146v0.459c1.121,0.25,2.05,0.544,2.769,0.812c3.359,1.253,5.073,5.003,3.822,8.36 C63.648,93.3,61.2,95,58.5,95z"/><polygon fill="#ff7575" points="66,20 66.127,12.431 68.089,10.34 71.08,10.989 72.364,12.049 75.103,9.463 77,10 79,12 79,14.281 81.834,15.262 80.305,18.022 78,19 81,22 83.483,27.021 77.279,26.825 79,32 78,35 74.741,35.225 71.88,31.36"/><path fill="#ffe385" d="M46.5,77c-7.975,0-11.552-3.994-11.701-4.249l-0.597-0.155l-0.64-0.303 c-5.874-1.175-9.711-4.481-11.911-6.564c3.24-0.594,4.267-2.106,4.462-2.302l0.27-1.315l-0.281-0.986 c-10.028-4.388-12.956-10.703-13.792-14.433c1.652,0.855,3.191,1.082,4.36,1.082c1.4,0,2.34-0.329,2.442-0.367l0.158-1.139 l0.261-1.443c-3.674-2.927-3.896-7.717-3.507-11.021C19.01,37.858,22.088,38,22.5,38l0.646-0.764l0.525-1.673 c-0.105-0.141-2.685-4.418,0.351-11.237C26.411,30.524,32.757,44,43.5,44c7.912,0,11.684-7.274,15.332-14.31 C62.216,23.164,65.412,17,71.5,17c0.666,0,6.5,0.126,6.5,4.5c0,2.955-1.671,3.982-3.788,5.282c-1.877,1.153-3.66,1.645-3.66,4.774 c0,4.14,0.42,7.528,1.361,9.892c0.983,2.47,1.912,4.804,1.912,9.321c0,16.839-14.22,21.891-14.898,22.022l-0.726,0.141 l-0.331,0.661C57.837,73.663,52.472,77,46.5,77z"/><path fill="none" stroke="#40396e" stroke-linecap="round" stroke-linejoin="round" stroke-miterlimit="10" stroke-width="3" d="M83.5,27.5c0-3.202-2.092-5.565-4.027-6.379c-0.059-0.989-0.267-1.498-0.634-2.213c1.468-0.398,3.688-1.661,2.994-3.645 c-0.617-1.765-2.632-1.503-2.632-1.503s1.182-3.511-2.564-4.274c-3.254-0.663-4.274,2.564-4.274,2.564s-2.156-2.363-4.274-1.71 c-3.368,1.039-2.005,6.959-2.005,6.959l0.017,0.002C57.197,23.762,55.42,42.5,43.5,42.5c-13,0-19-21-19-21c-5.803,7.736-2,15-2,15 s-4,0-7.14-6.817c0,0-3.669,10.817,3.236,16.317c0,0-4.096,1.5-8.096-2.5c0,0-1,12,15,19c0,0-2,2-7,2c0,0,5,7,15,9 c0,0,5.522,5,13,5c8.348,0,12.271-6,12.271-6s16.554-3.461,16.554-21.73c0-9.27-6.169-11.657-3.103-20.511 c0.333,1.97,1.906,4.921,4.417,4.921c1.36,0,2.478-1.264,2.478-2.933c0-3.037-1.694-4.255-2.57-5.2 C78.427,26.135,83.5,27.5,83.5,27.5z"/><path fill="#f9b84f" d="M25,47.537c0,0,1.304,2.581,10.756,2.581s12.794-6.129,21.676-6.129 c8.067,0,9.534,5.242,9.534,9.274c0,3.71-3.504,14.951-14.179,14.951l2.689-4.951c0,0-9.371,8.064-23.794-1.21l6.926-2.661 C38.608,59.391,25,56.73,25,47.537z"/><circle cx="72" cy="22" r="2" fill="#40396e"/><line x1="46.5" x2="46.5" y1="78.5" y2="87.5" fill="none" stroke="#40396e" stroke-linecap="round" stroke-linejoin="round" stroke-miterlimit="10" stroke-width="3"/><path fill="none" stroke="#40396e" stroke-linecap="round" stroke-linejoin="round" stroke-miterlimit="10" stroke-width="3" d="M42.5,88.5c1.313-0.401,2.932-1,5-1c2.567,0,4.623,0.487,6,1"/><line x1="51.5" x2="51.5" y1="78.09" y2="87.5" fill="none" stroke="#40396e" stroke-linecap="round" stroke-linejoin="round" stroke-miterlimit="10" stroke-width="3"/><path fill="none" stroke="#40396e" stroke-linecap="round" stroke-linejoin="round" stroke-miterlimit="10" stroke-width="3" d="M50.432,87.696c0.635-0.118,1.322-0.196,2.068-0.196c2.567,0,4.623,0.487,6,1"/></svg>