<svg xmlns="http://www.w3.org/2000/svg"  viewBox="0 0 100 100" width="100px" height="100px"><path fill="#1d1d1b" d="M77,27.009V14.5c0-2.242-1.132-4.296-3.034-5.499C72.927,8.346,71.728,8,70.499,8	c-0.964,0-1.934,0.22-2.789,0.63l-3.516,1.671l-2.793-1.515C60.453,8.273,59.381,8,58.303,8c-0.987,0-1.978,0.23-2.86,0.663	l-3.348,1.642l-2.98-1.559c-0.928-0.488-1.974-0.747-3.022-0.747c-1.014,0-2.029,0.243-2.942,0.704l-3.243,1.646L36.3,8.634	C35.432,8.22,34.464,8,33.501,8c-1.228,0-2.426,0.346-3.474,1.006C28.132,10.205,27,12.258,27,14.5v12.509	c-7.765,0.265-14,6.663-14,14.491v46c0,3.584,2.916,6.5,6.5,6.5h65c3.584,0,6.5-2.916,6.5-6.5v-46	C91,33.672,84.765,27.274,77,27.009z" opacity=".35"/><path fill="#f2f2f2" d="M75,25.009V12.5c0-2.242-1.132-4.296-3.034-5.499C70.927,6.346,69.728,6,68.499,6	c-0.964,0-1.934,0.22-2.789,0.63l-3.516,1.671l-2.793-1.515C58.453,6.273,57.381,6,56.303,6c-0.987,0-1.978,0.23-2.86,0.663	l-3.348,1.642l-2.98-1.559c-0.928-0.488-1.974-0.747-3.022-0.747c-1.014,0-2.029,0.243-2.942,0.704l-3.243,1.646L34.3,6.634	C33.432,6.22,32.464,6,31.501,6c-1.228,0-2.426,0.346-3.474,1.006C26.132,8.205,25,10.258,25,12.5v12.509	c-7.765,0.265-14,6.663-14,14.491v46c0,3.584,2.916,6.5,6.5,6.5h65c3.584,0,6.5-2.916,6.5-6.5v-46	C89,31.672,82.765,25.274,75,25.009z"/><path fill="#707cc0" d="M74.5,31.5h-49c-4.418,0-8,3.582-8,8v46h65v-46C82.5,35.082,78.918,31.5,74.5,31.5z"/><rect width="9" height="9" x="26" y="69" fill="#d9eeff"/><rect width="9" height="9" x="39" y="69" fill="#d9eeff"/><rect width="9" height="9" x="65" y="69" fill="#ff7575"/><rect width="9" height="9" x="52" y="69" fill="#d9eeff"/><rect width="48" height="9" x="26" y="54" fill="#96c362"/><polygon fill="#d9eeff" points="67,48 67,31.5 68.5,31.5 68.5,12.5 61.935,15.59 56.328,12.5 50,15.59 44.141,12.5 38.065,15.59 31.5,12.5 31.5,31.5 33,31.5 33,48"/><path fill="#40396e" d="M67,48h5c1.105,0,2-0.895,2-2v-4c0-1.105-0.895-2-2-2h-5V48z"/><path fill="#40396e" d="M28,48h5v-8h-5c-1.105,0-2,0.895-2,2v4C26,47.105,26.895,48,28,48z"/><rect width="34" height="3" x="33" y="45" fill="#40396e" opacity=".35"/><g><path fill="#70bfff" d="M60.5,25h-3c-0.828,0-1.5-0.672-1.5-1.5s0.672-1.5,1.5-1.5h3c0.828,0,1.5,0.672,1.5,1.5 S61.328,25,60.5,25z"/><path fill="#70bfff" d="M50.5,25h-11c-0.828,0-1.5-0.672-1.5-1.5s0.672-1.5,1.5-1.5h11c0.828,0,1.5,0.672,1.5,1.5 S51.328,25,50.5,25z"/><path fill="#70bfff" d="M60.5,32h-3c-0.828,0-1.5-0.672-1.5-1.5s0.672-1.5,1.5-1.5h3c0.828,0,1.5,0.672,1.5,1.5 S61.328,32,60.5,32z"/><path fill="#70bfff" d="M46.5,32h-7c-0.828,0-1.5-0.672-1.5-1.5s0.672-1.5,1.5-1.5h7c0.828,0,1.5,0.672,1.5,1.5 S47.328,32,46.5,32z"/><path fill="#70bfff" d="M60.5,39h-3c-0.828,0-1.5-0.672-1.5-1.5s0.672-1.5,1.5-1.5h3c0.828,0,1.5,0.672,1.5,1.5 S61.328,39,60.5,39z"/><path fill="#70bfff" d="M48.5,39h-9c-0.828,0-1.5-0.672-1.5-1.5s0.672-1.5,1.5-1.5h9c0.828,0,1.5,0.672,1.5,1.5 S49.328,39,48.5,39z"/></g><path fill="#40396e" d="M82.5,87h-65c-0.828,0-1.5-0.672-1.5-1.5v-46c0-5.238,4.262-9.5,9.5-9.5H30V12.5	c0-0.515,0.264-0.993,0.699-1.269c0.435-0.273,0.98-0.308,1.444-0.086l5.835,2.773l5.434-2.757c0.435-0.22,0.945-0.217,1.374,0.009	l5.235,2.737l5.621-2.755c0.436-0.214,0.948-0.203,1.375,0.028l5.027,2.727l5.812-2.763c0.463-0.222,1.009-0.188,1.444,0.086	C69.736,11.507,70,11.986,70,12.5V30h4.5c5.238,0,9.5,4.262,9.5,9.5v46C84,86.329,83.328,87,82.5,87z M19,84h62V39.5	c0-3.584-2.916-6.5-6.5-6.5h-6c-0.828,0-1.5-0.672-1.5-1.5V14.874l-4.356,2.07c-0.431,0.206-0.938,0.192-1.358-0.036l-5.018-2.721	l-5.607,2.749c-0.429,0.211-0.933,0.204-1.355-0.018l-5.225-2.731l-5.401,2.74c-0.414,0.211-0.904,0.216-1.322,0.017L33,14.874V31.5	c0,0.828-0.672,1.5-1.5,1.5h-6c-3.584,0-6.5,2.916-6.5,6.5V84z"/></svg>