<svg xmlns="http://www.w3.org/2000/svg"  viewBox="0 0 100 100" width="50px" height="50px"><path d="M95.684,51.121L51.111,6.382c-2.169-2.179-5.056-3.381-8.151-3.387c-3.065,0-5.949,1.192-8.12,3.357 L6.518,34.594c-4.489,4.474-4.503,11.768-0.03,16.26l23.979,24.068c1.229,1.234,2.864,1.914,4.606,1.914 c1.317,0,2.589-0.394,3.674-1.138C39.412,75.241,40.191,75,41,75c-0.494,0.399-0.93,0.874-1.295,1.415 c-0.969,1.439-1.311,3.173-0.965,4.876c0.225,1.117,1.234,4.947,4.788,7.342c1.816,1.224,4.041,1.871,6.435,1.871 c0.397,0,0.745-0.021,1.06-0.047c0.11,1.562,0.773,3.017,1.909,4.136C53.744,95.393,56.727,98,60.999,98s7.256-2.606,8.074-3.412 c1.241-1.225,1.925-2.854,1.926-4.586c0-0.365-0.037-0.724-0.097-1.077c0.194,0.017,0.39,0.029,0.588,0.029 c0.012,0,0.034,0,0.046,0c1.14-0.008,5.093-0.269,8.121-3.297c3.012-3.013,3.284-6.964,3.296-8.125 c0.003-0.468-0.048-0.928-0.141-1.375c0.403,0.078,0.811,0.13,1.223,0.13c1.73,0,3.359-0.673,4.591-1.898l7.031-7.01 C100.143,62.904,100.155,55.611,95.684,51.121z" opacity=".35"/><path fill="#f2f2f2" d="M93.684,49.121L49.111,4.382c-2.169-2.179-5.056-3.381-8.151-3.387c-3.065,0-5.949,1.192-8.12,3.357 L4.518,32.594c-4.489,4.474-4.503,11.768-0.03,16.26l23.979,24.068c1.229,1.234,2.864,1.914,4.606,1.914 c1.317,0,2.589-0.394,3.674-1.138C37.412,73.241,38.191,73,39,73c-0.494,0.399-0.93,0.874-1.295,1.415 c-0.969,1.439-1.311,3.173-0.965,4.876c0.225,1.117,1.234,4.947,4.788,7.342c1.816,1.224,4.041,1.871,6.435,1.871 c0.397,0,0.745-0.021,1.06-0.047c0.11,1.562,0.773,3.017,1.909,4.136C51.744,93.393,54.727,96,58.999,96s7.256-2.606,8.074-3.412 c1.241-1.225,1.925-2.854,1.926-4.586c0-0.365-0.037-0.724-0.097-1.077c0.194,0.017,0.39,0.029,0.588,0.029 c0.012,0,0.034,0,0.046,0c1.14-0.008,5.093-0.269,8.121-3.297c3.012-3.013,3.284-6.964,3.296-8.125 c0.003-0.468-0.048-0.928-0.141-1.375c0.403,0.078,0.811,0.13,1.223,0.13c1.73,0,3.359-0.673,4.591-1.898l7.031-7.01 C98.143,60.904,98.155,53.611,93.684,49.121z"/><path fill="#f9b84f" d="M89.079,53.708L44.504,8.968c-1.949-1.958-5.117-1.964-7.074-0.013L9.105,37.198 c-1.954,1.949-1.96,5.112-0.013,7.068l23.98,24.07C34.759,67.179,36.8,66.5,39,66.5c4.206,0,7.824,2.479,9.5,6.05 c1.676-3.571,5.294-6.05,9.5-6.05s7.824,2.479,9.5,6.05c1.676-3.571,5.294-6.05,9.5-6.05c1.825,0,3.541,0.467,5.036,1.286 l7.03-7.01C91.021,58.828,91.027,55.664,89.079,53.708z"/><path fill="#fff" d="M57.79,37.37c-0.646-2.059-2.636-3.333-4.705-3.012l-4.171,0.648l-0.693-4.305 C47.877,28.566,46.092,27,44.001,27s-3.877,1.566-4.221,3.701l-0.693,4.307l-4.172-0.648c-2.069-0.321-4.058,0.952-4.705,3.012 c-0.646,2.06,0.24,4.301,2.096,5.299l3.743,2.014l-1.884,3.905c-0.934,1.937-0.379,4.29,1.313,5.563s4.025,1.093,5.516-0.426 l3.006-3.062l3.006,3.062c1.491,1.519,3.824,1.699,5.516,0.426c1.692-1.273,2.247-3.626,1.313-5.563l-1.885-3.907l3.743-2.014 C57.55,41.671,58.436,39.43,57.79,37.37z"/><circle cx="44" cy="42.273" r="3.818" fill="#ef8630"/><path fill="none" stroke="#40396e" stroke-linecap="round" stroke-linejoin="round" stroke-miterlimit="10" stroke-width="3" d="M89.079,53.708L44.504,8.968c-1.949-1.958-5.117-1.964-7.074-0.013L9.105,37.198c-1.954,1.949-1.96,5.112-0.013,7.068l23.98,24.07 C34.759,67.179,36.8,66.5,39,66.5c4.206,0,7.824,2.479,9.5,6.05c1.676-3.571,5.294-6.05,9.5-6.05s7.824,2.479,9.5,6.05 c1.676-3.571,5.294-6.05,9.5-6.05c1.825,0,3.541,0.467,5.036,1.286l7.03-7.01C91.021,58.828,91.027,55.664,89.079,53.708z"/><path fill="#40396e" d="M63.561,86.971C63.357,86.769,61.492,85,58.999,85c-2.492,0-4.357,1.769-4.561,1.971 c-0.584,0.576-0.584,1.483,0,2.058C54.642,89.231,56.508,91,58.999,91c2.492,0,4.358-1.769,4.562-1.971 C64.145,88.454,64.145,87.547,63.561,86.971z"/><path fill="#40396e" d="M50.357,81.696c-0.057-0.282-0.614-2.791-2.681-4.184c-2.066-1.393-4.601-0.968-4.884-0.915 c-0.806,0.151-1.313,0.903-1.15,1.707c0.057,0.282,0.615,2.791,2.681,4.183c2.066,1.393,4.602,0.969,4.884,0.916 C50.013,83.252,50.519,82.5,50.357,81.696z"/><path fill="#40396e" d="M69.502,81.953c0.287-0.002,2.857-0.069,4.62-1.832c1.762-1.762,1.829-4.332,1.831-4.619 c0.006-0.82-0.636-1.461-1.455-1.455c-0.287,0.002-2.857,0.071-4.619,1.832c-1.762,1.762-1.83,4.332-1.832,4.619 C68.04,81.317,68.681,81.959,69.502,81.953z"/><path fill="#40396e" d="M62.953,80.498c-0.002-0.287-0.069-2.857-1.832-4.62c-1.762-1.762-4.332-1.829-4.619-1.831 c-0.82-0.006-1.461,0.636-1.455,1.455c0.002,0.287,0.071,2.857,1.832,4.619c1.762,1.762,4.332,1.83,4.619,1.832 C62.317,81.959,62.958,81.318,62.953,80.498z"/></svg>