<svg xmlns="http://www.w3.org/2000/svg"  viewBox="0 0 100 100" width="50px" height="50px"><g id="Слой_2"><path d="M81.998,23.927C73.758,14.946,63.105,10,52,10s-21.758,4.946-29.998,13.927C14.487,32.118,10,42.869,10,52.686 c0,7.022,5.697,9.322,16,17.314l0.893,7.254c0.037,0.159,0.075,0.299,0.115,0.431c2.188,7.206,7.534,12.393,13.952,13.539 l6.806,1.213c1.271,0.227,2.571,0.342,3.862,0.342c1.291,0,2.591-0.115,3.864-0.343l7.043-1.256 c6.265-1.118,11.398-5.924,13.734-12.856c0.045-0.131,0.094-0.292,0.136-0.458l1.59-6.195C88.617,63.52,94,59.792,94,52.686 C94,42.869,89.513,32.118,81.998,23.927z" opacity=".35"/><path fill="#f2f2f2" d="M79.998,21.927C71.758,12.946,61.105,8,50,8s-21.758,4.946-29.998,13.927C12.487,30.118,8,40.869,8,50.686 c0,7.022,5.222,10.626,15.525,18.619l1.368,5.95c0.037,0.159,0.075,0.299,0.115,0.431c2.188,7.206,7.534,12.393,13.952,13.539 l6.806,1.213c1.271,0.227,2.571,0.342,3.862,0.342c1.291,0,2.591-0.115,3.864-0.343l7.043-1.256 c6.265-1.118,11.398-5.924,13.734-12.856c0.045-0.131,0.094-0.292,0.136-0.458l1.59-6.195C86.617,61.52,92,57.792,92,50.686 C92,40.869,87.513,30.118,79.998,21.927z"/><path fill="#707cc0" d="M59.13,81.305l-7.045,1.256c-1.632,0.291-3.285,0.291-4.916,0l-6.805-1.214 c-3.45-0.615-6.389-3.663-7.701-7.986L28,59h44l-5.313,14.771C65.308,77.864,62.45,80.713,59.13,81.305z"/><path d="M57.418,73.334c-2.09,1.722-4.71,2.656-7.418,2.656c-2.708,0-5.328-0.934-7.418-2.656 c-2.209-1.82-11.464-8.311-14.8-10.669L28.765,67c1.549,1.122,3.111,2.225,4.643,3.305c2.784,1.964,5.414,3.818,7.267,5.345 c2.615,2.154,5.927,3.341,9.325,3.341c3.399,0,6.711-1.186,9.325-3.341C61.179,74.123,67.216,69.964,70,68 c1.531-1.08-0.865-3.128,0.684-4.25C70.684,63.75,59.627,71.514,57.418,73.334z" opacity=".35"/><path fill="#9aa2e6" d="M85,50.779c0-16.647-15.67-35.706-35-35.706S15,34.132,15,50.779c0,5.143,6.286,9.589,13.186,13.668 l-0.404-1.782c3.005,2.124,10.796,7.591,13.93,9.987c0.073,0.055,0.143,0.109,0.214,0.164c0.25,0.193,0.476,0.371,0.648,0.512 c0.003,0.002,0.005,0.004,0.008,0.006c1.306,1.076,2.82,1.844,4.432,2.27c0.967,0.255,1.971,0.386,2.986,0.386 s2.018-0.131,2.986-0.386c1.612-0.425,3.126-1.194,4.432-2.27c0.001-0.001,0.002-0.002,0.004-0.003 c0.159-0.131,0.367-0.294,0.608-0.481c0.099-0.077,0.199-0.154,0.301-0.23c3.403-2.586,12.352-8.87,12.352-8.87 c-0.608,0.44-0.606,1.023-0.475,1.634C77.706,61.049,85,56.319,85,50.779z"/><g opacity=".35"><path fill="#40396e" d="M40.002,45c0.342,0,0.689-0.088,1.006-0.272c0.954-0.557,1.276-1.781,0.72-2.735L29.844,21.62 c-1.056,0.866-2.062,1.79-3.02,2.762l11.448,19.625C38.644,44.645,39.314,45,40.002,45z"/><path fill="#40396e" d="M59.992,44.728C60.309,44.912,60.656,45,60.998,45c0.688,0,1.358-0.355,1.729-0.992l11.072-18.98 c-0.939-0.998-1.933-1.946-2.974-2.84L59.272,41.992C58.716,42.946,59.038,44.171,59.992,44.728z"/><path fill="#40396e" d="M50,41c1.104,0,2-0.896,2-2V15.077C51.338,15.03,50.672,15,50,15s-1.338,0.03-2,0.077V39 C48,40.104,48.896,41,50,41z"/><path fill="#40396e" d="M33.999,53c0.603,0,1.199-0.271,1.592-0.788c0.669-0.879,0.5-2.134-0.379-2.803L18.56,36.722 c-0.549,1.308-1.014,2.634-1.393,3.967l15.621,11.902C33.15,52.867,33.576,53,33.999,53z"/><path fill="#40396e" d="M64.788,49.409c-0.879,0.669-1.048,1.924-0.379,2.803C64.803,52.729,65.398,53,66.001,53 c0.422,0,0.849-0.134,1.21-0.409l15.621-11.902c-0.378-1.333-0.844-2.659-1.393-3.967L64.788,49.409z"/></g><path fill="#40396e" d="M49.627,85.779c-0.996,0-2-0.089-2.984-0.265l-6.805-1.213c-4.558-0.813-8.407-4.671-10.046-10.068 c-0.01-0.032-0.019-0.066-0.026-0.1l-1.772-7.708c-1.414-1.022-2.826-1.974-4.196-2.896C18.003,59.629,13,56.26,13,50.686 C13,33.258,29.163,13,50,13s37,20.258,37,37.686c0,5.61-4.82,8.852-10.923,12.956c-1.455,0.979-2.955,1.987-4.491,3.095 l-2.025,7.887c-0.009,0.036-0.02,0.071-0.031,0.105c-1.744,5.176-5.435,8.738-9.873,9.53l-7.045,1.256 C51.627,85.69,50.623,85.779,49.627,85.779z M32.678,73.41c1.316,4.287,4.258,7.326,7.687,7.938l6.804,1.213 c1.624,0.29,3.295,0.289,4.917,0l7.044-1.256c3.329-0.595,6.145-3.39,7.54-7.483l2.146-8.355c0.086-0.337,0.287-0.633,0.568-0.838 c1.735-1.267,3.405-2.39,5.02-3.477C79.974,57.405,84,54.698,84,50.686C84,34.646,69.148,16,50,16S16,34.646,16,50.686 c0,3.978,4.18,6.793,9.473,10.355c1.54,1.037,3.132,2.109,4.745,3.294c0.29,0.213,0.493,0.522,0.574,0.873L32.678,73.41z M68.108,74.25h0.01H68.108z"/></g></svg>