<svg xmlns="http://www.w3.org/2000/svg"  viewBox="0 0 100 100" width="100px" height="100px" baseProfile="basic"><path d="M86.841,55.889c2.059,8.917-0.076,18.189-5.873,25.426C75.02,88.746,66.135,93,56.601,93H35.884 c-0.932,0-1.831-0.183-2.687-0.528c-0.91-0.366-1.723-0.905-2.416-1.594C28.148,88.272,5.134,64.871,5.167,46.875 c0.022-17.5,15.927-29.26,30.76-29.26C50.11,17.615,63.678,35.76,65,52c1.614-3.382,5.545-14.515,8.373-18.414 c1.04-1.443,2.07-2.649,3.012-3.737c2.828-3.285,3.998-4.641,3.413-11.071c-0.347-3.834,2.514-7.248,6.414-7.603 c0.195-0.011,0.39-0.022,0.585-0.022c3.673,0,6.696,2.735,7.021,6.365c1.127,12.299-3.229,17.371-6.739,21.452 c-0.802,0.926-1.571,1.809-2.275,2.789c-2.037,2.822-1.398,4.717,0.238,8.723c0.498,1.206,1.008,2.455,1.376,3.78 C86.57,54.812,86.711,55.351,86.841,55.889z" opacity=".35"/><path fill="#f2f2f2" d="M84.674,53.735c2.059,8.917-0.076,18.189-5.873,25.426c-5.948,7.431-14.833,11.685-24.368,11.685 H33.717c-0.932,0-1.831-0.183-2.687-0.528c-0.91-0.366-1.723-0.905-2.416-1.594C25.981,86.118,2.967,62.717,3,44.721 c0.022-17.5,15.927-29.26,30.76-29.26c14.183,0,29.352,10.758,30.674,26.999c1.614-3.382,3.944-7.129,6.772-11.028 c1.04-1.443,2.07-2.649,3.012-3.737c2.828-3.285,3.998-4.641,3.413-11.071c-0.347-3.834,2.514-7.248,6.414-7.603 C84.241,9.011,84.436,9,84.631,9c3.673,0,6.696,2.735,7.021,6.365c1.127,12.299-3.229,17.371-6.739,21.452 c-0.802,0.926-1.571,1.809-2.275,2.789c-2.037,2.822-1.398,4.717,0.238,8.723c0.498,1.206,1.008,2.455,1.376,3.78 C84.403,52.659,84.544,53.197,84.674,53.735z"/><path fill="#f4665c" d="M33.724,22.703c-11.41,0-23.318,9.055-23.338,22.028c-0.023,15.525,23.338,38.874,23.338,38.874 s23.362-23.317,23.338-38.874C57.041,31.777,45.134,22.703,33.724,22.703z"/><ellipse cx="33.681" cy="45.039" fill="#f2f2f2" rx="11.308" ry="11.345"/><path fill="#40396e" d="M80.803,33.3c3.279-3.81,6.375-7.409,5.458-17.446c-0.081-0.89-0.885-1.535-1.766-1.463 c-0.894,0.081-1.552,0.867-1.472,1.755c0.795,8.681-1.506,11.354-4.691,15.054c-0.888,1.033-1.806,2.099-2.73,3.376 c-4.931,6.814-2.514,12.704-0.749,17.005c0.419,1.02,0.814,1.985,1.043,2.809c0.119,0.429,0.227,0.854,0.325,1.275 c1.47,6.349-0.063,12.957-4.207,18.13c-4.294,5.361-10.702,8.437-17.58,8.437H37.666c6.238-6.696,21.464-24.387,21.444-37.503 c-0.023-14.286-13.126-23.882-25.349-23.882c-12.224,0-25.327,9.596-25.349,23.882c-0.024,16.11,23.046,39.214,24.028,40.19 c0.188,0.187,0.407,0.324,0.64,0.414c0.196,0.083,0.411,0.13,0.637,0.13h20.717c7.874,0,15.21-3.519,20.124-9.654 c4.764-5.948,6.524-13.554,4.831-20.867c-0.108-0.464-0.227-0.933-0.359-1.408c-0.281-1.01-0.712-2.059-1.168-3.171 c-1.641-4.001-3.502-8.535,0.379-13.898C79.084,35.296,79.958,34.281,80.803,33.3z M33.761,24.558 c10.421,0,21.592,8.107,21.612,20.176c0.019,12.538-16.725,31.059-21.61,36.196c-4.885-5.141-21.631-23.684-21.613-36.196 C12.168,32.665,23.339,24.558,33.761,24.558z"/></svg>