<svg xmlns="http://www.w3.org/2000/svg"  viewBox="0 0 100 100" width="100px" height="100px"><path fill="#1d1d1b" d="M86.654,26.979C85.452,25.113,83.41,24,81.191,24H67v-2.5c0-3.584-2.916-6.5-6.5-6.5	h-47C9.916,15,7,17.916,7,21.5v54c0,3.584,2.916,6.5,6.5,6.5h6.024c2.392,4.813,7.327,8,12.976,8s10.584-3.188,12.976-8h18.049	c2.392,4.813,7.327,8,12.976,8s10.584-3.188,12.976-8H91.5c3.584,0,6.5-2.916,6.5-6.5v-29c0-1.253-0.358-2.471-1.036-3.521	L86.654,26.979z" opacity=".35"/><path fill="#f2f2f2" d="M84.654,24.979C83.452,23.113,81.41,22,79.191,22H65v-2.5c0-3.584-2.916-6.5-6.5-6.5h-47	C7.916,13,5,15.916,5,19.5v54c0,3.584,2.916,6.5,6.5,6.5h6.024c2.392,4.813,7.327,8,12.976,8s10.584-3.188,12.976-8h18.049	c2.392,4.813,7.327,8,12.976,8s10.584-3.188,12.976-8H89.5c3.584,0,6.5-2.916,6.5-6.5v-29c0-1.253-0.358-2.471-1.036-3.521	L84.654,24.979z"/><rect width="47" height="54" x="11.5" y="19.5" fill="#9aa2e6"/><rect width="47" height="39.5" x="11.5" y="19.5" fill="#96c362"/><polygon fill="#ffc571" points="89.5,73.5 57,73.5 57,28.5 79.191,28.5 89.5,44.5"/><circle cx="74.5" cy="73.5" r="6.5" fill="#707cc0"/><circle cx="30.5" cy="73.5" r="6.5" fill="#707cc0"/><polygon fill="#d9eeff" points="89.5,51 66,51 66,35 83.379,35 89.5,44.5"/><rect width="6.5" height="5" x="83" y="63" fill="#ff7575"/><rect width="6.5" height="5" x="11.5" y="63" fill="#ff7575"/><circle cx="30.5" cy="73.5" r="1.5" fill="#40396e"/><circle cx="74.5" cy="73.5" r="1.5" fill="#40396e"/><path fill="#fff" d="M30.017,52c-0.511,0-1.022-0.194-1.412-0.584l-7.017-7c-0.782-0.78-0.784-2.047-0.004-2.828	c0.779-0.782,2.047-0.785,2.828-0.004l5.603,5.589l15.58-15.578c0.781-0.781,2.047-0.781,2.828,0s0.781,2.047,0,2.828L31.431,51.414	C31.04,51.805,30.528,52,30.017,52z"/><path fill="#40396e" d="M74.5,83c-4.729,0-8.66-3.472-9.382-8H39.882c-0.722,4.528-4.653,8-9.382,8s-8.66-3.472-9.382-8H11.5	c-0.828,0-1.5-0.672-1.5-1.5v-54c0-0.828,0.672-1.5,1.5-1.5h47c0.828,0,1.5,0.672,1.5,1.5V27h19.191c0.51,0,0.984,0.259,1.261,0.688	l10.309,16C90.917,43.93,91,44.212,91,44.5v29c0,0.828-0.672,1.5-1.5,1.5h-5.618C83.16,79.528,79.229,83,74.5,83z M38.5,72h28	c0.828,0,1.5,0.672,1.5,1.5c0,3.584,2.916,6.5,6.5,6.5s6.5-2.916,6.5-6.5c0-0.828,0.672-1.5,1.5-1.5H88V44.941L78.373,30H58.5	c-0.828,0-1.5-0.672-1.5-1.5V21H13v51h9.5c0.828,0,1.5,0.672,1.5,1.5c0,3.584,2.916,6.5,6.5,6.5s6.5-2.916,6.5-6.5	C37,72.672,37.672,72,38.5,72z"/></svg>