<svg xmlns="http://www.w3.org/2000/svg"  viewBox="0 0 100 100" width="100px" height="100px" baseProfile="basic"><path fill="#1d1d1b" d="M96,55.051v-24.53c0-3.584-2.916-6.5-6.5-6.5L29,24l-1-2c-2.554-4.583-2.564-7-11-7 c-5.514,0-10,4.486-10,10s4.486,10,10,10c1.623,0,3.17-0.393,4.541-1.095l3.531,8.62c0,0,9.064,22.248,9.07,22.262 C35,70,37,74,39.173,79.955C40.1,85.091,44.602,89,50,89c5.383,0,9.875-3.886,10.817-9h5.365c0.942,5.114,5.435,9,10.817,9 c5.39,0,9.886-3.896,10.821-9.02c3.349-0.26,5.993-3.067,5.993-6.48c0-3.584-2.916-6.5-6.5-6.5h-9.158l8.273-1.156 C91.886,65.187,96,60.546,96,55.051z" opacity=".35"/><path fill="#f2f2f2" d="M94,53.051v-24.53c0-3.584-2.916-6.5-6.5-6.5H29.54l-0.837-2.044C26.149,15.394,23.436,13,15,13 C9.486,13,5,17.486,5,23s4.486,10,10,10c1.623,0,3.17-0.393,4.541-1.095l3.531,8.62c0,0,9.064,22.248,9.07,22.262 c-2.63,2.472-3.482,6.233-2.172,9.627c1.201,3.112,3.972,5.214,7.203,5.541C38.1,83.091,42.602,87,48,87 c5.383,0,9.875-3.886,10.817-9h5.365c0.942,5.114,5.435,9,10.817,9c5.39,0,9.886-3.896,10.821-9.02 c3.349-0.26,5.993-3.067,5.993-6.48c0-3.584-2.916-6.5-6.5-6.5h-9.158l8.273-1.156C89.886,63.187,94,58.546,94,53.051z"/><path fill="#40396e" d="M85.314,73H38.062c-1.521,0-2.866-0.937-3.426-2.386c-0.58-1.502-0.194-3.163,0.982-4.232 l4.487-4.19c0.604-0.565,1.554-0.534,2.119,0.072c0.566,0.604,0.533,1.554-0.072,2.119l-4.502,4.205 c-0.4,0.364-0.267,0.815-0.217,0.944C37.501,69.707,37.673,70,38.062,70h47.253c0.828,0,1.5,0.672,1.5,1.5S86.143,73,85.314,73z"/><path fill="#40396e" d="M42.257,64.63c-2.407,0-4.589-1.457-5.479-3.717L21.497,24H18.5c-0.828,0-1.5-0.672-1.5-1.5 s0.672-1.5,1.5-1.5h4c0.606,0,1.154,0.365,1.386,0.927L39.56,59.79c0.487,1.235,1.729,1.967,3.018,1.823l40.854-5.706 C84.91,55.732,86,54.507,86,53.051V28.5c0-0.828,0.672-1.5,1.5-1.5s1.5,0.672,1.5,1.5v24.551c0,2.978-2.229,5.484-5.187,5.832 L42.96,64.588C42.725,64.616,42.489,64.63,42.257,64.63z"/><circle cx="48" cy="76" r="4.5" fill="#707cc0"/><path fill="#40396e" d="M48,82c-3.309,0-6-2.691-6-6s2.691-6,6-6s6,2.691,6,6S51.309,82,48,82z M48,73c-1.654,0-3,1.346-3,3 s1.346,3,3,3s3-1.346,3-3S49.654,73,48,73z"/><circle cx="75" cy="76" r="4.5" fill="#707cc0"/><path fill="#40396e" d="M75,82c-3.309,0-6-2.691-6-6s2.691-6,6-6s6,2.691,6,6S78.309,82,75,82z M75,73c-1.654,0-3,1.346-3,3 s1.346,3,3,3s3-1.346,3-3S76.654,73,75,73z"/><circle cx="15" cy="23" r="3.5" fill="#de5147"/><path fill="#40396e" d="M15,28c-2.757,0-5-2.243-5-5s2.243-5,5-5s5,2.243,5,5S17.757,28,15,28z M15,21c-1.103,0-2,0.897-2,2 s0.897,2,2,2s2-0.897,2-2S16.103,21,15,21z"/><path fill="#40396e" d="M52.22,43.156c-1.464,0-2.599-0.502-3.407-1.504c-0.807-1.003-1.212-2.353-1.212-4.051 c0-1.698,0.408-3.044,1.224-4.038c0.816-0.994,1.948-1.492,3.394-1.492c1.448,0,2.578,0.501,3.394,1.504 c0.816,1.003,1.224,2.345,1.224,4.025c0,1.698-0.408,3.048-1.224,4.051C54.798,42.655,53.667,43.156,52.22,43.156z M52.22,40.692 c0.48,0,0.857-0.246,1.13-0.738c0.273-0.491,0.409-1.28,0.409-2.367s-0.136-1.868-0.41-2.341c-0.274-0.474-0.649-0.712-1.13-0.712 c-0.497,0-0.877,0.233-1.143,0.698c-0.264,0.466-0.397,1.252-0.397,2.354c0,1.121,0.132,1.919,0.397,2.393 C51.341,40.455,51.722,40.692,52.22,40.692z M55.916,49.771c-0.259,0.433-0.579,0.681-0.959,0.749 c-0.38,0.066-0.734,0.008-1.063-0.175c-0.328-0.183-0.557-0.452-0.687-0.81c-0.13-0.357-0.065-0.744,0.195-1.16l9.302-15.51 c0.26-0.433,0.579-0.685,0.959-0.761c0.38-0.075,0.734-0.021,1.063,0.162c0.328,0.183,0.553,0.453,0.674,0.81 c0.121,0.358,0.061,0.744-0.181,1.16L55.916,49.771z M66.383,50.546c-1.464,0-2.599-0.501-3.407-1.504 c-0.807-1.003-1.212-2.362-1.212-4.076c0-1.698,0.408-3.039,1.224-4.025s1.948-1.479,3.394-1.479c1.448,0,2.578,0.498,3.394,1.492 C70.592,41.949,71,43.286,71,44.967c0,1.715-0.404,3.074-1.212,4.076C68.983,50.045,67.847,50.546,66.383,50.546z M66.383,48.082 c0.497,0,0.876-0.241,1.143-0.725c0.265-0.484,0.397-1.278,0.397-2.384c0-1.071-0.136-1.848-0.409-2.332 c-0.274-0.484-0.65-0.725-1.13-0.725c-0.497,0-0.877,0.234-1.143,0.7s-0.397,1.253-0.397,2.358c0,1.123,0.132,1.922,0.397,2.397 C65.506,47.845,65.887,48.082,66.383,48.082z"/></svg>