<svg xmlns="http://www.w3.org/2000/svg"  viewBox="0 0 100 100" width="50px" height="50px"><path d="M42.5,100c-1.638,0-3.203-0.612-4.408-1.723L26,86C22.815,83.883,7.759,73.628,7.759,51 c0-21.9,16.973-28.622,23.248-30.357C34.88,17.017,40.521,16,43.5,16h6.719c-0.005-0.097-0.007-0.194-0.007-0.292 c0-3.584,2.916-6.5,6.5-6.5h28.029c1.156,0,2.294,0.309,3.291,0.895C88.847,10.581,96,15.052,96,24.5 c0,5.344-1.971,9.769-5.7,12.794c-3.465,2.812-8.214,4.237-14.115,4.237c-1.976,0-3.721-0.166-4.983-0.333 c-0.197,0.094-0.396,0.189-0.598,0.284c1.12,1.427,1.633,3.305,1.291,5.183l-2,10.998c-0.562,3.091-3.249,5.335-6.39,5.337 c-0.393,0-0.786-0.036-1.173-0.106c-0.086-0.016-0.171-0.033-0.256-0.052c-1.146,1.912-3.233,3.157-5.571,3.158 c-0.393,0-0.786-0.036-1.173-0.106c-0.086-0.016-0.171-0.033-0.256-0.052c-1.146,1.912-3.233,3.157-5.571,3.158 c-0.393,0-0.786-0.036-1.173-0.106c-0.964-0.175-1.858-0.558-2.633-1.117c-0.001,0.005-0.002,0.01-0.003,0.016 c-0.082,0.465-0.212,0.914-0.387,1.34l9.529,2.006c2.549,0.536,4.526,2.534,5.035,5.09c0.975,4.871-0.65,8.531-2.99,10.835 c-0.612,2.889-2.349,5.407-4.882,7.066C50.173,97.995,46.142,100,42.5,100z" opacity=".35"/><path fill="#f2f2f2" d="M40.5,98c-1.638,0-3.203-0.612-4.408-1.723L23.516,84.669C20.331,82.552,5.759,71.628,5.759,49 c0-21.9,16.973-28.622,23.248-30.357C32.88,15.017,38.521,14,41.5,14h6.719c-0.005-0.097-0.007-0.194-0.007-0.292 c0-3.584,2.916-6.5,6.5-6.5h28.029c1.156,0,2.294,0.309,3.291,0.895C86.847,8.581,94,13.052,94,22.5 c0,5.344-1.971,9.769-5.7,12.794c-3.465,2.812-8.214,4.237-14.115,4.237c-1.976,0-3.721-0.166-4.983-0.333 c-0.197,0.094-0.396,0.189-0.598,0.284c1.12,1.427,1.633,3.305,1.291,5.183l-2,10.998c-0.562,3.091-3.249,5.335-6.39,5.337 c-0.393,0-0.786-0.036-1.173-0.106c-0.086-0.016-0.171-0.033-0.256-0.052c-1.146,1.912-3.233,3.157-5.571,3.158 c-0.393,0-0.786-0.036-1.173-0.106c-0.086-0.016-0.171-0.033-0.256-0.052c-1.146,1.912-3.233,3.157-5.571,3.158 c-0.393,0-0.786-0.036-1.173-0.106c-0.964-0.175,6.507,2.246,6.507,2.246c2.549,0.536,4.526,2.534,5.035,5.09 c0.975,4.871-0.65,8.531-2.99,10.835c-0.612,2.889-2.349,5.407-4.882,7.066C48.173,95.995,44.142,98,40.5,98z"/><path fill="#de5147" d="M79.5,20.5c0,0-29,0-38,0c-2.236,0-7,1-9,4c0,0-20.242,3-20.242,24.5S27.5,79.5,27.5,79.5l13,12 c0,0,4,0,4-4c0,0,5-1,4-6c0,0,4-1,3-6l-19-4c0,0-4-5-4-13c0-12,11-15,11-15s4,0,7-1s30-14,30-14l-8-2L79.5,20.5z"/><path fill="#ff7575" d="M35,24c0,0-4.202,2.281-1.371,10.506c2.831,8.225,8.697,7.483,9.843,7.213 c1.146-0.27,19.239-6.635,19.239-6.635l12.042-6.174l-5.229-2.969l7.251-5.442l-36.971,0.144L35,24z"/><polygon fill="#ff7575" points="32.5,71.5 26.455,78.795 40.573,91.91 44.338,88.779 48.632,82.811 51.663,74.989"/><path fill="#f4a3be" d="M27.157,26.618c0,0-0.507,9.101,4.719,13.483c0,0-8.852-2.996-8.404-12.116L27.157,26.618z"/><path fill="#f4a3be" d="M15.36,37.135c0,0,3.843,9.64,11.124,10.584c0,0-9.843,0.697-12.607-5.854L15.36,37.135z"/><path fill="#f4a3be" d="M12.933,54.461c0,0,4.517,3.438,12.067,0.944c0,0-3.303,5.056-11.124,2.697L12.933,54.461z"/><path fill="#f4a3be" d="M17.045,66.393c0,0,4.921-0.444,8.225-3.236c0,0-0.404,3.843-6.674,5.933L17.045,66.393z"/><path fill="none" stroke="#40396e" stroke-linecap="round" stroke-linejoin="round" stroke-miterlimit="10" stroke-width="3" d="M79.5,20.5c0,0-29,0-38,0c-2.236,0-7,1-9,4c0,0-20.242,3-20.242,24.5S27.5,79.5,27.5,79.5l13,12c0,0,4,0,4-4c0,0,5-1,4-6 c0,0,4-1,3-6l-19-4c0,0-4-5-4-13c0-12,11-15,11-15s4,0,7-1s30-14,30-14l-8-2L79.5,20.5z"/><polygon fill="#f4a3be" points="31.876,77.921 41.517,85.27 42.865,83.247"/><polygon fill="#f4a3be" points="33.505,75.252 44.341,80.685 45.291,78.447"/><polyline fill="none" stroke="#40396e" stroke-linecap="round" stroke-linejoin="round" stroke-miterlimit="10" stroke-width="3" points="28.559,57.027 36.663,55.337 39.398,59.247"/><polyline fill="none" stroke="#40396e" stroke-linecap="round" stroke-linejoin="round" stroke-miterlimit="10" stroke-width="3" points="28.755,61.961 34.561,60.751 37.296,64.661"/><polyline fill="none" stroke="#40396e" stroke-linecap="round" stroke-linejoin="round" stroke-miterlimit="10" stroke-width="3" points="37.5,44.5 49.5,49.5 47.5,60.5"/><polyline fill="none" stroke="#40396e" stroke-linecap="round" stroke-linejoin="round" stroke-miterlimit="10" stroke-width="3" points="46.5,42.5 56.5,46.5 54.5,57.5"/><polyline fill="none" stroke="#40396e" stroke-linecap="round" stroke-linejoin="round" stroke-miterlimit="10" stroke-width="3" points="53.5,39.5 63.5,43.5 61.5,54.5"/><path fill="none" stroke="#40396e" stroke-linecap="round" stroke-linejoin="round" stroke-miterlimit="10" stroke-width="3" d="M54.712,13.708h28.03c0,0,4.758,2.792,4.758,8.792c0,14-19,10-19,10"/><circle cx="55" cy="26" r="2" fill="#40396e"/><path fill="#f4a3be" d="M38,25c0,0,1,10,6,14C44,39,32.398,36.618,38,25z"/></svg>