<svg xmlns="http://www.w3.org/2000/svg"  viewBox="0 0 100 100" width="50px" height="50px"><path d="M88.5,16h-77C7.916,16,5,18.916,5,22.5v55c0,3.584,2.916,6.5,6.5,6.5h77c3.584,0,6.5-2.916,6.5-6.5 v-55C95,18.916,92.084,16,88.5,16z" opacity=".35"/><path fill="#f2f2f2" d="M86.5,14h-77C5.916,14,3,16.916,3,20.5v55C3,79.084,5.916,82,9.5,82h77c3.584,0,6.5-2.916,6.5-6.5 v-55C93,16.916,90.084,14,86.5,14z"/><path fill="#f2f2f2" d="M9,48h78v28H9V48z"/><path fill="#de5147" d="M9,20h78v28H9V20z"/><rect width="77" height="55" x="9.5" y="20.5" fill="none" stroke="#40396e" stroke-linejoin="round" stroke-miterlimit="10" stroke-width="3"/><g><path fill="#f2f2f2" d="M23,35c0-4.701,3.41-8.633,8-9.703C30.197,25.11,29.363,25,28.5,25C22.701,25,18,29.477,18,35 c0,5.523,4.701,10,10.5,10c0.863,0,1.697-0.11,2.5-0.297C26.41,43.633,23,39.701,23,35z"/><polygon fill="#f2f2f2" points="36,29 34.494,28.98 33.988,27.493 33.505,28.989 32,29 33.207,29.978 32.783,31.493 34.012,30.58 35.255,31.472 34.807,29.964"/><polygon fill="#f2f2f2" points="31,33 29.494,32.98 28.988,31.493 28.505,32.989 27,33 28.207,33.978 27.783,35.493 29.012,34.58 30.255,35.472 29.807,33.964"/><polygon fill="#f2f2f2" points="33,38 31.494,37.98 30.988,36.493 30.505,37.989 29,38 30.207,38.978 29.783,40.493 31.012,39.58 32.255,40.472 31.807,38.964"/><polygon fill="#f2f2f2" points="39,38 37.494,37.98 36.988,36.493 36.505,37.989 35,38 36.207,38.978 35.783,40.493 37.012,39.58 38.255,40.472 37.807,38.964"/><polygon fill="#f2f2f2" points="41,33 39.494,32.98 38.988,31.493 38.505,32.989 37,33 38.207,33.978 37.783,35.493 39.012,34.58 40.255,35.472 39.807,33.964"/></g></svg>