<svg xmlns="http://www.w3.org/2000/svg"  viewBox="0 0 100 100" width="100px" height="100px"><path d="M47.711,94.341c-1.736,0-3.368-0.676-4.596-1.904L11.563,60.885 c-1.227-1.227-1.904-2.859-1.904-4.596s0.677-3.37,1.905-4.598l39.622-39.622c1.213-1.211,2.888-1.904,4.597-1.904h0.16 L85.9,12.012c3.269,0.201,5.887,2.818,6.087,6.089l1.834,29.716c0.114,1.862-0.576,3.683-1.895,5l-39.621,39.62 C51.079,93.665,49.447,94.341,47.711,94.341z" opacity=".35"/><path fill="#f2f2f2" d="M45.711,92.341c-1.736,0-3.368-0.676-4.596-1.904L9.563,58.885 c-1.227-1.227-1.904-2.859-1.904-4.596s0.677-3.37,1.905-4.598l39.622-39.622c1.213-1.211,2.888-1.904,4.597-1.904h0.16 L83.9,10.012c3.269,0.201,5.887,2.818,6.087,6.089l1.834,29.716c0.114,1.862-0.576,3.683-1.895,5l-39.621,39.62 C49.079,91.665,47.447,92.341,45.711,92.341z"/><polygon fill="#ff7575" points="45.711,85.841 14.159,54.289 53.782,14.666 83.5,16.5 85.334,46.218"/><path fill="#40396e" d="M45.711,87.341c-0.384,0-0.768-0.146-1.061-0.439L13.099,55.35c-0.586-0.585-0.586-1.536,0-2.121 l39.623-39.624c0.305-0.304,0.73-0.463,1.153-0.437l29.718,1.834c0.756,0.046,1.358,0.649,1.405,1.405l1.834,29.718 c0.026,0.429-0.132,0.849-0.437,1.153L46.771,86.901C46.479,87.194,46.095,87.341,45.711,87.341z M16.28,54.289L45.711,83.72 l38.085-38.084l-1.711-27.72l-27.72-1.711L16.28,54.289z"/><circle cx="71.393" cy="28.607" r="3.632" fill="#40396e"/></svg>