<svg xmlns="http://www.w3.org/2000/svg"  viewBox="0 0 100 100" width="50px" height="50px"><path fill="#ffee58" d="M55.139,58.045c-0.068,0-0.124,0.055-0.124,0.123c0,0.068,0.055,0.124,0.123,0.124 c0,0,0.001,0,0.001,0c0.068,0,0.124-0.055,0.124-0.123C55.263,58.101,55.208,58.045,55.139,58.045 C55.139,58.045,55.139,58.045,55.139,58.045z"/><path d="M88.5,15h-77C7.916,15,5,17.916,5,21.5v55c0,3.584,2.916,6.5,6.5,6.5h77c3.584,0,6.5-2.916,6.5-6.5 v-55C95,17.916,92.084,15,88.5,15z" opacity=".35"/><path fill="#f2f2f2" d="M86.5,13h-77C5.916,13,3,15.916,3,19.5v55C3,78.084,5.916,81,9.5,81h77c3.584,0,6.5-2.916,6.5-6.5 v-55C93,15.916,90.084,13,86.5,13z"/><rect width="77" height="9" x="10" y="65" fill="#de5147"/><rect width="77" height="9" x="10" y="56" fill="#f2f2f2"/><polygon fill="#2b59a1" points="86,47 86,38 9,38 9,47 10,47 10,56 87,56 87,47"/><rect width="77" height="9" x="9" y="29" fill="#f2f2f2"/><rect width="77" height="9" x="9" y="20" fill="#de5147"/><rect width="77" height="55" x="9.5" y="19.5" fill="none" stroke="#40396e" stroke-linejoin="round" stroke-miterlimit="10" stroke-width="3"/></svg>