<svg xmlns="http://www.w3.org/2000/svg"  viewBox="0 0 100 100" width="100px" height="100px" baseProfile="basic"><path fill="#1d1d1b" d="M95.99,82.99c0,7.72-6.28,14-14,14c-5.41,0-10.1-3.1-12.43-7.6C68.9,89.26,29.07,89.5,28,89.5 c-1.73,0-3.36-0.68-4.6-1.91c-1.23-1.23-1.9-2.86-1.9-4.59c0-1.09,0-11.75,0.12-15.38C16.45,62.23,2.48,46.49,2.5,33.28 C2.52,18.75,15.63,8.99,27.85,8.99c5.77,0,11.74,2.18,16.44,6.01H82c7.72,0.01,13.99,6.28,13.99,13.99 c0,5.13-2.78,9.61-6.91,12.05c0.03,0.24,0.05,0.49,0.05,0.75c0,1.01-0.24,20.79-0.14,21.23l0.06,0.31l0.03,0.29 c0.01,0.16,0.04,0.42,0.04,0.75c0,0.34-0.03,0.62-0.04,0.79l-0.03,0.29l-0.06,0.28c-0.1,0.44-0.24,0.86-0.41,1.25 c-0.08,0.18-0.26,0.59-0.58,1.06c-0.23,0.32-0.49,0.64-0.78,0.93c-0.27,0.27-0.57,0.51-0.88,0.73 C91.93,71.53,95.99,76.8,95.99,82.99z" opacity=".35"/><path fill="#f2f2f2" d="M93.99,80.99c0,7.72-6.28,14-14,14c-5.41,0-10.1-3.1-12.43-7.6C66.9,87.26,27.07,87.5,26,87.5 c-1.73,0-3.36-0.68-4.6-1.91c-1.23-1.23-1.9-2.86-1.9-4.59c0-1.09,0-11.75,0.12-15.38C14.45,60.23,0.48,44.49,0.5,31.28 C0.52,16.75,13.63,6.99,25.85,6.99c5.77,0,11.74,2.18,16.44,6.01H80c7.72,0.01,13.99,6.28,13.99,13.99 c0,5.13-2.78,9.61-6.91,12.05c0.03,0.24,0.05,0.49,0.05,0.75c0,1.01-0.24,20.79-0.14,21.23l0.06,0.31l0.03,0.29 c0.01,0.16,0.04,0.42,0.04,0.75c0,0.34-0.03,0.62-0.04,0.79l-0.03,0.29l-0.06,0.28c-0.1,0.44-0.24,0.86-0.41,1.25 c-0.08,0.18-0.26,0.59-0.58,1.06c-0.23,0.32-0.49,0.64-0.78,0.93c-0.27,0.27-0.57,0.51-0.88,0.73 C89.93,69.53,93.99,74.8,93.99,80.99z"/><path fill="#f4665c" d="M25.85,13.491c-9.216,0-18.834,7.317-18.849,17.801C6.981,43.839,25.85,62.708,25.85,62.708 s18.869-18.843,18.849-31.415C44.682,20.824,35.065,13.491,25.85,13.491z"/><circle cx="25.766" cy="31.201" r="8.827" fill="#f2f2f2"/><circle cx="79.993" cy="26.993" r="7.493" fill="#70bfff"/><circle cx="79.993" cy="80.993" r="7.493" fill="#70bfff"/><circle cx="38.25" cy="81" r="1.5" fill="#40396e"/><path fill="#40396e" d="M44.37,79.5c-0.82,0-1.49,0.67-1.49,1.5c0,0.83,0.67,1.5,1.49,1.5c0.83,0,1.5-0.67,1.5-1.5 C45.87,80.17,45.2,79.5,44.37,79.5z"/><path fill="#40396e" d="M32.12,79.5c-0.82,0-1.5,0.67-1.5,1.5c0,0.83,0.68,1.5,1.5,1.5c0.83,0,1.51-0.67,1.51-1.5 C33.63,80.17,32.95,79.5,32.12,79.5z"/><circle cx="68.75" cy="81" r="1.5" fill="#40396e"/><circle cx="62.63" cy="81" r="1.5" fill="#40396e"/><circle cx="50.5" cy="81" r="1.5" fill="#40396e"/><path fill="#40396e" d="M24.939,79.94C24.66,80.22,24.5,80.61,24.5,81c0,0.4,0.16,0.78,0.439,1.06 C25.22,82.34,25.6,82.5,26,82.5c0.399,0,0.78-0.16,1.06-0.44c0.28-0.28,0.44-0.67,0.44-1.06c0-0.39-0.16-0.78-0.44-1.06 C26.5,79.38,25.49,79.38,24.939,79.94z"/><circle cx="26" cy="74.79" r="1.5" fill="#40396e"/><circle cx="26" cy="68.58" r="1.5" fill="#40396e"/><circle cx="74.55" cy="62.38" r="1.5" fill="#40396e"/><circle cx="32.08" cy="62.38" r="1.5" fill="#40396e"/><circle cx="38.16" cy="62.38" r="1.5" fill="#40396e"/><circle cx="44.229" cy="62.38" r="1.5" fill="#40396e"/><circle cx="62.39" cy="62.38" r="1.5" fill="#40396e"/><circle cx="56.63" cy="81" r="1.5" fill="#40396e"/><circle cx="56.39" cy="62.38" r="1.5" fill="#40396e"/><circle cx="68.47" cy="62.38" r="1.5" fill="#40396e"/><circle cx="50.31" cy="62.38" r="1.5" fill="#40396e"/><path fill="#40396e" d="M81.87,61.54c-0.051-0.08-0.12-0.16-0.19-0.23c-0.55-0.55-1.56-0.55-2.12,0 c-0.069,0.07-0.13,0.15-0.18,0.23c-0.061,0.08-0.1,0.17-0.14,0.26s-0.07,0.19-0.091,0.28c-0.01,0.1-0.029,0.2-0.029,0.29 c0,0.4,0.16,0.79,0.439,1.07c0.28,0.27,0.67,0.44,1.061,0.44c0.399,0,0.79-0.17,1.06-0.44c0.07-0.07,0.14-0.15,0.19-0.23 c0.06-0.08,0.1-0.17,0.14-0.26c0.04-0.09,0.07-0.19,0.09-0.28c0.01-0.1,0.021-0.2,0.021-0.3c0-0.09-0.011-0.19-0.021-0.29 c-0.02-0.09-0.05-0.19-0.09-0.28S81.93,61.62,81.87,61.54z"/><path fill="#40396e" d="M80.63,55.23c-0.83,0-1.51,0.67-1.51,1.5s0.68,1.5,1.51,1.5c0.82,0,1.5-0.67,1.5-1.5 S81.45,55.23,80.63,55.23z"/><path fill="#40396e" d="M80.63,49.58c-0.83,0-1.51,0.68-1.51,1.5c0,0.83,0.68,1.5,1.51,1.5c0.82,0,1.5-0.67,1.5-1.5 C82.13,50.26,81.45,49.58,80.63,49.58z"/><path fill="#40396e" d="M80.63,38.29c-0.83,0-1.51,0.67-1.51,1.5c0,0.83,0.68,1.5,1.51,1.5c0.82,0,1.5-0.67,1.5-1.5 C82.13,38.96,81.45,38.29,80.63,38.29z"/><path fill="#40396e" d="M80.63,43.94c-0.83,0-1.51,0.67-1.51,1.5c0,0.82,0.68,1.5,1.51,1.5c0.82,0,1.5-0.68,1.5-1.5 C82.13,44.61,81.45,43.94,80.63,43.94z"/><path fill="#40396e" d="M25.85,11.991c-9.813,0-20.332,7.755-20.35,19.299C5.48,44.31,24.001,62.98,24.789,63.769 c0.293,0.293,0.677,0.439,1.061,0.439s0.768-0.146,1.06-0.438c0.789-0.788,19.311-19.434,19.29-32.479 C46.181,19.746,35.662,11.991,25.85,11.991z M25.851,60.546C21.929,56.392,8.485,41.406,8.5,31.295 c0.015-9.753,8.982-16.304,17.35-16.304c8.366,0,17.334,6.551,17.35,16.304C43.215,41.427,29.772,56.395,25.851,60.546z"/><path fill="#40396e" d="M79.993,35.986c4.959,0,8.993-4.034,8.993-8.993c0-4.959-4.034-8.993-8.993-8.993 S71,22.034,71,26.993C71,31.952,75.034,35.986,79.993,35.986z M79.993,21c3.305,0,5.993,2.688,5.993,5.993 c0,3.304-2.688,5.993-5.993,5.993S74,30.297,74,26.993C74,23.688,76.688,21,79.993,21z"/><path fill="#40396e" d="M79.993,72C75.034,72,71,76.034,71,80.993c0,4.958,4.034,8.993,8.993,8.993s8.993-4.034,8.993-8.993 C88.986,76.034,84.952,72,79.993,72z M79.993,86.986c-3.305,0-5.993-2.688-5.993-5.993C74,77.688,76.688,75,79.993,75 s5.993,2.688,5.993,5.993C85.986,84.297,83.298,86.986,79.993,86.986z"/></svg>