<svg xmlns="http://www.w3.org/2000/svg"  viewBox="0 0 100 100" width="50px" height="50px"><path d="M88.5,16h-77C7.916,16,5,18.916,5,22.5v55c0,3.584,2.916,6.5,6.5,6.5h77c3.584,0,6.5-2.916,6.5-6.5 v-55C95,18.916,92.084,16,88.5,16z" opacity=".35"/><path fill="#f2f2f2" d="M86.5,14h-77C5.916,14,3,16.916,3,20.5v55C3,79.084,5.916,82,9.5,82h77c3.584,0,6.5-2.916,6.5-6.5 v-55C93,16.916,90.084,14,86.5,14z"/><path fill="#f2f2f2" d="M9,46h78v30H9V46z"/><path fill="#de5147" d="M87,21H9v53h78V21z"/><rect width="77" height="55" x="9.5" y="20.5" fill="none" stroke="#40396e" stroke-linejoin="round" stroke-miterlimit="10" stroke-width="3"/><g><polygon fill="#ffc571" points="42,51 34,44 44,44 48,34.905 52,44 62,44 54,50.905 57.5,60.905 48,54.905 38.5,60.905"/></g></svg>